ISO-10303-21;
HEADER;
/* Generated by software containing ST-Developer
 * from STEP Tools, Inc. (www.steptools.com) 
 */
/* OPTION: using custom renumber hook */

FILE_DESCRIPTION(
/* description */ ('STEP AP242 Edition 2',
'CAx-IF Rec.Pracs.---Representation and Presentation of Product Manufa
cturing Information (PMI)---4.0---2014-10-13',
'CAx-IF Rec.Pracs.---3D Tessellated Geometry---0.4---2014-09-14','2;1',
'CAx-IF Rec.Pracs.---User Defined Attributes---1.5---2016-08-15'),
/* implementation_level */ '2;1');

FILE_NAME(
/* name */ 'Part Studio 1',
/* time_stamp */ '2026-09-23T14:08:12Z',
/* author */ (''),
/* organization */ (''),
/* preprocessor_version */ 'ST-DEVELOPER v20',
/* originating_system */ 'ONSHAPE BY PTC INC, 1.221',
/* authorisation */ '  ');

FILE_SCHEMA (('AP242_MANAGED_MODEL_BASED_3D_ENGINEERING_MIM_LF { 1 0 10303 442 3 1 4 }'));
ENDSEC;

DATA;
#10=SHAPE_REPRESENTATION_RELATIONSHIP('','',#1134,#12);
#11=SHAPE_REPRESENTATION_RELATIONSHIP('','',#1135,#13);
#12=ADVANCED_BREP_SHAPE_REPRESENTATION('',(#1130),#1862);
#13=ADVANCED_BREP_SHAPE_REPRESENTATION('',(#1131),#1863);
#14=CIRCLE('',#1141,0.0005);
#15=CIRCLE('',#1142,0.0005);
#16=CIRCLE('',#1145,0.0005);
#17=CIRCLE('',#1146,0.0005);
#18=CIRCLE('',#1149,0.0005);
#19=CIRCLE('',#1150,0.0005);
#20=CIRCLE('',#1153,0.0005);
#21=CIRCLE('',#1154,0.0005);
#22=CIRCLE('',#1156,0.0005);
#23=CIRCLE('',#1157,0.0005);
#24=CIRCLE('',#1160,0.0005);
#25=CIRCLE('',#1161,0.0005);
#26=CIRCLE('',#1164,0.0005);
#27=CIRCLE('',#1165,0.0005);
#28=CIRCLE('',#1168,0.0005);
#29=CIRCLE('',#1169,0.0005);
#30=CIRCLE('',#1171,0.0005);
#31=CIRCLE('',#1172,0.0005);
#32=CIRCLE('',#1175,0.0005);
#33=CIRCLE('',#1176,0.0005);
#34=CIRCLE('',#1179,0.0005);
#35=CIRCLE('',#1180,0.0005);
#36=CIRCLE('',#1183,0.0005);
#37=CIRCLE('',#1184,0.0005);
#38=CIRCLE('',#1186,0.0005);
#39=CIRCLE('',#1187,0.0005);
#40=CIRCLE('',#1190,0.0005);
#41=CIRCLE('',#1191,0.0005);
#42=CIRCLE('',#1194,0.0005);
#43=CIRCLE('',#1195,0.0005);
#44=CIRCLE('',#1198,0.0005);
#45=CIRCLE('',#1199,0.0005);
#46=CIRCLE('',#1211,0.00145);
#47=CIRCLE('',#1212,0.00145);
#48=CIRCLE('',#1213,0.00145);
#49=CIRCLE('',#1214,0.00145);
#50=CIRCLE('',#1219,0.00145);
#51=CIRCLE('',#1220,0.00145);
#52=CIRCLE('',#1221,0.00145);
#53=CIRCLE('',#1222,0.00145);
#54=CYLINDRICAL_SURFACE('',#1140,0.0005);
#55=CYLINDRICAL_SURFACE('',#1144,0.0005);
#56=CYLINDRICAL_SURFACE('',#1148,0.0005);
#57=CYLINDRICAL_SURFACE('',#1152,0.0005);
#58=CYLINDRICAL_SURFACE('',#1155,0.0005);
#59=CYLINDRICAL_SURFACE('',#1159,0.0005);
#60=CYLINDRICAL_SURFACE('',#1163,0.0005);
#61=CYLINDRICAL_SURFACE('',#1167,0.0005);
#62=CYLINDRICAL_SURFACE('',#1170,0.0005);
#63=CYLINDRICAL_SURFACE('',#1174,0.0005);
#64=CYLINDRICAL_SURFACE('',#1178,0.0005);
#65=CYLINDRICAL_SURFACE('',#1182,0.0005);
#66=CYLINDRICAL_SURFACE('',#1185,0.0005);
#67=CYLINDRICAL_SURFACE('',#1189,0.0005);
#68=CYLINDRICAL_SURFACE('',#1193,0.0005);
#69=CYLINDRICAL_SURFACE('',#1197,0.0005);
#70=CYLINDRICAL_SURFACE('',#1227,0.00145);
#71=CYLINDRICAL_SURFACE('',#1228,0.00145);
#72=CYLINDRICAL_SURFACE('',#1229,0.00145);
#73=CYLINDRICAL_SURFACE('',#1230,0.00145);
#74=ORIENTED_EDGE('',*,*,#378,.F.);
#75=ORIENTED_EDGE('',*,*,#379,.F.);
#76=ORIENTED_EDGE('',*,*,#380,.T.);
#77=ORIENTED_EDGE('',*,*,#381,.T.);
#78=ORIENTED_EDGE('',*,*,#382,.T.);
#79=ORIENTED_EDGE('',*,*,#383,.F.);
#80=ORIENTED_EDGE('',*,*,#384,.F.);
#81=ORIENTED_EDGE('',*,*,#379,.T.);
#82=ORIENTED_EDGE('',*,*,#385,.T.);
#83=ORIENTED_EDGE('',*,*,#386,.F.);
#84=ORIENTED_EDGE('',*,*,#387,.F.);
#85=ORIENTED_EDGE('',*,*,#383,.T.);
#86=ORIENTED_EDGE('',*,*,#388,.F.);
#87=ORIENTED_EDGE('',*,*,#389,.F.);
#88=ORIENTED_EDGE('',*,*,#390,.T.);
#89=ORIENTED_EDGE('',*,*,#391,.T.);
#90=ORIENTED_EDGE('',*,*,#392,.T.);
#91=ORIENTED_EDGE('',*,*,#393,.F.);
#92=ORIENTED_EDGE('',*,*,#394,.F.);
#93=ORIENTED_EDGE('',*,*,#389,.T.);
#94=ORIENTED_EDGE('',*,*,#395,.F.);
#95=ORIENTED_EDGE('',*,*,#396,.F.);
#96=ORIENTED_EDGE('',*,*,#397,.T.);
#97=ORIENTED_EDGE('',*,*,#393,.T.);
#98=ORIENTED_EDGE('',*,*,#398,.T.);
#99=ORIENTED_EDGE('',*,*,#399,.F.);
#100=ORIENTED_EDGE('',*,*,#400,.F.);
#101=ORIENTED_EDGE('',*,*,#396,.T.);
#102=ORIENTED_EDGE('',*,*,#401,.F.);
#103=ORIENTED_EDGE('',*,*,#402,.F.);
#104=ORIENTED_EDGE('',*,*,#403,.T.);
#105=ORIENTED_EDGE('',*,*,#399,.T.);
#106=ORIENTED_EDGE('',*,*,#404,.F.);
#107=ORIENTED_EDGE('',*,*,#405,.F.);
#108=ORIENTED_EDGE('',*,*,#406,.T.);
#109=ORIENTED_EDGE('',*,*,#402,.T.);
#110=ORIENTED_EDGE('',*,*,#407,.F.);
#111=ORIENTED_EDGE('',*,*,#408,.F.);
#112=ORIENTED_EDGE('',*,*,#409,.T.);
#113=ORIENTED_EDGE('',*,*,#405,.T.);
#114=ORIENTED_EDGE('',*,*,#410,.F.);
#115=ORIENTED_EDGE('',*,*,#411,.F.);
#116=ORIENTED_EDGE('',*,*,#412,.T.);
#117=ORIENTED_EDGE('',*,*,#413,.T.);
#118=ORIENTED_EDGE('',*,*,#414,.T.);
#119=ORIENTED_EDGE('',*,*,#415,.F.);
#120=ORIENTED_EDGE('',*,*,#416,.F.);
#121=ORIENTED_EDGE('',*,*,#411,.T.);
#122=ORIENTED_EDGE('',*,*,#417,.F.);
#123=ORIENTED_EDGE('',*,*,#418,.F.);
#124=ORIENTED_EDGE('',*,*,#419,.T.);
#125=ORIENTED_EDGE('',*,*,#415,.T.);
#126=ORIENTED_EDGE('',*,*,#420,.T.);
#127=ORIENTED_EDGE('',*,*,#421,.F.);
#128=ORIENTED_EDGE('',*,*,#422,.F.);
#129=ORIENTED_EDGE('',*,*,#418,.T.);
#130=ORIENTED_EDGE('',*,*,#423,.F.);
#131=ORIENTED_EDGE('',*,*,#424,.F.);
#132=ORIENTED_EDGE('',*,*,#425,.T.);
#133=ORIENTED_EDGE('',*,*,#421,.T.);
#134=ORIENTED_EDGE('',*,*,#426,.F.);
#135=ORIENTED_EDGE('',*,*,#427,.F.);
#136=ORIENTED_EDGE('',*,*,#428,.T.);
#137=ORIENTED_EDGE('',*,*,#424,.T.);
#138=ORIENTED_EDGE('',*,*,#429,.F.);
#139=ORIENTED_EDGE('',*,*,#430,.F.);
#140=ORIENTED_EDGE('',*,*,#431,.T.);
#141=ORIENTED_EDGE('',*,*,#427,.T.);
#142=ORIENTED_EDGE('',*,*,#432,.F.);
#143=ORIENTED_EDGE('',*,*,#433,.F.);
#144=ORIENTED_EDGE('',*,*,#434,.T.);
#145=ORIENTED_EDGE('',*,*,#435,.T.);
#146=ORIENTED_EDGE('',*,*,#436,.T.);
#147=ORIENTED_EDGE('',*,*,#437,.F.);
#148=ORIENTED_EDGE('',*,*,#438,.F.);
#149=ORIENTED_EDGE('',*,*,#433,.T.);
#150=ORIENTED_EDGE('',*,*,#439,.F.);
#151=ORIENTED_EDGE('',*,*,#440,.F.);
#152=ORIENTED_EDGE('',*,*,#441,.T.);
#153=ORIENTED_EDGE('',*,*,#437,.T.);
#154=ORIENTED_EDGE('',*,*,#442,.T.);
#155=ORIENTED_EDGE('',*,*,#443,.F.);
#156=ORIENTED_EDGE('',*,*,#444,.F.);
#157=ORIENTED_EDGE('',*,*,#440,.T.);
#158=ORIENTED_EDGE('',*,*,#445,.F.);
#159=ORIENTED_EDGE('',*,*,#446,.F.);
#160=ORIENTED_EDGE('',*,*,#447,.T.);
#161=ORIENTED_EDGE('',*,*,#443,.T.);
#162=ORIENTED_EDGE('',*,*,#448,.F.);
#163=ORIENTED_EDGE('',*,*,#449,.F.);
#164=ORIENTED_EDGE('',*,*,#450,.T.);
#165=ORIENTED_EDGE('',*,*,#446,.T.);
#166=ORIENTED_EDGE('',*,*,#451,.F.);
#167=ORIENTED_EDGE('',*,*,#452,.F.);
#168=ORIENTED_EDGE('',*,*,#453,.T.);
#169=ORIENTED_EDGE('',*,*,#449,.T.);
#170=ORIENTED_EDGE('',*,*,#454,.F.);
#171=ORIENTED_EDGE('',*,*,#455,.F.);
#172=ORIENTED_EDGE('',*,*,#456,.T.);
#173=ORIENTED_EDGE('',*,*,#457,.T.);
#174=ORIENTED_EDGE('',*,*,#458,.T.);
#175=ORIENTED_EDGE('',*,*,#459,.F.);
#176=ORIENTED_EDGE('',*,*,#460,.F.);
#177=ORIENTED_EDGE('',*,*,#455,.T.);
#178=ORIENTED_EDGE('',*,*,#461,.F.);
#179=ORIENTED_EDGE('',*,*,#462,.F.);
#180=ORIENTED_EDGE('',*,*,#463,.T.);
#181=ORIENTED_EDGE('',*,*,#459,.T.);
#182=ORIENTED_EDGE('',*,*,#464,.T.);
#183=ORIENTED_EDGE('',*,*,#465,.F.);
#184=ORIENTED_EDGE('',*,*,#466,.F.);
#185=ORIENTED_EDGE('',*,*,#462,.T.);
#186=ORIENTED_EDGE('',*,*,#467,.F.);
#187=ORIENTED_EDGE('',*,*,#468,.F.);
#188=ORIENTED_EDGE('',*,*,#469,.T.);
#189=ORIENTED_EDGE('',*,*,#465,.T.);
#190=ORIENTED_EDGE('',*,*,#470,.F.);
#191=ORIENTED_EDGE('',*,*,#471,.F.);
#192=ORIENTED_EDGE('',*,*,#472,.T.);
#193=ORIENTED_EDGE('',*,*,#468,.T.);
#194=ORIENTED_EDGE('',*,*,#473,.F.);
#195=ORIENTED_EDGE('',*,*,#474,.F.);
#196=ORIENTED_EDGE('',*,*,#475,.T.);
#197=ORIENTED_EDGE('',*,*,#471,.T.);
#198=ORIENTED_EDGE('',*,*,#476,.F.);
#199=ORIENTED_EDGE('',*,*,#391,.F.);
#200=ORIENTED_EDGE('',*,*,#477,.T.);
#201=ORIENTED_EDGE('',*,*,#408,.T.);
#202=ORIENTED_EDGE('',*,*,#478,.F.);
#203=ORIENTED_EDGE('',*,*,#413,.F.);
#204=ORIENTED_EDGE('',*,*,#479,.T.);
#205=ORIENTED_EDGE('',*,*,#430,.T.);
#206=ORIENTED_EDGE('',*,*,#480,.F.);
#207=ORIENTED_EDGE('',*,*,#435,.F.);
#208=ORIENTED_EDGE('',*,*,#481,.T.);
#209=ORIENTED_EDGE('',*,*,#452,.T.);
#210=ORIENTED_EDGE('',*,*,#482,.F.);
#211=ORIENTED_EDGE('',*,*,#457,.F.);
#212=ORIENTED_EDGE('',*,*,#483,.T.);
#213=ORIENTED_EDGE('',*,*,#474,.T.);
#214=ORIENTED_EDGE('',*,*,#484,.F.);
#215=ORIENTED_EDGE('',*,*,#381,.F.);
#216=ORIENTED_EDGE('',*,*,#485,.T.);
#217=ORIENTED_EDGE('',*,*,#386,.T.);
#218=ORIENTED_EDGE('',*,*,#456,.F.);
#219=ORIENTED_EDGE('',*,*,#460,.T.);
#220=ORIENTED_EDGE('',*,*,#463,.F.);
#221=ORIENTED_EDGE('',*,*,#466,.T.);
#222=ORIENTED_EDGE('',*,*,#469,.F.);
#223=ORIENTED_EDGE('',*,*,#472,.F.);
#224=ORIENTED_EDGE('',*,*,#475,.F.);
#225=ORIENTED_EDGE('',*,*,#483,.F.);
#226=ORIENTED_EDGE('',*,*,#434,.F.);
#227=ORIENTED_EDGE('',*,*,#438,.T.);
#228=ORIENTED_EDGE('',*,*,#441,.F.);
#229=ORIENTED_EDGE('',*,*,#444,.T.);
#230=ORIENTED_EDGE('',*,*,#447,.F.);
#231=ORIENTED_EDGE('',*,*,#450,.F.);
#232=ORIENTED_EDGE('',*,*,#453,.F.);
#233=ORIENTED_EDGE('',*,*,#481,.F.);
#234=ORIENTED_EDGE('',*,*,#412,.F.);
#235=ORIENTED_EDGE('',*,*,#416,.T.);
#236=ORIENTED_EDGE('',*,*,#419,.F.);
#237=ORIENTED_EDGE('',*,*,#422,.T.);
#238=ORIENTED_EDGE('',*,*,#425,.F.);
#239=ORIENTED_EDGE('',*,*,#428,.F.);
#240=ORIENTED_EDGE('',*,*,#431,.F.);
#241=ORIENTED_EDGE('',*,*,#479,.F.);
#242=ORIENTED_EDGE('',*,*,#390,.F.);
#243=ORIENTED_EDGE('',*,*,#394,.T.);
#244=ORIENTED_EDGE('',*,*,#397,.F.);
#245=ORIENTED_EDGE('',*,*,#400,.T.);
#246=ORIENTED_EDGE('',*,*,#403,.F.);
#247=ORIENTED_EDGE('',*,*,#406,.F.);
#248=ORIENTED_EDGE('',*,*,#409,.F.);
#249=ORIENTED_EDGE('',*,*,#477,.F.);
#250=ORIENTED_EDGE('',*,*,#380,.F.);
#251=ORIENTED_EDGE('',*,*,#384,.T.);
#252=ORIENTED_EDGE('',*,*,#387,.T.);
#253=ORIENTED_EDGE('',*,*,#485,.F.);
#254=ORIENTED_EDGE('',*,*,#454,.T.);
#255=ORIENTED_EDGE('',*,*,#482,.T.);
#256=ORIENTED_EDGE('',*,*,#473,.T.);
#257=ORIENTED_EDGE('',*,*,#470,.T.);
#258=ORIENTED_EDGE('',*,*,#467,.T.);
#259=ORIENTED_EDGE('',*,*,#464,.F.);
#260=ORIENTED_EDGE('',*,*,#461,.T.);
#261=ORIENTED_EDGE('',*,*,#458,.F.);
#262=ORIENTED_EDGE('',*,*,#432,.T.);
#263=ORIENTED_EDGE('',*,*,#480,.T.);
#264=ORIENTED_EDGE('',*,*,#451,.T.);
#265=ORIENTED_EDGE('',*,*,#448,.T.);
#266=ORIENTED_EDGE('',*,*,#445,.T.);
#267=ORIENTED_EDGE('',*,*,#442,.F.);
#268=ORIENTED_EDGE('',*,*,#439,.T.);
#269=ORIENTED_EDGE('',*,*,#436,.F.);
#270=ORIENTED_EDGE('',*,*,#410,.T.);
#271=ORIENTED_EDGE('',*,*,#478,.T.);
#272=ORIENTED_EDGE('',*,*,#429,.T.);
#273=ORIENTED_EDGE('',*,*,#426,.T.);
#274=ORIENTED_EDGE('',*,*,#423,.T.);
#275=ORIENTED_EDGE('',*,*,#420,.F.);
#276=ORIENTED_EDGE('',*,*,#417,.T.);
#277=ORIENTED_EDGE('',*,*,#414,.F.);
#278=ORIENTED_EDGE('',*,*,#388,.T.);
#279=ORIENTED_EDGE('',*,*,#476,.T.);
#280=ORIENTED_EDGE('',*,*,#407,.T.);
#281=ORIENTED_EDGE('',*,*,#404,.T.);
#282=ORIENTED_EDGE('',*,*,#401,.T.);
#283=ORIENTED_EDGE('',*,*,#398,.F.);
#284=ORIENTED_EDGE('',*,*,#395,.T.);
#285=ORIENTED_EDGE('',*,*,#392,.F.);
#286=ORIENTED_EDGE('',*,*,#378,.T.);
#287=ORIENTED_EDGE('',*,*,#484,.T.);
#288=ORIENTED_EDGE('',*,*,#385,.F.);
#289=ORIENTED_EDGE('',*,*,#382,.F.);
#290=ORIENTED_EDGE('',*,*,#486,.F.);
#291=ORIENTED_EDGE('',*,*,#487,.F.);
#292=ORIENTED_EDGE('',*,*,#488,.T.);
#293=ORIENTED_EDGE('',*,*,#489,.T.);
#294=ORIENTED_EDGE('',*,*,#490,.F.);
#295=ORIENTED_EDGE('',*,*,#491,.T.);
#296=ORIENTED_EDGE('',*,*,#492,.T.);
#297=ORIENTED_EDGE('',*,*,#493,.F.);
#298=ORIENTED_EDGE('',*,*,#494,.F.);
#299=ORIENTED_EDGE('',*,*,#495,.F.);
#300=ORIENTED_EDGE('',*,*,#496,.T.);
#301=ORIENTED_EDGE('',*,*,#497,.T.);
#302=ORIENTED_EDGE('',*,*,#498,.F.);
#303=ORIENTED_EDGE('',*,*,#499,.F.);
#304=ORIENTED_EDGE('',*,*,#500,.T.);
#305=ORIENTED_EDGE('',*,*,#501,.T.);
#306=ORIENTED_EDGE('',*,*,#502,.F.);
#307=ORIENTED_EDGE('',*,*,#503,.F.);
#308=ORIENTED_EDGE('',*,*,#504,.F.);
#309=ORIENTED_EDGE('',*,*,#505,.F.);
#310=ORIENTED_EDGE('',*,*,#506,.F.);
#311=ORIENTED_EDGE('',*,*,#507,.T.);
#312=ORIENTED_EDGE('',*,*,#508,.T.);
#313=ORIENTED_EDGE('',*,*,#488,.F.);
#314=ORIENTED_EDGE('',*,*,#509,.F.);
#315=ORIENTED_EDGE('',*,*,#510,.T.);
#316=ORIENTED_EDGE('',*,*,#494,.T.);
#317=ORIENTED_EDGE('',*,*,#511,.F.);
#318=ORIENTED_EDGE('',*,*,#512,.F.);
#319=ORIENTED_EDGE('',*,*,#513,.F.);
#320=ORIENTED_EDGE('',*,*,#506,.T.);
#321=ORIENTED_EDGE('',*,*,#487,.T.);
#322=ORIENTED_EDGE('',*,*,#514,.T.);
#323=ORIENTED_EDGE('',*,*,#515,.F.);
#324=ORIENTED_EDGE('',*,*,#507,.F.);
#325=ORIENTED_EDGE('',*,*,#513,.T.);
#326=ORIENTED_EDGE('',*,*,#516,.T.);
#327=ORIENTED_EDGE('',*,*,#489,.F.);
#328=ORIENTED_EDGE('',*,*,#508,.F.);
#329=ORIENTED_EDGE('',*,*,#515,.T.);
#330=ORIENTED_EDGE('',*,*,#517,.T.);
#331=ORIENTED_EDGE('',*,*,#518,.T.);
#332=ORIENTED_EDGE('',*,*,#519,.T.);
#333=ORIENTED_EDGE('',*,*,#520,.T.);
#334=ORIENTED_EDGE('',*,*,#512,.T.);
#335=ORIENTED_EDGE('',*,*,#486,.T.);
#336=ORIENTED_EDGE('',*,*,#516,.F.);
#337=ORIENTED_EDGE('',*,*,#514,.F.);
#338=ORIENTED_EDGE('',*,*,#510,.F.);
#339=ORIENTED_EDGE('',*,*,#521,.F.);
#340=ORIENTED_EDGE('',*,*,#522,.T.);
#341=ORIENTED_EDGE('',*,*,#495,.T.);
#342=ORIENTED_EDGE('',*,*,#509,.T.);
#343=ORIENTED_EDGE('',*,*,#523,.F.);
#344=ORIENTED_EDGE('',*,*,#524,.F.);
#345=ORIENTED_EDGE('',*,*,#521,.T.);
#346=ORIENTED_EDGE('',*,*,#511,.T.);
#347=ORIENTED_EDGE('',*,*,#497,.F.);
#348=ORIENTED_EDGE('',*,*,#525,.F.);
#349=ORIENTED_EDGE('',*,*,#523,.T.);
#350=ORIENTED_EDGE('',*,*,#522,.F.);
#351=ORIENTED_EDGE('',*,*,#524,.T.);
#352=ORIENTED_EDGE('',*,*,#525,.T.);
#353=ORIENTED_EDGE('',*,*,#496,.F.);
#354=ORIENTED_EDGE('',*,*,#505,.T.);
#355=ORIENTED_EDGE('',*,*,#520,.F.);
#356=ORIENTED_EDGE('',*,*,#504,.T.);
#357=ORIENTED_EDGE('',*,*,#519,.F.);
#358=ORIENTED_EDGE('',*,*,#503,.T.);
#359=ORIENTED_EDGE('',*,*,#518,.F.);
#360=ORIENTED_EDGE('',*,*,#502,.T.);
#361=ORIENTED_EDGE('',*,*,#517,.F.);
#362=ORIENTED_EDGE('',*,*,#491,.F.);
#363=ORIENTED_EDGE('',*,*,#526,.F.);
#364=ORIENTED_EDGE('',*,*,#499,.T.);
#365=ORIENTED_EDGE('',*,*,#527,.T.);
#366=ORIENTED_EDGE('',*,*,#490,.T.);
#367=ORIENTED_EDGE('',*,*,#528,.F.);
#368=ORIENTED_EDGE('',*,*,#500,.F.);
#369=ORIENTED_EDGE('',*,*,#526,.T.);
#370=ORIENTED_EDGE('',*,*,#493,.T.);
#371=ORIENTED_EDGE('',*,*,#529,.F.);
#372=ORIENTED_EDGE('',*,*,#501,.F.);
#373=ORIENTED_EDGE('',*,*,#528,.T.);
#374=ORIENTED_EDGE('',*,*,#492,.F.);
#375=ORIENTED_EDGE('',*,*,#527,.F.);
#376=ORIENTED_EDGE('',*,*,#498,.T.);
#377=ORIENTED_EDGE('',*,*,#529,.T.);
#378=EDGE_CURVE('',#530,#531,#634,.T.);
#379=EDGE_CURVE('',#532,#530,#635,.T.);
#380=EDGE_CURVE('',#532,#533,#636,.T.);
#381=EDGE_CURVE('',#533,#531,#637,.T.);
#382=EDGE_CURVE('',#530,#534,#638,.T.);
#383=EDGE_CURVE('',#535,#534,#639,.T.);
#384=EDGE_CURVE('',#532,#535,#640,.T.);
#385=EDGE_CURVE('',#534,#536,#641,.T.);
#386=EDGE_CURVE('',#537,#536,#642,.T.);
#387=EDGE_CURVE('',#535,#537,#643,.T.);
#388=EDGE_CURVE('',#538,#539,#14,.T.);
#389=EDGE_CURVE('',#540,#538,#644,.T.);
#390=EDGE_CURVE('',#540,#541,#15,.T.);
#391=EDGE_CURVE('',#541,#539,#645,.T.);
#392=EDGE_CURVE('',#538,#542,#646,.T.);
#393=EDGE_CURVE('',#543,#542,#647,.T.);
#394=EDGE_CURVE('',#540,#543,#648,.T.);
#395=EDGE_CURVE('',#544,#542,#16,.T.);
#396=EDGE_CURVE('',#545,#544,#649,.T.);
#397=EDGE_CURVE('',#545,#543,#17,.T.);
#398=EDGE_CURVE('',#544,#546,#650,.T.);
#399=EDGE_CURVE('',#547,#546,#651,.T.);
#400=EDGE_CURVE('',#545,#547,#652,.T.);
#401=EDGE_CURVE('',#548,#546,#18,.T.);
#402=EDGE_CURVE('',#549,#548,#653,.T.);
#403=EDGE_CURVE('',#549,#547,#19,.T.);
#404=EDGE_CURVE('',#550,#548,#654,.T.);
#405=EDGE_CURVE('',#551,#550,#655,.T.);
#406=EDGE_CURVE('',#551,#549,#656,.T.);
#407=EDGE_CURVE('',#552,#550,#20,.T.);
#408=EDGE_CURVE('',#553,#552,#657,.T.);
#409=EDGE_CURVE('',#553,#551,#21,.T.);
#410=EDGE_CURVE('',#554,#555,#22,.T.);
#411=EDGE_CURVE('',#556,#554,#658,.T.);
#412=EDGE_CURVE('',#556,#557,#23,.T.);
#413=EDGE_CURVE('',#557,#555,#659,.T.);
#414=EDGE_CURVE('',#554,#558,#660,.T.);
#415=EDGE_CURVE('',#559,#558,#661,.T.);
#416=EDGE_CURVE('',#556,#559,#662,.T.);
#417=EDGE_CURVE('',#560,#558,#24,.T.);
#418=EDGE_CURVE('',#561,#560,#663,.T.);
#419=EDGE_CURVE('',#561,#559,#25,.T.);
#420=EDGE_CURVE('',#560,#562,#664,.T.);
#421=EDGE_CURVE('',#563,#562,#665,.T.);
#422=EDGE_CURVE('',#561,#563,#666,.T.);
#423=EDGE_CURVE('',#564,#562,#26,.T.);
#424=EDGE_CURVE('',#565,#564,#667,.T.);
#425=EDGE_CURVE('',#565,#563,#27,.T.);
#426=EDGE_CURVE('',#566,#564,#668,.T.);
#427=EDGE_CURVE('',#567,#566,#669,.T.);
#428=EDGE_CURVE('',#567,#565,#670,.T.);
#429=EDGE_CURVE('',#568,#566,#28,.T.);
#430=EDGE_CURVE('',#569,#568,#671,.T.);
#431=EDGE_CURVE('',#569,#567,#29,.T.);
#432=EDGE_CURVE('',#570,#571,#30,.T.);
#433=EDGE_CURVE('',#572,#570,#672,.T.);
#434=EDGE_CURVE('',#572,#573,#31,.T.);
#435=EDGE_CURVE('',#573,#571,#673,.T.);
#436=EDGE_CURVE('',#570,#574,#674,.T.);
#437=EDGE_CURVE('',#575,#574,#675,.T.);
#438=EDGE_CURVE('',#572,#575,#676,.T.);
#439=EDGE_CURVE('',#576,#574,#32,.T.);
#440=EDGE_CURVE('',#577,#576,#677,.T.);
#441=EDGE_CURVE('',#577,#575,#33,.T.);
#442=EDGE_CURVE('',#576,#578,#678,.T.);
#443=EDGE_CURVE('',#579,#578,#679,.T.);
#444=EDGE_CURVE('',#577,#579,#680,.T.);
#445=EDGE_CURVE('',#580,#578,#34,.T.);
#446=EDGE_CURVE('',#581,#580,#681,.T.);
#447=EDGE_CURVE('',#581,#579,#35,.T.);
#448=EDGE_CURVE('',#582,#580,#682,.T.);
#449=EDGE_CURVE('',#583,#582,#683,.T.);
#450=EDGE_CURVE('',#583,#581,#684,.T.);
#451=EDGE_CURVE('',#584,#582,#36,.T.);
#452=EDGE_CURVE('',#585,#584,#685,.T.);
#453=EDGE_CURVE('',#585,#583,#37,.T.);
#454=EDGE_CURVE('',#586,#587,#38,.T.);
#455=EDGE_CURVE('',#588,#586,#686,.T.);
#456=EDGE_CURVE('',#588,#589,#39,.T.);
#457=EDGE_CURVE('',#589,#587,#687,.T.);
#458=EDGE_CURVE('',#586,#590,#688,.T.);
#459=EDGE_CURVE('',#591,#590,#689,.T.);
#460=EDGE_CURVE('',#588,#591,#690,.T.);
#461=EDGE_CURVE('',#592,#590,#40,.T.);
#462=EDGE_CURVE('',#593,#592,#691,.T.);
#463=EDGE_CURVE('',#593,#591,#41,.T.);
#464=EDGE_CURVE('',#592,#594,#692,.T.);
#465=EDGE_CURVE('',#595,#594,#693,.T.);
#466=EDGE_CURVE('',#593,#595,#694,.T.);
#467=EDGE_CURVE('',#596,#594,#42,.T.);
#468=EDGE_CURVE('',#597,#596,#695,.T.);
#469=EDGE_CURVE('',#597,#595,#43,.T.);
#470=EDGE_CURVE('',#598,#596,#696,.T.);
#471=EDGE_CURVE('',#599,#598,#697,.T.);
#472=EDGE_CURVE('',#599,#597,#698,.T.);
#473=EDGE_CURVE('',#600,#598,#44,.T.);
#474=EDGE_CURVE('',#601,#600,#699,.T.);
#475=EDGE_CURVE('',#601,#599,#45,.T.);
#476=EDGE_CURVE('',#539,#552,#700,.T.);
#477=EDGE_CURVE('',#541,#553,#701,.T.);
#478=EDGE_CURVE('',#555,#568,#702,.T.);
#479=EDGE_CURVE('',#557,#569,#703,.T.);
#480=EDGE_CURVE('',#571,#584,#704,.T.);
#481=EDGE_CURVE('',#573,#585,#705,.T.);
#482=EDGE_CURVE('',#587,#600,#706,.T.);
#483=EDGE_CURVE('',#589,#601,#707,.T.);
#484=EDGE_CURVE('',#531,#536,#708,.T.);
#485=EDGE_CURVE('',#533,#537,#709,.T.);
#486=EDGE_CURVE('',#602,#603,#710,.T.);
#487=EDGE_CURVE('',#604,#602,#711,.T.);
#488=EDGE_CURVE('',#604,#605,#712,.T.);
#489=EDGE_CURVE('',#605,#603,#713,.T.);
#490=EDGE_CURVE('',#606,#607,#714,.T.);
#491=EDGE_CURVE('',#606,#608,#715,.T.);
#492=EDGE_CURVE('',#608,#609,#716,.T.);
#493=EDGE_CURVE('',#607,#609,#717,.T.);
#494=EDGE_CURVE('',#610,#611,#718,.T.);
#495=EDGE_CURVE('',#612,#610,#719,.T.);
#496=EDGE_CURVE('',#612,#613,#720,.T.);
#497=EDGE_CURVE('',#613,#611,#721,.T.);
#498=EDGE_CURVE('',#614,#615,#722,.T.);
#499=EDGE_CURVE('',#616,#614,#723,.T.);
#500=EDGE_CURVE('',#616,#617,#724,.T.);
#501=EDGE_CURVE('',#617,#615,#725,.T.);
#502=EDGE_CURVE('',#618,#618,#46,.T.);
#503=EDGE_CURVE('',#619,#619,#47,.T.);
#504=EDGE_CURVE('',#620,#620,#48,.T.);
#505=EDGE_CURVE('',#621,#621,#49,.T.);
#506=EDGE_CURVE('',#622,#604,#726,.T.);
#507=EDGE_CURVE('',#622,#623,#727,.T.);
#508=EDGE_CURVE('',#623,#605,#728,.T.);
#509=EDGE_CURVE('',#624,#625,#729,.T.);
#510=EDGE_CURVE('',#624,#610,#730,.T.);
#511=EDGE_CURVE('',#625,#611,#731,.T.);
#512=EDGE_CURVE('',#626,#602,#732,.T.);
#513=EDGE_CURVE('',#622,#626,#733,.T.);
#514=EDGE_CURVE('',#626,#627,#734,.T.);
#515=EDGE_CURVE('',#623,#627,#735,.T.);
#516=EDGE_CURVE('',#627,#603,#736,.T.);
#517=EDGE_CURVE('',#628,#628,#50,.T.);
#518=EDGE_CURVE('',#629,#629,#51,.T.);
#519=EDGE_CURVE('',#630,#630,#52,.T.);
#520=EDGE_CURVE('',#631,#631,#53,.T.);
#521=EDGE_CURVE('',#632,#624,#737,.T.);
#522=EDGE_CURVE('',#632,#612,#738,.T.);
#523=EDGE_CURVE('',#633,#625,#739,.T.);
#524=EDGE_CURVE('',#632,#633,#740,.T.);
#525=EDGE_CURVE('',#633,#613,#741,.T.);
#526=EDGE_CURVE('',#616,#606,#742,.T.);
#527=EDGE_CURVE('',#614,#608,#743,.T.);
#528=EDGE_CURVE('',#617,#607,#744,.T.);
#529=EDGE_CURVE('',#615,#609,#745,.T.);
#530=VERTEX_POINT('',#1548);
#531=VERTEX_POINT('',#1549);
#532=VERTEX_POINT('',#1551);
#533=VERTEX_POINT('',#1553);
#534=VERTEX_POINT('',#1557);
#535=VERTEX_POINT('',#1559);
#536=VERTEX_POINT('',#1563);
#537=VERTEX_POINT('',#1565);
#538=VERTEX_POINT('',#1569);
#539=VERTEX_POINT('',#1570);
#540=VERTEX_POINT('',#1572);
#541=VERTEX_POINT('',#1574);
#542=VERTEX_POINT('',#1578);
#543=VERTEX_POINT('',#1580);
#544=VERTEX_POINT('',#1584);
#545=VERTEX_POINT('',#1586);
#546=VERTEX_POINT('',#1590);
#547=VERTEX_POINT('',#1592);
#548=VERTEX_POINT('',#1596);
#549=VERTEX_POINT('',#1598);
#550=VERTEX_POINT('',#1602);
#551=VERTEX_POINT('',#1604);
#552=VERTEX_POINT('',#1608);
#553=VERTEX_POINT('',#1610);
#554=VERTEX_POINT('',#1614);
#555=VERTEX_POINT('',#1615);
#556=VERTEX_POINT('',#1617);
#557=VERTEX_POINT('',#1619);
#558=VERTEX_POINT('',#1623);
#559=VERTEX_POINT('',#1625);
#560=VERTEX_POINT('',#1629);
#561=VERTEX_POINT('',#1631);
#562=VERTEX_POINT('',#1635);
#563=VERTEX_POINT('',#1637);
#564=VERTEX_POINT('',#1641);
#565=VERTEX_POINT('',#1643);
#566=VERTEX_POINT('',#1647);
#567=VERTEX_POINT('',#1649);
#568=VERTEX_POINT('',#1653);
#569=VERTEX_POINT('',#1655);
#570=VERTEX_POINT('',#1659);
#571=VERTEX_POINT('',#1660);
#572=VERTEX_POINT('',#1662);
#573=VERTEX_POINT('',#1664);
#574=VERTEX_POINT('',#1668);
#575=VERTEX_POINT('',#1670);
#576=VERTEX_POINT('',#1674);
#577=VERTEX_POINT('',#1676);
#578=VERTEX_POINT('',#1680);
#579=VERTEX_POINT('',#1682);
#580=VERTEX_POINT('',#1686);
#581=VERTEX_POINT('',#1688);
#582=VERTEX_POINT('',#1692);
#583=VERTEX_POINT('',#1694);
#584=VERTEX_POINT('',#1698);
#585=VERTEX_POINT('',#1700);
#586=VERTEX_POINT('',#1704);
#587=VERTEX_POINT('',#1705);
#588=VERTEX_POINT('',#1707);
#589=VERTEX_POINT('',#1709);
#590=VERTEX_POINT('',#1713);
#591=VERTEX_POINT('',#1715);
#592=VERTEX_POINT('',#1719);
#593=VERTEX_POINT('',#1721);
#594=VERTEX_POINT('',#1725);
#595=VERTEX_POINT('',#1727);
#596=VERTEX_POINT('',#1731);
#597=VERTEX_POINT('',#1733);
#598=VERTEX_POINT('',#1737);
#599=VERTEX_POINT('',#1739);
#600=VERTEX_POINT('',#1743);
#601=VERTEX_POINT('',#1745);
#602=VERTEX_POINT('',#1767);
#603=VERTEX_POINT('',#1768);
#604=VERTEX_POINT('',#1770);
#605=VERTEX_POINT('',#1772);
#606=VERTEX_POINT('',#1775);
#607=VERTEX_POINT('',#1776);
#608=VERTEX_POINT('',#1778);
#609=VERTEX_POINT('',#1780);
#610=VERTEX_POINT('',#1784);
#611=VERTEX_POINT('',#1785);
#612=VERTEX_POINT('',#1787);
#613=VERTEX_POINT('',#1789);
#614=VERTEX_POINT('',#1792);
#615=VERTEX_POINT('',#1793);
#616=VERTEX_POINT('',#1795);
#617=VERTEX_POINT('',#1797);
#618=VERTEX_POINT('',#1801);
#619=VERTEX_POINT('',#1803);
#620=VERTEX_POINT('',#1805);
#621=VERTEX_POINT('',#1807);
#622=VERTEX_POINT('',#1809);
#623=VERTEX_POINT('',#1811);
#624=VERTEX_POINT('',#1814);
#625=VERTEX_POINT('',#1815);
#626=VERTEX_POINT('',#1820);
#627=VERTEX_POINT('',#1824);
#628=VERTEX_POINT('',#1830);
#629=VERTEX_POINT('',#1832);
#630=VERTEX_POINT('',#1834);
#631=VERTEX_POINT('',#1836);
#632=VERTEX_POINT('',#1839);
#633=VERTEX_POINT('',#1843);
#634=LINE('',#1547,#746);
#635=LINE('',#1550,#747);
#636=LINE('',#1552,#748);
#637=LINE('',#1554,#749);
#638=LINE('',#1556,#750);
#639=LINE('',#1558,#751);
#640=LINE('',#1560,#752);
#641=LINE('',#1562,#753);
#642=LINE('',#1564,#754);
#643=LINE('',#1566,#755);
#644=LINE('',#1571,#756);
#645=LINE('',#1575,#757);
#646=LINE('',#1577,#758);
#647=LINE('',#1579,#759);
#648=LINE('',#1581,#760);
#649=LINE('',#1585,#761);
#650=LINE('',#1589,#762);
#651=LINE('',#1591,#763);
#652=LINE('',#1593,#764);
#653=LINE('',#1597,#765);
#654=LINE('',#1601,#766);
#655=LINE('',#1603,#767);
#656=LINE('',#1605,#768);
#657=LINE('',#1609,#769);
#658=LINE('',#1616,#770);
#659=LINE('',#1620,#771);
#660=LINE('',#1622,#772);
#661=LINE('',#1624,#773);
#662=LINE('',#1626,#774);
#663=LINE('',#1630,#775);
#664=LINE('',#1634,#776);
#665=LINE('',#1636,#777);
#666=LINE('',#1638,#778);
#667=LINE('',#1642,#779);
#668=LINE('',#1646,#780);
#669=LINE('',#1648,#781);
#670=LINE('',#1650,#782);
#671=LINE('',#1654,#783);
#672=LINE('',#1661,#784);
#673=LINE('',#1665,#785);
#674=LINE('',#1667,#786);
#675=LINE('',#1669,#787);
#676=LINE('',#1671,#788);
#677=LINE('',#1675,#789);
#678=LINE('',#1679,#790);
#679=LINE('',#1681,#791);
#680=LINE('',#1683,#792);
#681=LINE('',#1687,#793);
#682=LINE('',#1691,#794);
#683=LINE('',#1693,#795);
#684=LINE('',#1695,#796);
#685=LINE('',#1699,#797);
#686=LINE('',#1706,#798);
#687=LINE('',#1710,#799);
#688=LINE('',#1712,#800);
#689=LINE('',#1714,#801);
#690=LINE('',#1716,#802);
#691=LINE('',#1720,#803);
#692=LINE('',#1724,#804);
#693=LINE('',#1726,#805);
#694=LINE('',#1728,#806);
#695=LINE('',#1732,#807);
#696=LINE('',#1736,#808);
#697=LINE('',#1738,#809);
#698=LINE('',#1740,#810);
#699=LINE('',#1744,#811);
#700=LINE('',#1748,#812);
#701=LINE('',#1749,#813);
#702=LINE('',#1751,#814);
#703=LINE('',#1752,#815);
#704=LINE('',#1754,#816);
#705=LINE('',#1755,#817);
#706=LINE('',#1757,#818);
#707=LINE('',#1758,#819);
#708=LINE('',#1760,#820);
#709=LINE('',#1761,#821);
#710=LINE('',#1766,#822);
#711=LINE('',#1769,#823);
#712=LINE('',#1771,#824);
#713=LINE('',#1773,#825);
#714=LINE('',#1774,#826);
#715=LINE('',#1777,#827);
#716=LINE('',#1779,#828);
#717=LINE('',#1781,#829);
#718=LINE('',#1783,#830);
#719=LINE('',#1786,#831);
#720=LINE('',#1788,#832);
#721=LINE('',#1790,#833);
#722=LINE('',#1791,#834);
#723=LINE('',#1794,#835);
#724=LINE('',#1796,#836);
#725=LINE('',#1798,#837);
#726=LINE('',#1808,#838);
#727=LINE('',#1810,#839);
#728=LINE('',#1812,#840);
#729=LINE('',#1813,#841);
#730=LINE('',#1816,#842);
#731=LINE('',#1817,#843);
#732=LINE('',#1819,#844);
#733=LINE('',#1821,#845);
#734=LINE('',#1823,#846);
#735=LINE('',#1825,#847);
#736=LINE('',#1827,#848);
#737=LINE('',#1838,#849);
#738=LINE('',#1840,#850);
#739=LINE('',#1842,#851);
#740=LINE('',#1844,#852);
#741=LINE('',#1846,#853);
#742=LINE('',#1853,#854);
#743=LINE('',#1854,#855);
#744=LINE('',#1856,#856);
#745=LINE('',#1858,#857);
#746=VECTOR('',#1239,1.);
#747=VECTOR('',#1240,1.);
#748=VECTOR('',#1241,1.);
#749=VECTOR('',#1242,1.);
#750=VECTOR('',#1245,1.);
#751=VECTOR('',#1246,1.);
#752=VECTOR('',#1247,1.);
#753=VECTOR('',#1250,1.);
#754=VECTOR('',#1251,1.);
#755=VECTOR('',#1252,1.);
#756=VECTOR('',#1257,1.);
#757=VECTOR('',#1260,1.);
#758=VECTOR('',#1263,1.);
#759=VECTOR('',#1264,1.);
#760=VECTOR('',#1265,1.);
#761=VECTOR('',#1270,1.);
#762=VECTOR('',#1275,1.);
#763=VECTOR('',#1276,1.);
#764=VECTOR('',#1277,1.);
#765=VECTOR('',#1282,1.);
#766=VECTOR('',#1287,1.);
#767=VECTOR('',#1288,1.);
#768=VECTOR('',#1289,1.);
#769=VECTOR('',#1294,1.);
#770=VECTOR('',#1301,1.);
#771=VECTOR('',#1304,1.);
#772=VECTOR('',#1307,1.);
#773=VECTOR('',#1308,1.);
#774=VECTOR('',#1309,1.);
#775=VECTOR('',#1314,1.);
#776=VECTOR('',#1319,1.);
#777=VECTOR('',#1320,1.);
#778=VECTOR('',#1321,1.);
#779=VECTOR('',#1326,1.);
#780=VECTOR('',#1331,1.);
#781=VECTOR('',#1332,1.);
#782=VECTOR('',#1333,1.);
#783=VECTOR('',#1338,1.);
#784=VECTOR('',#1345,1.);
#785=VECTOR('',#1348,1.);
#786=VECTOR('',#1351,1.);
#787=VECTOR('',#1352,1.);
#788=VECTOR('',#1353,1.);
#789=VECTOR('',#1358,1.);
#790=VECTOR('',#1363,1.);
#791=VECTOR('',#1364,1.);
#792=VECTOR('',#1365,1.);
#793=VECTOR('',#1370,1.);
#794=VECTOR('',#1375,1.);
#795=VECTOR('',#1376,1.);
#796=VECTOR('',#1377,1.);
#797=VECTOR('',#1382,1.);
#798=VECTOR('',#1389,1.);
#799=VECTOR('',#1392,1.);
#800=VECTOR('',#1395,1.);
#801=VECTOR('',#1396,1.);
#802=VECTOR('',#1397,1.);
#803=VECTOR('',#1402,1.);
#804=VECTOR('',#1407,1.);
#805=VECTOR('',#1408,1.);
#806=VECTOR('',#1409,1.);
#807=VECTOR('',#1414,1.);
#808=VECTOR('',#1419,1.);
#809=VECTOR('',#1420,1.);
#810=VECTOR('',#1421,1.);
#811=VECTOR('',#1426,1.);
#812=VECTOR('',#1431,1.);
#813=VECTOR('',#1432,1.);
#814=VECTOR('',#1435,1.);
#815=VECTOR('',#1436,1.);
#816=VECTOR('',#1439,1.);
#817=VECTOR('',#1440,1.);
#818=VECTOR('',#1443,1.);
#819=VECTOR('',#1444,1.);
#820=VECTOR('',#1447,1.);
#821=VECTOR('',#1448,1.);
#822=VECTOR('',#1457,1.);
#823=VECTOR('',#1458,1.);
#824=VECTOR('',#1459,1.);
#825=VECTOR('',#1460,1.);
#826=VECTOR('',#1461,1.);
#827=VECTOR('',#1462,1.);
#828=VECTOR('',#1463,1.);
#829=VECTOR('',#1464,1.);
#830=VECTOR('',#1467,1.);
#831=VECTOR('',#1468,1.);
#832=VECTOR('',#1469,1.);
#833=VECTOR('',#1470,1.);
#834=VECTOR('',#1471,1.);
#835=VECTOR('',#1472,1.);
#836=VECTOR('',#1473,1.);
#837=VECTOR('',#1474,1.);
#838=VECTOR('',#1485,1.);
#839=VECTOR('',#1486,1.);
#840=VECTOR('',#1487,1.);
#841=VECTOR('',#1488,1.);
#842=VECTOR('',#1489,1.);
#843=VECTOR('',#1490,1.);
#844=VECTOR('',#1493,1.);
#845=VECTOR('',#1494,1.);
#846=VECTOR('',#1497,1.);
#847=VECTOR('',#1498,1.);
#848=VECTOR('',#1501,1.);
#849=VECTOR('',#1514,1.);
#850=VECTOR('',#1515,1.);
#851=VECTOR('',#1518,1.);
#852=VECTOR('',#1519,1.);
#853=VECTOR('',#1522,1.);
#854=VECTOR('',#1535,1.);
#855=VECTOR('',#1536,1.);
#856=VECTOR('',#1539,1.);
#857=VECTOR('',#1542,1.);
#858=EDGE_LOOP('',(#74,#75,#76,#77));
#859=EDGE_LOOP('',(#78,#79,#80,#81));
#860=EDGE_LOOP('',(#82,#83,#84,#85));
#861=EDGE_LOOP('',(#86,#87,#88,#89));
#862=EDGE_LOOP('',(#90,#91,#92,#93));
#863=EDGE_LOOP('',(#94,#95,#96,#97));
#864=EDGE_LOOP('',(#98,#99,#100,#101));
#865=EDGE_LOOP('',(#102,#103,#104,#105));
#866=EDGE_LOOP('',(#106,#107,#108,#109));
#867=EDGE_LOOP('',(#110,#111,#112,#113));
#868=EDGE_LOOP('',(#114,#115,#116,#117));
#869=EDGE_LOOP('',(#118,#119,#120,#121));
#870=EDGE_LOOP('',(#122,#123,#124,#125));
#871=EDGE_LOOP('',(#126,#127,#128,#129));
#872=EDGE_LOOP('',(#130,#131,#132,#133));
#873=EDGE_LOOP('',(#134,#135,#136,#137));
#874=EDGE_LOOP('',(#138,#139,#140,#141));
#875=EDGE_LOOP('',(#142,#143,#144,#145));
#876=EDGE_LOOP('',(#146,#147,#148,#149));
#877=EDGE_LOOP('',(#150,#151,#152,#153));
#878=EDGE_LOOP('',(#154,#155,#156,#157));
#879=EDGE_LOOP('',(#158,#159,#160,#161));
#880=EDGE_LOOP('',(#162,#163,#164,#165));
#881=EDGE_LOOP('',(#166,#167,#168,#169));
#882=EDGE_LOOP('',(#170,#171,#172,#173));
#883=EDGE_LOOP('',(#174,#175,#176,#177));
#884=EDGE_LOOP('',(#178,#179,#180,#181));
#885=EDGE_LOOP('',(#182,#183,#184,#185));
#886=EDGE_LOOP('',(#186,#187,#188,#189));
#887=EDGE_LOOP('',(#190,#191,#192,#193));
#888=EDGE_LOOP('',(#194,#195,#196,#197));
#889=EDGE_LOOP('',(#198,#199,#200,#201));
#890=EDGE_LOOP('',(#202,#203,#204,#205));
#891=EDGE_LOOP('',(#206,#207,#208,#209));
#892=EDGE_LOOP('',(#210,#211,#212,#213));
#893=EDGE_LOOP('',(#214,#215,#216,#217));
#894=EDGE_LOOP('',(#218,#219,#220,#221,#222,#223,#224,#225));
#895=EDGE_LOOP('',(#226,#227,#228,#229,#230,#231,#232,#233));
#896=EDGE_LOOP('',(#234,#235,#236,#237,#238,#239,#240,#241));
#897=EDGE_LOOP('',(#242,#243,#244,#245,#246,#247,#248,#249));
#898=EDGE_LOOP('',(#250,#251,#252,#253));
#899=EDGE_LOOP('',(#254,#255,#256,#257,#258,#259,#260,#261));
#900=EDGE_LOOP('',(#262,#263,#264,#265,#266,#267,#268,#269));
#901=EDGE_LOOP('',(#270,#271,#272,#273,#274,#275,#276,#277));
#902=EDGE_LOOP('',(#278,#279,#280,#281,#282,#283,#284,#285));
#903=EDGE_LOOP('',(#286,#287,#288,#289));
#904=EDGE_LOOP('',(#290,#291,#292,#293));
#905=EDGE_LOOP('',(#294,#295,#296,#297));
#906=EDGE_LOOP('',(#298,#299,#300,#301));
#907=EDGE_LOOP('',(#302,#303,#304,#305));
#908=EDGE_LOOP('',(#306));
#909=EDGE_LOOP('',(#307));
#910=EDGE_LOOP('',(#308));
#911=EDGE_LOOP('',(#309));
#912=EDGE_LOOP('',(#310,#311,#312,#313));
#913=EDGE_LOOP('',(#314,#315,#316,#317));
#914=EDGE_LOOP('',(#318,#319,#320,#321));
#915=EDGE_LOOP('',(#322,#323,#324,#325));
#916=EDGE_LOOP('',(#326,#327,#328,#329));
#917=EDGE_LOOP('',(#330));
#918=EDGE_LOOP('',(#331));
#919=EDGE_LOOP('',(#332));
#920=EDGE_LOOP('',(#333));
#921=EDGE_LOOP('',(#334,#335,#336,#337));
#922=EDGE_LOOP('',(#338,#339,#340,#341));
#923=EDGE_LOOP('',(#342,#343,#344,#345));
#924=EDGE_LOOP('',(#346,#347,#348,#349));
#925=EDGE_LOOP('',(#350,#351,#352,#353));
#926=EDGE_LOOP('',(#354));
#927=EDGE_LOOP('',(#355));
#928=EDGE_LOOP('',(#356));
#929=EDGE_LOOP('',(#357));
#930=EDGE_LOOP('',(#358));
#931=EDGE_LOOP('',(#359));
#932=EDGE_LOOP('',(#360));
#933=EDGE_LOOP('',(#361));
#934=EDGE_LOOP('',(#362,#363,#364,#365));
#935=EDGE_LOOP('',(#366,#367,#368,#369));
#936=EDGE_LOOP('',(#370,#371,#372,#373));
#937=EDGE_LOOP('',(#374,#375,#376,#377));
#938=FACE_BOUND('',#858,.T.);
#939=FACE_BOUND('',#859,.T.);
#940=FACE_BOUND('',#860,.T.);
#941=FACE_BOUND('',#861,.T.);
#942=FACE_BOUND('',#862,.T.);
#943=FACE_BOUND('',#863,.T.);
#944=FACE_BOUND('',#864,.T.);
#945=FACE_BOUND('',#865,.T.);
#946=FACE_BOUND('',#866,.T.);
#947=FACE_BOUND('',#867,.T.);
#948=FACE_BOUND('',#868,.T.);
#949=FACE_BOUND('',#869,.T.);
#950=FACE_BOUND('',#870,.T.);
#951=FACE_BOUND('',#871,.T.);
#952=FACE_BOUND('',#872,.T.);
#953=FACE_BOUND('',#873,.T.);
#954=FACE_BOUND('',#874,.T.);
#955=FACE_BOUND('',#875,.T.);
#956=FACE_BOUND('',#876,.T.);
#957=FACE_BOUND('',#877,.T.);
#958=FACE_BOUND('',#878,.T.);
#959=FACE_BOUND('',#879,.T.);
#960=FACE_BOUND('',#880,.T.);
#961=FACE_BOUND('',#881,.T.);
#962=FACE_BOUND('',#882,.T.);
#963=FACE_BOUND('',#883,.T.);
#964=FACE_BOUND('',#884,.T.);
#965=FACE_BOUND('',#885,.T.);
#966=FACE_BOUND('',#886,.T.);
#967=FACE_BOUND('',#887,.T.);
#968=FACE_BOUND('',#888,.T.);
#969=FACE_BOUND('',#889,.T.);
#970=FACE_BOUND('',#890,.T.);
#971=FACE_BOUND('',#891,.T.);
#972=FACE_BOUND('',#892,.T.);
#973=FACE_BOUND('',#893,.T.);
#974=FACE_BOUND('',#894,.T.);
#975=FACE_BOUND('',#895,.T.);
#976=FACE_BOUND('',#896,.T.);
#977=FACE_BOUND('',#897,.T.);
#978=FACE_BOUND('',#898,.T.);
#979=FACE_BOUND('',#899,.T.);
#980=FACE_BOUND('',#900,.T.);
#981=FACE_BOUND('',#901,.T.);
#982=FACE_BOUND('',#902,.T.);
#983=FACE_BOUND('',#903,.T.);
#984=FACE_BOUND('',#904,.T.);
#985=FACE_BOUND('',#905,.T.);
#986=FACE_BOUND('',#906,.T.);
#987=FACE_BOUND('',#907,.T.);
#988=FACE_BOUND('',#908,.T.);
#989=FACE_BOUND('',#909,.T.);
#990=FACE_BOUND('',#910,.T.);
#991=FACE_BOUND('',#911,.T.);
#992=FACE_BOUND('',#912,.T.);
#993=FACE_BOUND('',#913,.T.);
#994=FACE_BOUND('',#914,.T.);
#995=FACE_BOUND('',#915,.T.);
#996=FACE_BOUND('',#916,.T.);
#997=FACE_BOUND('',#917,.T.);
#998=FACE_BOUND('',#918,.T.);
#999=FACE_BOUND('',#919,.T.);
#1000=FACE_BOUND('',#920,.T.);
#1001=FACE_BOUND('',#921,.T.);
#1002=FACE_BOUND('',#922,.T.);
#1003=FACE_BOUND('',#923,.T.);
#1004=FACE_BOUND('',#924,.T.);
#1005=FACE_BOUND('',#925,.T.);
#1006=FACE_BOUND('',#926,.T.);
#1007=FACE_BOUND('',#927,.T.);
#1008=FACE_BOUND('',#928,.T.);
#1009=FACE_BOUND('',#929,.T.);
#1010=FACE_BOUND('',#930,.T.);
#1011=FACE_BOUND('',#931,.T.);
#1012=FACE_BOUND('',#932,.T.);
#1013=FACE_BOUND('',#933,.T.);
#1014=FACE_BOUND('',#934,.T.);
#1015=FACE_BOUND('',#935,.T.);
#1016=FACE_BOUND('',#936,.T.);
#1017=FACE_BOUND('',#937,.T.);
#1018=PLANE('',#1137);
#1019=PLANE('',#1138);
#1020=PLANE('',#1139);
#1021=PLANE('',#1143);
#1022=PLANE('',#1147);
#1023=PLANE('',#1151);
#1024=PLANE('',#1158);
#1025=PLANE('',#1162);
#1026=PLANE('',#1166);
#1027=PLANE('',#1173);
#1028=PLANE('',#1177);
#1029=PLANE('',#1181);
#1030=PLANE('',#1188);
#1031=PLANE('',#1192);
#1032=PLANE('',#1196);
#1033=PLANE('',#1200);
#1034=PLANE('',#1201);
#1035=PLANE('',#1202);
#1036=PLANE('',#1203);
#1037=PLANE('',#1204);
#1038=PLANE('',#1205);
#1039=PLANE('',#1206);
#1040=PLANE('',#1208);
#1041=PLANE('',#1209);
#1042=PLANE('',#1210);
#1043=PLANE('',#1215);
#1044=PLANE('',#1216);
#1045=PLANE('',#1217);
#1046=PLANE('',#1218);
#1047=PLANE('',#1223);
#1048=PLANE('',#1224);
#1049=PLANE('',#1225);
#1050=PLANE('',#1226);
#1051=PLANE('',#1231);
#1052=PLANE('',#1232);
#1053=PLANE('',#1233);
#1054=PLANE('',#1234);
#1055=ADVANCED_FACE('',(#938),#1018,.T.);
#1056=ADVANCED_FACE('',(#939),#1019,.F.);
#1057=ADVANCED_FACE('',(#940),#1020,.F.);
#1058=ADVANCED_FACE('',(#941),#54,.F.);
#1059=ADVANCED_FACE('',(#942),#1021,.F.);
#1060=ADVANCED_FACE('',(#943),#55,.F.);
#1061=ADVANCED_FACE('',(#944),#1022,.F.);
#1062=ADVANCED_FACE('',(#945),#56,.F.);
#1063=ADVANCED_FACE('',(#946),#1023,.T.);
#1064=ADVANCED_FACE('',(#947),#57,.F.);
#1065=ADVANCED_FACE('',(#948),#58,.F.);
#1066=ADVANCED_FACE('',(#949),#1024,.F.);
#1067=ADVANCED_FACE('',(#950),#59,.F.);
#1068=ADVANCED_FACE('',(#951),#1025,.F.);
#1069=ADVANCED_FACE('',(#952),#60,.F.);
#1070=ADVANCED_FACE('',(#953),#1026,.T.);
#1071=ADVANCED_FACE('',(#954),#61,.F.);
#1072=ADVANCED_FACE('',(#955),#62,.F.);
#1073=ADVANCED_FACE('',(#956),#1027,.F.);
#1074=ADVANCED_FACE('',(#957),#63,.F.);
#1075=ADVANCED_FACE('',(#958),#1028,.F.);
#1076=ADVANCED_FACE('',(#959),#64,.F.);
#1077=ADVANCED_FACE('',(#960),#1029,.T.);
#1078=ADVANCED_FACE('',(#961),#65,.F.);
#1079=ADVANCED_FACE('',(#962),#66,.F.);
#1080=ADVANCED_FACE('',(#963),#1030,.F.);
#1081=ADVANCED_FACE('',(#964),#67,.F.);
#1082=ADVANCED_FACE('',(#965),#1031,.F.);
#1083=ADVANCED_FACE('',(#966),#68,.F.);
#1084=ADVANCED_FACE('',(#967),#1032,.T.);
#1085=ADVANCED_FACE('',(#968),#69,.F.);
#1086=ADVANCED_FACE('',(#969),#1033,.T.);
#1087=ADVANCED_FACE('',(#970),#1034,.T.);
#1088=ADVANCED_FACE('',(#971),#1035,.T.);
#1089=ADVANCED_FACE('',(#972),#1036,.T.);
#1090=ADVANCED_FACE('',(#973),#1037,.T.);
#1091=ADVANCED_FACE('',(#974,#975,#976,#977,#978),#1038,.T.);
#1092=ADVANCED_FACE('',(#979,#980,#981,#982,#983),#1039,.F.);
#1093=ADVANCED_FACE('',(#984,#985),#1040,.T.);
#1094=ADVANCED_FACE('',(#986,#987),#1041,.T.);
#1095=ADVANCED_FACE('',(#988,#989,#990,#991,#992,#993),#1042,.T.);
#1096=ADVANCED_FACE('',(#994),#1043,.T.);
#1097=ADVANCED_FACE('',(#995),#1044,.F.);
#1098=ADVANCED_FACE('',(#996),#1045,.F.);
#1099=ADVANCED_FACE('',(#997,#998,#999,#1000,#1001),#1046,.F.);
#1100=ADVANCED_FACE('',(#1002),#1047,.T.);
#1101=ADVANCED_FACE('',(#1003),#1048,.F.);
#1102=ADVANCED_FACE('',(#1004),#1049,.F.);
#1103=ADVANCED_FACE('',(#1005),#1050,.T.);
#1104=ADVANCED_FACE('',(#1006,#1007),#70,.F.);
#1105=ADVANCED_FACE('',(#1008,#1009),#71,.F.);
#1106=ADVANCED_FACE('',(#1010,#1011),#72,.F.);
#1107=ADVANCED_FACE('',(#1012,#1013),#73,.F.);
#1108=ADVANCED_FACE('',(#1014),#1051,.T.);
#1109=ADVANCED_FACE('',(#1015),#1052,.F.);
#1110=ADVANCED_FACE('',(#1016),#1053,.F.);
#1111=ADVANCED_FACE('',(#1017),#1054,.T.);
#1112=CLOSED_SHELL('',(#1055,#1056,#1057,#1058,#1059,#1060,#1061,#1062,
#1063,#1064,#1065,#1066,#1067,#1068,#1069,#1070,#1071,#1072,#1073,#1074,
#1075,#1076,#1077,#1078,#1079,#1080,#1081,#1082,#1083,#1084,#1085,#1086,
#1087,#1088,#1089,#1090,#1091,#1092));
#1113=CLOSED_SHELL('',(#1093,#1094,#1095,#1096,#1097,#1098,#1099,#1100,
#1101,#1102,#1103,#1104,#1105,#1106,#1107,#1108,#1109,#1110,#1111));
#1114=STYLED_ITEM('',(#1116),#1130);
#1115=STYLED_ITEM('',(#1117),#1131);
#1116=PRESENTATION_STYLE_ASSIGNMENT((#1118));
#1117=PRESENTATION_STYLE_ASSIGNMENT((#1119));
#1118=SURFACE_STYLE_USAGE(.BOTH.,#1120);
#1119=SURFACE_STYLE_USAGE(.BOTH.,#1121);
#1120=SURFACE_SIDE_STYLE('',(#1122));
#1121=SURFACE_SIDE_STYLE('',(#1123));
#1122=SURFACE_STYLE_FILL_AREA(#1124);
#1123=SURFACE_STYLE_FILL_AREA(#1125);
#1124=FILL_AREA_STYLE('',(#1126));
#1125=FILL_AREA_STYLE('',(#1127));
#1126=FILL_AREA_STYLE_COLOUR('',#1128);
#1127=FILL_AREA_STYLE_COLOUR('',#1129);
#1128=COLOUR_RGB('',0.647058823529412,0.647058823529412,0.647058823529412);
#1129=COLOUR_RGB('',0.615686274509804,0.811764705882353,0.929411764705882);
#1130=MANIFOLD_SOLID_BREP('Part 2',#1112);
#1131=MANIFOLD_SOLID_BREP('Part 1',#1113);
#1132=SHAPE_DEFINITION_REPRESENTATION(#1872,#1134);
#1133=SHAPE_DEFINITION_REPRESENTATION(#1873,#1135);
#1134=SHAPE_REPRESENTATION('Part 2',(#1136),#1862);
#1135=SHAPE_REPRESENTATION('Part 1',(#1207),#1863);
#1136=AXIS2_PLACEMENT_3D('',#1545,#1235,#1236);
#1137=AXIS2_PLACEMENT_3D('',#1546,#1237,#1238);
#1138=AXIS2_PLACEMENT_3D('',#1555,#1243,#1244);
#1139=AXIS2_PLACEMENT_3D('',#1561,#1248,#1249);
#1140=AXIS2_PLACEMENT_3D('',#1567,#1253,#1254);
#1141=AXIS2_PLACEMENT_3D('',#1568,#1255,#1256);
#1142=AXIS2_PLACEMENT_3D('',#1573,#1258,#1259);
#1143=AXIS2_PLACEMENT_3D('',#1576,#1261,#1262);
#1144=AXIS2_PLACEMENT_3D('',#1582,#1266,#1267);
#1145=AXIS2_PLACEMENT_3D('',#1583,#1268,#1269);
#1146=AXIS2_PLACEMENT_3D('',#1587,#1271,#1272);
#1147=AXIS2_PLACEMENT_3D('',#1588,#1273,#1274);
#1148=AXIS2_PLACEMENT_3D('',#1594,#1278,#1279);
#1149=AXIS2_PLACEMENT_3D('',#1595,#1280,#1281);
#1150=AXIS2_PLACEMENT_3D('',#1599,#1283,#1284);
#1151=AXIS2_PLACEMENT_3D('',#1600,#1285,#1286);
#1152=AXIS2_PLACEMENT_3D('',#1606,#1290,#1291);
#1153=AXIS2_PLACEMENT_3D('',#1607,#1292,#1293);
#1154=AXIS2_PLACEMENT_3D('',#1611,#1295,#1296);
#1155=AXIS2_PLACEMENT_3D('',#1612,#1297,#1298);
#1156=AXIS2_PLACEMENT_3D('',#1613,#1299,#1300);
#1157=AXIS2_PLACEMENT_3D('',#1618,#1302,#1303);
#1158=AXIS2_PLACEMENT_3D('',#1621,#1305,#1306);
#1159=AXIS2_PLACEMENT_3D('',#1627,#1310,#1311);
#1160=AXIS2_PLACEMENT_3D('',#1628,#1312,#1313);
#1161=AXIS2_PLACEMENT_3D('',#1632,#1315,#1316);
#1162=AXIS2_PLACEMENT_3D('',#1633,#1317,#1318);
#1163=AXIS2_PLACEMENT_3D('',#1639,#1322,#1323);
#1164=AXIS2_PLACEMENT_3D('',#1640,#1324,#1325);
#1165=AXIS2_PLACEMENT_3D('',#1644,#1327,#1328);
#1166=AXIS2_PLACEMENT_3D('',#1645,#1329,#1330);
#1167=AXIS2_PLACEMENT_3D('',#1651,#1334,#1335);
#1168=AXIS2_PLACEMENT_3D('',#1652,#1336,#1337);
#1169=AXIS2_PLACEMENT_3D('',#1656,#1339,#1340);
#1170=AXIS2_PLACEMENT_3D('',#1657,#1341,#1342);
#1171=AXIS2_PLACEMENT_3D('',#1658,#1343,#1344);
#1172=AXIS2_PLACEMENT_3D('',#1663,#1346,#1347);
#1173=AXIS2_PLACEMENT_3D('',#1666,#1349,#1350);
#1174=AXIS2_PLACEMENT_3D('',#1672,#1354,#1355);
#1175=AXIS2_PLACEMENT_3D('',#1673,#1356,#1357);
#1176=AXIS2_PLACEMENT_3D('',#1677,#1359,#1360);
#1177=AXIS2_PLACEMENT_3D('',#1678,#1361,#1362);
#1178=AXIS2_PLACEMENT_3D('',#1684,#1366,#1367);
#1179=AXIS2_PLACEMENT_3D('',#1685,#1368,#1369);
#1180=AXIS2_PLACEMENT_3D('',#1689,#1371,#1372);
#1181=AXIS2_PLACEMENT_3D('',#1690,#1373,#1374);
#1182=AXIS2_PLACEMENT_3D('',#1696,#1378,#1379);
#1183=AXIS2_PLACEMENT_3D('',#1697,#1380,#1381);
#1184=AXIS2_PLACEMENT_3D('',#1701,#1383,#1384);
#1185=AXIS2_PLACEMENT_3D('',#1702,#1385,#1386);
#1186=AXIS2_PLACEMENT_3D('',#1703,#1387,#1388);
#1187=AXIS2_PLACEMENT_3D('',#1708,#1390,#1391);
#1188=AXIS2_PLACEMENT_3D('',#1711,#1393,#1394);
#1189=AXIS2_PLACEMENT_3D('',#1717,#1398,#1399);
#1190=AXIS2_PLACEMENT_3D('',#1718,#1400,#1401);
#1191=AXIS2_PLACEMENT_3D('',#1722,#1403,#1404);
#1192=AXIS2_PLACEMENT_3D('',#1723,#1405,#1406);
#1193=AXIS2_PLACEMENT_3D('',#1729,#1410,#1411);
#1194=AXIS2_PLACEMENT_3D('',#1730,#1412,#1413);
#1195=AXIS2_PLACEMENT_3D('',#1734,#1415,#1416);
#1196=AXIS2_PLACEMENT_3D('',#1735,#1417,#1418);
#1197=AXIS2_PLACEMENT_3D('',#1741,#1422,#1423);
#1198=AXIS2_PLACEMENT_3D('',#1742,#1424,#1425);
#1199=AXIS2_PLACEMENT_3D('',#1746,#1427,#1428);
#1200=AXIS2_PLACEMENT_3D('',#1747,#1429,#1430);
#1201=AXIS2_PLACEMENT_3D('',#1750,#1433,#1434);
#1202=AXIS2_PLACEMENT_3D('',#1753,#1437,#1438);
#1203=AXIS2_PLACEMENT_3D('',#1756,#1441,#1442);
#1204=AXIS2_PLACEMENT_3D('',#1759,#1445,#1446);
#1205=AXIS2_PLACEMENT_3D('',#1762,#1449,#1450);
#1206=AXIS2_PLACEMENT_3D('',#1763,#1451,#1452);
#1207=AXIS2_PLACEMENT_3D('',#1764,#1453,#1454);
#1208=AXIS2_PLACEMENT_3D('',#1765,#1455,#1456);
#1209=AXIS2_PLACEMENT_3D('',#1782,#1465,#1466);
#1210=AXIS2_PLACEMENT_3D('',#1799,#1475,#1476);
#1211=AXIS2_PLACEMENT_3D('',#1800,#1477,#1478);
#1212=AXIS2_PLACEMENT_3D('',#1802,#1479,#1480);
#1213=AXIS2_PLACEMENT_3D('',#1804,#1481,#1482);
#1214=AXIS2_PLACEMENT_3D('',#1806,#1483,#1484);
#1215=AXIS2_PLACEMENT_3D('',#1818,#1491,#1492);
#1216=AXIS2_PLACEMENT_3D('',#1822,#1495,#1496);
#1217=AXIS2_PLACEMENT_3D('',#1826,#1499,#1500);
#1218=AXIS2_PLACEMENT_3D('',#1828,#1502,#1503);
#1219=AXIS2_PLACEMENT_3D('',#1829,#1504,#1505);
#1220=AXIS2_PLACEMENT_3D('',#1831,#1506,#1507);
#1221=AXIS2_PLACEMENT_3D('',#1833,#1508,#1509);
#1222=AXIS2_PLACEMENT_3D('',#1835,#1510,#1511);
#1223=AXIS2_PLACEMENT_3D('',#1837,#1512,#1513);
#1224=AXIS2_PLACEMENT_3D('',#1841,#1516,#1517);
#1225=AXIS2_PLACEMENT_3D('',#1845,#1520,#1521);
#1226=AXIS2_PLACEMENT_3D('',#1847,#1523,#1524);
#1227=AXIS2_PLACEMENT_3D('',#1848,#1525,#1526);
#1228=AXIS2_PLACEMENT_3D('',#1849,#1527,#1528);
#1229=AXIS2_PLACEMENT_3D('',#1850,#1529,#1530);
#1230=AXIS2_PLACEMENT_3D('',#1851,#1531,#1532);
#1231=AXIS2_PLACEMENT_3D('',#1852,#1533,#1534);
#1232=AXIS2_PLACEMENT_3D('',#1855,#1537,#1538);
#1233=AXIS2_PLACEMENT_3D('',#1857,#1540,#1541);
#1234=AXIS2_PLACEMENT_3D('',#1859,#1543,#1544);
#1235=DIRECTION('',(0.,0.,1.));
#1236=DIRECTION('',(1.,0.,0.));
#1237=DIRECTION('',(0.,1.,0.));
#1238=DIRECTION('',(0.,0.,1.));
#1239=DIRECTION('',(1.,0.,0.));
#1240=DIRECTION('',(0.,0.,-1.));
#1241=DIRECTION('',(1.,0.,0.));
#1242=DIRECTION('',(0.,0.,-1.));
#1243=DIRECTION('',(1.,0.,0.));
#1244=DIRECTION('',(0.,0.,-1.));
#1245=DIRECTION('',(0.,-1.,0.));
#1246=DIRECTION('',(0.,0.,-1.));
#1247=DIRECTION('',(0.,-1.,0.));
#1248=DIRECTION('',(0.,1.,0.));
#1249=DIRECTION('',(0.,0.,1.));
#1250=DIRECTION('',(1.,0.,0.));
#1251=DIRECTION('',(0.,0.,-1.));
#1252=DIRECTION('',(1.,0.,0.));
#1253=DIRECTION('',(0.,0.,-1.));
#1254=DIRECTION('',(-1.,0.,0.));
#1255=DIRECTION('',(0.,0.,1.));
#1256=DIRECTION('',(1.,0.,0.));
#1257=DIRECTION('',(0.,0.,-1.));
#1258=DIRECTION('',(0.,0.,1.));
#1259=DIRECTION('',(1.,0.,0.));
#1260=DIRECTION('',(0.,0.,-1.));
#1261=DIRECTION('',(0.,1.,0.));
#1262=DIRECTION('',(0.,0.,1.));
#1263=DIRECTION('',(1.,0.,0.));
#1264=DIRECTION('',(0.,0.,-1.));
#1265=DIRECTION('',(1.,0.,0.));
#1266=DIRECTION('',(0.,0.,-1.));
#1267=DIRECTION('',(-1.,0.,0.));
#1268=DIRECTION('',(0.,0.,1.));
#1269=DIRECTION('',(1.,0.,0.));
#1270=DIRECTION('',(0.,0.,-1.));
#1271=DIRECTION('',(0.,0.,1.));
#1272=DIRECTION('',(1.,0.,0.));
#1273=DIRECTION('',(1.,0.,0.));
#1274=DIRECTION('',(0.,0.,-1.));
#1275=DIRECTION('',(0.,-1.,0.));
#1276=DIRECTION('',(0.,0.,-1.));
#1277=DIRECTION('',(0.,-1.,0.));
#1278=DIRECTION('',(0.,0.,-1.));
#1279=DIRECTION('',(-1.,0.,0.));
#1280=DIRECTION('',(0.,0.,1.));
#1281=DIRECTION('',(1.,0.,0.));
#1282=DIRECTION('',(0.,0.,-1.));
#1283=DIRECTION('',(0.,0.,1.));
#1284=DIRECTION('',(1.,0.,0.));
#1285=DIRECTION('',(0.,1.,0.));
#1286=DIRECTION('',(0.,0.,1.));
#1287=DIRECTION('',(1.,0.,0.));
#1288=DIRECTION('',(0.,0.,-1.));
#1289=DIRECTION('',(1.,0.,0.));
#1290=DIRECTION('',(0.,0.,-1.));
#1291=DIRECTION('',(-1.,0.,0.));
#1292=DIRECTION('',(0.,0.,1.));
#1293=DIRECTION('',(1.,0.,0.));
#1294=DIRECTION('',(0.,0.,-1.));
#1295=DIRECTION('',(0.,0.,1.));
#1296=DIRECTION('',(1.,0.,0.));
#1297=DIRECTION('',(0.,0.,-1.));
#1298=DIRECTION('',(-1.,0.,0.));
#1299=DIRECTION('',(0.,0.,1.));
#1300=DIRECTION('',(1.,0.,0.));
#1301=DIRECTION('',(0.,0.,-1.));
#1302=DIRECTION('',(0.,0.,1.));
#1303=DIRECTION('',(1.,0.,0.));
#1304=DIRECTION('',(0.,0.,-1.));
#1305=DIRECTION('',(0.,1.,0.));
#1306=DIRECTION('',(0.,0.,1.));
#1307=DIRECTION('',(1.,0.,0.));
#1308=DIRECTION('',(0.,0.,-1.));
#1309=DIRECTION('',(1.,0.,0.));
#1310=DIRECTION('',(0.,0.,-1.));
#1311=DIRECTION('',(-1.,0.,0.));
#1312=DIRECTION('',(0.,0.,1.));
#1313=DIRECTION('',(1.,0.,0.));
#1314=DIRECTION('',(0.,0.,-1.));
#1315=DIRECTION('',(0.,0.,1.));
#1316=DIRECTION('',(1.,0.,0.));
#1317=DIRECTION('',(1.,0.,0.));
#1318=DIRECTION('',(0.,0.,-1.));
#1319=DIRECTION('',(0.,-1.,0.));
#1320=DIRECTION('',(0.,0.,-1.));
#1321=DIRECTION('',(0.,-1.,0.));
#1322=DIRECTION('',(0.,0.,-1.));
#1323=DIRECTION('',(-1.,0.,0.));
#1324=DIRECTION('',(0.,0.,1.));
#1325=DIRECTION('',(1.,0.,0.));
#1326=DIRECTION('',(0.,0.,-1.));
#1327=DIRECTION('',(0.,0.,1.));
#1328=DIRECTION('',(1.,0.,0.));
#1329=DIRECTION('',(0.,1.,0.));
#1330=DIRECTION('',(0.,0.,1.));
#1331=DIRECTION('',(1.,0.,0.));
#1332=DIRECTION('',(0.,0.,-1.));
#1333=DIRECTION('',(1.,0.,0.));
#1334=DIRECTION('',(0.,0.,-1.));
#1335=DIRECTION('',(-1.,0.,0.));
#1336=DIRECTION('',(0.,0.,1.));
#1337=DIRECTION('',(1.,0.,0.));
#1338=DIRECTION('',(0.,0.,-1.));
#1339=DIRECTION('',(0.,0.,1.));
#1340=DIRECTION('',(1.,0.,0.));
#1341=DIRECTION('',(0.,0.,-1.));
#1342=DIRECTION('',(-1.,0.,0.));
#1343=DIRECTION('',(0.,0.,1.));
#1344=DIRECTION('',(1.,0.,0.));
#1345=DIRECTION('',(0.,0.,-1.));
#1346=DIRECTION('',(0.,0.,1.));
#1347=DIRECTION('',(1.,0.,0.));
#1348=DIRECTION('',(0.,0.,-1.));
#1349=DIRECTION('',(0.,1.,0.));
#1350=DIRECTION('',(0.,0.,1.));
#1351=DIRECTION('',(1.,0.,0.));
#1352=DIRECTION('',(0.,0.,-1.));
#1353=DIRECTION('',(1.,0.,0.));
#1354=DIRECTION('',(0.,0.,-1.));
#1355=DIRECTION('',(-1.,0.,0.));
#1356=DIRECTION('',(0.,0.,1.));
#1357=DIRECTION('',(1.,0.,0.));
#1358=DIRECTION('',(0.,0.,-1.));
#1359=DIRECTION('',(0.,0.,1.));
#1360=DIRECTION('',(1.,0.,0.));
#1361=DIRECTION('',(1.,0.,0.));
#1362=DIRECTION('',(0.,0.,-1.));
#1363=DIRECTION('',(0.,-1.,0.));
#1364=DIRECTION('',(0.,0.,-1.));
#1365=DIRECTION('',(0.,-1.,0.));
#1366=DIRECTION('',(0.,0.,-1.));
#1367=DIRECTION('',(-1.,0.,0.));
#1368=DIRECTION('',(0.,0.,1.));
#1369=DIRECTION('',(1.,0.,0.));
#1370=DIRECTION('',(0.,0.,-1.));
#1371=DIRECTION('',(0.,0.,1.));
#1372=DIRECTION('',(1.,0.,0.));
#1373=DIRECTION('',(0.,1.,0.));
#1374=DIRECTION('',(0.,0.,1.));
#1375=DIRECTION('',(1.,0.,0.));
#1376=DIRECTION('',(0.,0.,-1.));
#1377=DIRECTION('',(1.,0.,0.));
#1378=DIRECTION('',(0.,0.,-1.));
#1379=DIRECTION('',(-1.,0.,0.));
#1380=DIRECTION('',(0.,0.,1.));
#1381=DIRECTION('',(1.,0.,0.));
#1382=DIRECTION('',(0.,0.,-1.));
#1383=DIRECTION('',(0.,0.,1.));
#1384=DIRECTION('',(1.,0.,0.));
#1385=DIRECTION('',(0.,0.,-1.));
#1386=DIRECTION('',(-1.,0.,0.));
#1387=DIRECTION('',(0.,0.,1.));
#1388=DIRECTION('',(1.,0.,0.));
#1389=DIRECTION('',(0.,0.,-1.));
#1390=DIRECTION('',(0.,0.,1.));
#1391=DIRECTION('',(1.,0.,0.));
#1392=DIRECTION('',(0.,0.,-1.));
#1393=DIRECTION('',(0.,1.,0.));
#1394=DIRECTION('',(0.,0.,1.));
#1395=DIRECTION('',(1.,0.,0.));
#1396=DIRECTION('',(0.,0.,-1.));
#1397=DIRECTION('',(1.,0.,0.));
#1398=DIRECTION('',(0.,0.,-1.));
#1399=DIRECTION('',(-1.,0.,0.));
#1400=DIRECTION('',(0.,0.,1.));
#1401=DIRECTION('',(1.,0.,0.));
#1402=DIRECTION('',(0.,0.,-1.));
#1403=DIRECTION('',(0.,0.,1.));
#1404=DIRECTION('',(1.,0.,0.));
#1405=DIRECTION('',(1.,0.,0.));
#1406=DIRECTION('',(0.,0.,-1.));
#1407=DIRECTION('',(0.,-1.,0.));
#1408=DIRECTION('',(0.,0.,-1.));
#1409=DIRECTION('',(0.,-1.,0.));
#1410=DIRECTION('',(0.,0.,-1.));
#1411=DIRECTION('',(-1.,0.,0.));
#1412=DIRECTION('',(0.,0.,1.));
#1413=DIRECTION('',(1.,0.,0.));
#1414=DIRECTION('',(0.,0.,-1.));
#1415=DIRECTION('',(0.,0.,1.));
#1416=DIRECTION('',(1.,0.,0.));
#1417=DIRECTION('',(0.,1.,0.));
#1418=DIRECTION('',(0.,0.,1.));
#1419=DIRECTION('',(1.,0.,0.));
#1420=DIRECTION('',(0.,0.,-1.));
#1421=DIRECTION('',(1.,0.,0.));
#1422=DIRECTION('',(0.,0.,-1.));
#1423=DIRECTION('',(-1.,0.,0.));
#1424=DIRECTION('',(0.,0.,1.));
#1425=DIRECTION('',(1.,0.,0.));
#1426=DIRECTION('',(0.,0.,-1.));
#1427=DIRECTION('',(0.,0.,1.));
#1428=DIRECTION('',(1.,0.,0.));
#1429=DIRECTION('',(1.,0.,0.));
#1430=DIRECTION('',(0.,0.,-1.));
#1431=DIRECTION('',(0.,-1.,0.));
#1432=DIRECTION('',(0.,-1.,0.));
#1433=DIRECTION('',(1.,0.,0.));
#1434=DIRECTION('',(0.,0.,-1.));
#1435=DIRECTION('',(0.,-1.,0.));
#1436=DIRECTION('',(0.,-1.,0.));
#1437=DIRECTION('',(1.,0.,0.));
#1438=DIRECTION('',(0.,0.,-1.));
#1439=DIRECTION('',(0.,-1.,0.));
#1440=DIRECTION('',(0.,-1.,0.));
#1441=DIRECTION('',(1.,0.,0.));
#1442=DIRECTION('',(0.,0.,-1.));
#1443=DIRECTION('',(0.,-1.,0.));
#1444=DIRECTION('',(0.,-1.,0.));
#1445=DIRECTION('',(1.,0.,0.));
#1446=DIRECTION('',(0.,0.,-1.));
#1447=DIRECTION('',(0.,-1.,0.));
#1448=DIRECTION('',(0.,-1.,0.));
#1449=DIRECTION('',(0.,0.,1.));
#1450=DIRECTION('',(1.,0.,0.));
#1451=DIRECTION('',(0.,0.,1.));
#1452=DIRECTION('',(1.,0.,0.));
#1453=DIRECTION('',(0.,0.,1.));
#1454=DIRECTION('',(1.,0.,0.));
#1455=DIRECTION('',(1.,0.,0.));
#1456=DIRECTION('',(0.,0.,-1.));
#1457=DIRECTION('',(0.,-1.,0.));
#1458=DIRECTION('',(0.,0.,-1.));
#1459=DIRECTION('',(0.,-1.,0.));
#1460=DIRECTION('',(0.,0.,-1.));
#1461=DIRECTION('',(0.,-1.,0.));
#1462=DIRECTION('',(0.,3.46944695195362E-16,-1.));
#1463=DIRECTION('',(0.,-1.,0.));
#1464=DIRECTION('',(0.,3.46944695195362E-16,-1.));
#1465=DIRECTION('',(-1.,0.,0.));
#1466=DIRECTION('',(0.,0.,1.));
#1467=DIRECTION('',(0.,-1.,0.));
#1468=DIRECTION('',(0.,0.,1.));
#1469=DIRECTION('',(0.,-1.,0.));
#1470=DIRECTION('',(0.,0.,1.));
#1471=DIRECTION('',(0.,-1.,0.));
#1472=DIRECTION('',(0.,3.46944695195362E-16,-1.));
#1473=DIRECTION('',(0.,-1.,0.));
#1474=DIRECTION('',(0.,3.46944695195362E-16,-1.));
#1475=DIRECTION('',(0.,0.,1.));
#1476=DIRECTION('',(1.,0.,0.));
#1477=DIRECTION('',(0.,0.,1.));
#1478=DIRECTION('',(1.,0.,0.));
#1479=DIRECTION('',(0.,0.,1.));
#1480=DIRECTION('',(1.,0.,0.));
#1481=DIRECTION('',(0.,0.,1.));
#1482=DIRECTION('',(1.,0.,0.));
#1483=DIRECTION('',(0.,0.,1.));
#1484=DIRECTION('',(1.,0.,0.));
#1485=DIRECTION('',(1.,0.,0.));
#1486=DIRECTION('',(0.,-1.,0.));
#1487=DIRECTION('',(1.,0.,0.));
#1488=DIRECTION('',(0.,-1.,0.));
#1489=DIRECTION('',(1.,0.,0.));
#1490=DIRECTION('',(1.,0.,0.));
#1491=DIRECTION('',(0.,1.,0.));
#1492=DIRECTION('',(0.,0.,1.));
#1493=DIRECTION('',(1.,0.,0.));
#1494=DIRECTION('',(0.,0.,-1.));
#1495=DIRECTION('',(1.,0.,0.));
#1496=DIRECTION('',(0.,0.,-1.));
#1497=DIRECTION('',(0.,-1.,0.));
#1498=DIRECTION('',(0.,0.,-1.));
#1499=DIRECTION('',(0.,1.,0.));
#1500=DIRECTION('',(0.,0.,1.));
#1501=DIRECTION('',(1.,0.,0.));
#1502=DIRECTION('',(0.,0.,1.));
#1503=DIRECTION('',(1.,0.,0.));
#1504=DIRECTION('',(0.,0.,1.));
#1505=DIRECTION('',(1.,0.,0.));
#1506=DIRECTION('',(0.,0.,1.));
#1507=DIRECTION('',(1.,0.,0.));
#1508=DIRECTION('',(0.,0.,1.));
#1509=DIRECTION('',(1.,0.,0.));
#1510=DIRECTION('',(0.,0.,1.));
#1511=DIRECTION('',(1.,0.,0.));
#1512=DIRECTION('',(0.,-1.,0.));
#1513=DIRECTION('',(0.,0.,-1.));
#1514=DIRECTION('',(0.,0.,1.));
#1515=DIRECTION('',(1.,0.,0.));
#1516=DIRECTION('',(-1.,0.,0.));
#1517=DIRECTION('',(0.,0.,1.));
#1518=DIRECTION('',(0.,0.,1.));
#1519=DIRECTION('',(0.,-1.,0.));
#1520=DIRECTION('',(0.,-1.,0.));
#1521=DIRECTION('',(0.,0.,-1.));
#1522=DIRECTION('',(1.,0.,0.));
#1523=DIRECTION('',(0.,0.,1.));
#1524=DIRECTION('',(1.,0.,0.));
#1525=DIRECTION('',(0.,0.,1.));
#1526=DIRECTION('',(1.,0.,0.));
#1527=DIRECTION('',(0.,0.,1.));
#1528=DIRECTION('',(1.,0.,0.));
#1529=DIRECTION('',(0.,0.,1.));
#1530=DIRECTION('',(1.,0.,0.));
#1531=DIRECTION('',(0.,0.,1.));
#1532=DIRECTION('',(1.,0.,0.));
#1533=DIRECTION('',(0.,-1.,-3.46944695195362E-16));
#1534=DIRECTION('',(0.,3.46944695195362E-16,-1.));
#1535=DIRECTION('',(1.,0.,0.));
#1536=DIRECTION('',(1.,0.,0.));
#1537=DIRECTION('',(0.,0.,1.));
#1538=DIRECTION('',(1.,0.,0.));
#1539=DIRECTION('',(1.,0.,0.));
#1540=DIRECTION('',(0.,-1.,-3.46944695195362E-16));
#1541=DIRECTION('',(0.,3.46944695195362E-16,-1.));
#1542=DIRECTION('',(1.,0.,0.));
#1543=DIRECTION('',(0.,0.,1.));
#1544=DIRECTION('',(1.,0.,0.));
#1545=CARTESIAN_POINT('',(0.,0.,0.));
#1546=CARTESIAN_POINT('',(0.,0.0147,0.016));
#1547=CARTESIAN_POINT('',(0.,0.0147,0.013));
#1548=CARTESIAN_POINT('',(-0.0412,0.0147,0.013));
#1549=CARTESIAN_POINT('',(0.0412,0.0147,0.013));
#1550=CARTESIAN_POINT('',(-0.0412,0.0147,0.016));
#1551=CARTESIAN_POINT('',(-0.0412,0.0147,0.016));
#1552=CARTESIAN_POINT('',(0.,0.0147,0.016));
#1553=CARTESIAN_POINT('',(0.0412,0.0147,0.016));
#1554=CARTESIAN_POINT('',(0.0412,0.0147,0.016));
#1555=CARTESIAN_POINT('',(-0.0412,-1.7347234759768E-18,0.016));
#1556=CARTESIAN_POINT('',(-0.0412,-1.7347234759768E-18,0.013));
#1557=CARTESIAN_POINT('',(-0.0412,-0.0147,0.013));
#1558=CARTESIAN_POINT('',(-0.0412,-0.0147,0.016));
#1559=CARTESIAN_POINT('',(-0.0412,-0.0147,0.016));
#1560=CARTESIAN_POINT('',(-0.0412,-1.7347234759768E-18,0.016));
#1561=CARTESIAN_POINT('',(0.,-0.0147,0.016));
#1562=CARTESIAN_POINT('',(0.,-0.0147,0.013));
#1563=CARTESIAN_POINT('',(0.0412,-0.0147,0.013));
#1564=CARTESIAN_POINT('',(0.0412,-0.0147,0.016));
#1565=CARTESIAN_POINT('',(0.0412,-0.0147,0.016));
#1566=CARTESIAN_POINT('',(0.,-0.0147,0.016));
#1567=CARTESIAN_POINT('',(0.022075,0.0065,0.016));
#1568=CARTESIAN_POINT('',(0.022075,0.0065,0.013));
#1569=CARTESIAN_POINT('',(0.022075,0.007,0.013));
#1570=CARTESIAN_POINT('',(0.021575,0.0065,0.013));
#1571=CARTESIAN_POINT('',(0.022075,0.007,0.016));
#1572=CARTESIAN_POINT('',(0.022075,0.007,0.016));
#1573=CARTESIAN_POINT('',(0.022075,0.0065,0.016));
#1574=CARTESIAN_POINT('',(0.021575,0.0065,0.016));
#1575=CARTESIAN_POINT('',(0.021575,0.0065,0.016));
#1576=CARTESIAN_POINT('',(0.028575,0.007,0.016));
#1577=CARTESIAN_POINT('',(0.028575,0.007,0.013));
#1578=CARTESIAN_POINT('',(0.035075,0.007,0.013));
#1579=CARTESIAN_POINT('',(0.035075,0.007,0.016));
#1580=CARTESIAN_POINT('',(0.035075,0.007,0.016));
#1581=CARTESIAN_POINT('',(0.028575,0.007,0.016));
#1582=CARTESIAN_POINT('',(0.035075,0.0065,0.016));
#1583=CARTESIAN_POINT('',(0.035075,0.0065,0.013));
#1584=CARTESIAN_POINT('',(0.035575,0.0065,0.013));
#1585=CARTESIAN_POINT('',(0.035575,0.0065,0.016));
#1586=CARTESIAN_POINT('',(0.035575,0.0065,0.016));
#1587=CARTESIAN_POINT('',(0.035075,0.0065,0.016));
#1588=CARTESIAN_POINT('',(0.035575,1.7347234759768E-18,0.016));
#1589=CARTESIAN_POINT('',(0.035575,1.7347234759768E-18,0.013));
#1590=CARTESIAN_POINT('',(0.035575,-0.0065,0.013));
#1591=CARTESIAN_POINT('',(0.035575,-0.0065,0.016));
#1592=CARTESIAN_POINT('',(0.035575,-0.0065,0.016));
#1593=CARTESIAN_POINT('',(0.035575,1.7347234759768E-18,0.016));
#1594=CARTESIAN_POINT('',(0.035075,-0.0065,0.016));
#1595=CARTESIAN_POINT('',(0.035075,-0.0065,0.013));
#1596=CARTESIAN_POINT('',(0.035075,-0.007,0.013));
#1597=CARTESIAN_POINT('',(0.035075,-0.007,0.016));
#1598=CARTESIAN_POINT('',(0.035075,-0.007,0.016));
#1599=CARTESIAN_POINT('',(0.035075,-0.0065,0.016));
#1600=CARTESIAN_POINT('',(0.028575,-0.007,0.016));
#1601=CARTESIAN_POINT('',(0.028575,-0.007,0.013));
#1602=CARTESIAN_POINT('',(0.022075,-0.007,0.013));
#1603=CARTESIAN_POINT('',(0.022075,-0.007,0.016));
#1604=CARTESIAN_POINT('',(0.022075,-0.007,0.016));
#1605=CARTESIAN_POINT('',(0.028575,-0.007,0.016));
#1606=CARTESIAN_POINT('',(0.022075,-0.0065,0.016));
#1607=CARTESIAN_POINT('',(0.022075,-0.0065,0.013));
#1608=CARTESIAN_POINT('',(0.021575,-0.0065,0.013));
#1609=CARTESIAN_POINT('',(0.021575,-0.0065,0.016));
#1610=CARTESIAN_POINT('',(0.021575,-0.0065,0.016));
#1611=CARTESIAN_POINT('',(0.022075,-0.0065,0.016));
#1612=CARTESIAN_POINT('',(0.003025,0.0065,0.016));
#1613=CARTESIAN_POINT('',(0.003025,0.0065,0.013));
#1614=CARTESIAN_POINT('',(0.003025,0.007,0.013));
#1615=CARTESIAN_POINT('',(0.002525,0.0065,0.013));
#1616=CARTESIAN_POINT('',(0.003025,0.007,0.016));
#1617=CARTESIAN_POINT('',(0.003025,0.007,0.016));
#1618=CARTESIAN_POINT('',(0.003025,0.0065,0.016));
#1619=CARTESIAN_POINT('',(0.002525,0.0065,0.016));
#1620=CARTESIAN_POINT('',(0.002525,0.0065,0.016));
#1621=CARTESIAN_POINT('',(0.009525,0.007,0.016));
#1622=CARTESIAN_POINT('',(0.009525,0.007,0.013));
#1623=CARTESIAN_POINT('',(0.016025,0.007,0.013));
#1624=CARTESIAN_POINT('',(0.016025,0.007,0.016));
#1625=CARTESIAN_POINT('',(0.016025,0.007,0.016));
#1626=CARTESIAN_POINT('',(0.009525,0.007,0.016));
#1627=CARTESIAN_POINT('',(0.016025,0.0065,0.016));
#1628=CARTESIAN_POINT('',(0.016025,0.0065,0.013));
#1629=CARTESIAN_POINT('',(0.016525,0.0065,0.013));
#1630=CARTESIAN_POINT('',(0.016525,0.0065,0.016));
#1631=CARTESIAN_POINT('',(0.016525,0.0065,0.016));
#1632=CARTESIAN_POINT('',(0.016025,0.0065,0.016));
#1633=CARTESIAN_POINT('',(0.016525,1.7347234759768E-18,0.016));
#1634=CARTESIAN_POINT('',(0.016525,1.7347234759768E-18,0.013));
#1635=CARTESIAN_POINT('',(0.016525,-0.0065,0.013));
#1636=CARTESIAN_POINT('',(0.016525,-0.0065,0.016));
#1637=CARTESIAN_POINT('',(0.016525,-0.0065,0.016));
#1638=CARTESIAN_POINT('',(0.016525,1.7347234759768E-18,0.016));
#1639=CARTESIAN_POINT('',(0.016025,-0.0065,0.016));
#1640=CARTESIAN_POINT('',(0.016025,-0.0065,0.013));
#1641=CARTESIAN_POINT('',(0.016025,-0.007,0.013));
#1642=CARTESIAN_POINT('',(0.016025,-0.007,0.016));
#1643=CARTESIAN_POINT('',(0.016025,-0.007,0.016));
#1644=CARTESIAN_POINT('',(0.016025,-0.0065,0.016));
#1645=CARTESIAN_POINT('',(0.009525,-0.007,0.016));
#1646=CARTESIAN_POINT('',(0.009525,-0.007,0.013));
#1647=CARTESIAN_POINT('',(0.003025,-0.007,0.013));
#1648=CARTESIAN_POINT('',(0.003025,-0.007,0.016));
#1649=CARTESIAN_POINT('',(0.003025,-0.007,0.016));
#1650=CARTESIAN_POINT('',(0.009525,-0.007,0.016));
#1651=CARTESIAN_POINT('',(0.003025,-0.0065,0.016));
#1652=CARTESIAN_POINT('',(0.003025,-0.0065,0.013));
#1653=CARTESIAN_POINT('',(0.002525,-0.0065,0.013));
#1654=CARTESIAN_POINT('',(0.002525,-0.0065,0.016));
#1655=CARTESIAN_POINT('',(0.002525,-0.0065,0.016));
#1656=CARTESIAN_POINT('',(0.003025,-0.0065,0.016));
#1657=CARTESIAN_POINT('',(-0.016025,0.0065,0.016));
#1658=CARTESIAN_POINT('',(-0.016025,0.0065,0.013));
#1659=CARTESIAN_POINT('',(-0.016025,0.007,0.013));
#1660=CARTESIAN_POINT('',(-0.016525,0.0065,0.013));
#1661=CARTESIAN_POINT('',(-0.016025,0.007,0.016));
#1662=CARTESIAN_POINT('',(-0.016025,0.007,0.016));
#1663=CARTESIAN_POINT('',(-0.016025,0.0065,0.016));
#1664=CARTESIAN_POINT('',(-0.016525,0.0065,0.016));
#1665=CARTESIAN_POINT('',(-0.016525,0.0065,0.016));
#1666=CARTESIAN_POINT('',(-0.009525,0.007,0.016));
#1667=CARTESIAN_POINT('',(-0.009525,0.007,0.013));
#1668=CARTESIAN_POINT('',(-0.003025,0.007,0.013));
#1669=CARTESIAN_POINT('',(-0.003025,0.007,0.016));
#1670=CARTESIAN_POINT('',(-0.003025,0.007,0.016));
#1671=CARTESIAN_POINT('',(-0.009525,0.007,0.016));
#1672=CARTESIAN_POINT('',(-0.003025,0.0065,0.016));
#1673=CARTESIAN_POINT('',(-0.003025,0.0065,0.013));
#1674=CARTESIAN_POINT('',(-0.002525,0.0065,0.013));
#1675=CARTESIAN_POINT('',(-0.002525,0.0065,0.016));
#1676=CARTESIAN_POINT('',(-0.002525,0.0065,0.016));
#1677=CARTESIAN_POINT('',(-0.003025,0.0065,0.016));
#1678=CARTESIAN_POINT('',(-0.002525,1.7347234759768E-18,0.016));
#1679=CARTESIAN_POINT('',(-0.002525,1.7347234759768E-18,0.013));
#1680=CARTESIAN_POINT('',(-0.002525,-0.0065,0.013));
#1681=CARTESIAN_POINT('',(-0.002525,-0.0065,0.016));
#1682=CARTESIAN_POINT('',(-0.002525,-0.0065,0.016));
#1683=CARTESIAN_POINT('',(-0.002525,1.7347234759768E-18,0.016));
#1684=CARTESIAN_POINT('',(-0.003025,-0.0065,0.016));
#1685=CARTESIAN_POINT('',(-0.003025,-0.0065,0.013));
#1686=CARTESIAN_POINT('',(-0.003025,-0.007,0.013));
#1687=CARTESIAN_POINT('',(-0.003025,-0.007,0.016));
#1688=CARTESIAN_POINT('',(-0.003025,-0.007,0.016));
#1689=CARTESIAN_POINT('',(-0.003025,-0.0065,0.016));
#1690=CARTESIAN_POINT('',(-0.009525,-0.007,0.016));
#1691=CARTESIAN_POINT('',(-0.009525,-0.007,0.013));
#1692=CARTESIAN_POINT('',(-0.016025,-0.007,0.013));
#1693=CARTESIAN_POINT('',(-0.016025,-0.007,0.016));
#1694=CARTESIAN_POINT('',(-0.016025,-0.007,0.016));
#1695=CARTESIAN_POINT('',(-0.009525,-0.007,0.016));
#1696=CARTESIAN_POINT('',(-0.016025,-0.0065,0.016));
#1697=CARTESIAN_POINT('',(-0.016025,-0.0065,0.013));
#1698=CARTESIAN_POINT('',(-0.016525,-0.0065,0.013));
#1699=CARTESIAN_POINT('',(-0.016525,-0.0065,0.016));
#1700=CARTESIAN_POINT('',(-0.016525,-0.0065,0.016));
#1701=CARTESIAN_POINT('',(-0.016025,-0.0065,0.016));
#1702=CARTESIAN_POINT('',(-0.035075,0.0065,0.016));
#1703=CARTESIAN_POINT('',(-0.035075,0.0065,0.013));
#1704=CARTESIAN_POINT('',(-0.035075,0.007,0.013));
#1705=CARTESIAN_POINT('',(-0.035575,0.0065,0.013));
#1706=CARTESIAN_POINT('',(-0.035075,0.007,0.016));
#1707=CARTESIAN_POINT('',(-0.035075,0.007,0.016));
#1708=CARTESIAN_POINT('',(-0.035075,0.0065,0.016));
#1709=CARTESIAN_POINT('',(-0.035575,0.0065,0.016));
#1710=CARTESIAN_POINT('',(-0.035575,0.0065,0.016));
#1711=CARTESIAN_POINT('',(-0.028575,0.007,0.016));
#1712=CARTESIAN_POINT('',(-0.028575,0.007,0.013));
#1713=CARTESIAN_POINT('',(-0.022075,0.007,0.013));
#1714=CARTESIAN_POINT('',(-0.022075,0.007,0.016));
#1715=CARTESIAN_POINT('',(-0.022075,0.007,0.016));
#1716=CARTESIAN_POINT('',(-0.028575,0.007,0.016));
#1717=CARTESIAN_POINT('',(-0.022075,0.0065,0.016));
#1718=CARTESIAN_POINT('',(-0.022075,0.0065,0.013));
#1719=CARTESIAN_POINT('',(-0.021575,0.0065,0.013));
#1720=CARTESIAN_POINT('',(-0.021575,0.0065,0.016));
#1721=CARTESIAN_POINT('',(-0.021575,0.0065,0.016));
#1722=CARTESIAN_POINT('',(-0.022075,0.0065,0.016));
#1723=CARTESIAN_POINT('',(-0.021575,1.7347234759768E-18,0.016));
#1724=CARTESIAN_POINT('',(-0.021575,1.7347234759768E-18,0.013));
#1725=CARTESIAN_POINT('',(-0.021575,-0.0065,0.013));
#1726=CARTESIAN_POINT('',(-0.021575,-0.0065,0.016));
#1727=CARTESIAN_POINT('',(-0.021575,-0.0065,0.016));
#1728=CARTESIAN_POINT('',(-0.021575,1.7347234759768E-18,0.016));
#1729=CARTESIAN_POINT('',(-0.022075,-0.0065,0.016));
#1730=CARTESIAN_POINT('',(-0.022075,-0.0065,0.013));
#1731=CARTESIAN_POINT('',(-0.022075,-0.007,0.013));
#1732=CARTESIAN_POINT('',(-0.022075,-0.007,0.016));
#1733=CARTESIAN_POINT('',(-0.022075,-0.007,0.016));
#1734=CARTESIAN_POINT('',(-0.022075,-0.0065,0.016));
#1735=CARTESIAN_POINT('',(-0.028575,-0.007,0.016));
#1736=CARTESIAN_POINT('',(-0.028575,-0.007,0.013));
#1737=CARTESIAN_POINT('',(-0.035075,-0.007,0.013));
#1738=CARTESIAN_POINT('',(-0.035075,-0.007,0.016));
#1739=CARTESIAN_POINT('',(-0.035075,-0.007,0.016));
#1740=CARTESIAN_POINT('',(-0.028575,-0.007,0.016));
#1741=CARTESIAN_POINT('',(-0.035075,-0.0065,0.016));
#1742=CARTESIAN_POINT('',(-0.035075,-0.0065,0.013));
#1743=CARTESIAN_POINT('',(-0.035575,-0.0065,0.013));
#1744=CARTESIAN_POINT('',(-0.035575,-0.0065,0.016));
#1745=CARTESIAN_POINT('',(-0.035575,-0.0065,0.016));
#1746=CARTESIAN_POINT('',(-0.035075,-0.0065,0.016));
#1747=CARTESIAN_POINT('',(0.021575,1.7347234759768E-18,0.016));
#1748=CARTESIAN_POINT('',(0.021575,1.7347234759768E-18,0.013));
#1749=CARTESIAN_POINT('',(0.021575,1.7347234759768E-18,0.016));
#1750=CARTESIAN_POINT('',(0.002525,1.7347234759768E-18,0.016));
#1751=CARTESIAN_POINT('',(0.002525,1.7347234759768E-18,0.013));
#1752=CARTESIAN_POINT('',(0.002525,1.7347234759768E-18,0.016));
#1753=CARTESIAN_POINT('',(-0.016525,1.7347234759768E-18,0.016));
#1754=CARTESIAN_POINT('',(-0.016525,1.7347234759768E-18,0.013));
#1755=CARTESIAN_POINT('',(-0.016525,1.7347234759768E-18,0.016));
#1756=CARTESIAN_POINT('',(-0.035575,1.7347234759768E-18,0.016));
#1757=CARTESIAN_POINT('',(-0.035575,1.7347234759768E-18,0.013));
#1758=CARTESIAN_POINT('',(-0.035575,1.7347234759768E-18,0.016));
#1759=CARTESIAN_POINT('',(0.0412,-1.7347234759768E-18,0.016));
#1760=CARTESIAN_POINT('',(0.0412,-1.7347234759768E-18,0.013));
#1761=CARTESIAN_POINT('',(0.0412,-1.7347234759768E-18,0.016));
#1762=CARTESIAN_POINT('',(1.38777878078145E-17,-3.46944695195361E-18,0.016));
#1763=CARTESIAN_POINT('',(1.38777878078145E-17,-3.46944695195361E-18,0.013));
#1764=CARTESIAN_POINT('',(0.,0.,0.));
#1765=CARTESIAN_POINT('',(0.0412,-1.7347234759768E-18,0.013));
#1766=CARTESIAN_POINT('',(0.0412,-1.7347234759768E-18,0.));
#1767=CARTESIAN_POINT('',(0.0412,0.0147,0.));
#1768=CARTESIAN_POINT('',(0.0412,-0.0147,0.));
#1769=CARTESIAN_POINT('',(0.0412,0.0147,0.013));
#1770=CARTESIAN_POINT('',(0.0412,0.0147,0.013));
#1771=CARTESIAN_POINT('',(0.0412,-1.7347234759768E-18,0.013));
#1772=CARTESIAN_POINT('',(0.0412,-0.0147,0.013));
#1773=CARTESIAN_POINT('',(0.0412,-0.0147,0.013));
#1774=CARTESIAN_POINT('',(0.0412,-8.67361737988404E-19,0.0128575715106642));
#1775=CARTESIAN_POINT('',(0.0412,0.005,0.0128575715106642));
#1776=CARTESIAN_POINT('',(0.0412,-0.005,0.0128575715106642));
#1777=CARTESIAN_POINT('',(0.0412,0.005,0.0103575715106642));
#1778=CARTESIAN_POINT('',(0.0412,0.005,0.00785757151066418));
#1779=CARTESIAN_POINT('',(0.0412,-8.67361737988404E-19,0.00785757151066418));
#1780=CARTESIAN_POINT('',(0.0412,-0.005,0.00785757151066418));
#1781=CARTESIAN_POINT('',(0.0412,-0.005,0.0103575715106642));
#1782=CARTESIAN_POINT('',(0.0362,0.,0.003));
#1783=CARTESIAN_POINT('',(0.0362,0.,0.013));
#1784=CARTESIAN_POINT('',(0.0362,0.0097,0.013));
#1785=CARTESIAN_POINT('',(0.0362,-0.0097,0.013));
#1786=CARTESIAN_POINT('',(0.0362,0.0097,0.003));
#1787=CARTESIAN_POINT('',(0.0362,0.0097,0.003));
#1788=CARTESIAN_POINT('',(0.0362,0.,0.003));
#1789=CARTESIAN_POINT('',(0.0362,-0.0097,0.003));
#1790=CARTESIAN_POINT('',(0.0362,-0.0097,0.003));
#1791=CARTESIAN_POINT('',(0.0362,-8.67361737988404E-19,0.00785757151066418));
#1792=CARTESIAN_POINT('',(0.0362,0.005,0.00785757151066418));
#1793=CARTESIAN_POINT('',(0.0362,-0.005,0.00785757151066418));
#1794=CARTESIAN_POINT('',(0.0362,0.005,0.0103575715106642));
#1795=CARTESIAN_POINT('',(0.0362,0.005,0.0128575715106642));
#1796=CARTESIAN_POINT('',(0.0362,-8.67361737988404E-19,0.0128575715106642));
#1797=CARTESIAN_POINT('',(0.0362,-0.005,0.0128575715106642));
#1798=CARTESIAN_POINT('',(0.0362,-0.005,0.0103575715106642));
#1799=CARTESIAN_POINT('',(0.,-3.46944695195361E-18,0.013));
#1800=CARTESIAN_POINT('',(0.0387,0.0122,0.013));
#1801=CARTESIAN_POINT('',(0.04015,0.0122,0.013));
#1802=CARTESIAN_POINT('',(-0.0387,-0.0122,0.013));
#1803=CARTESIAN_POINT('',(-0.03725,-0.0122,0.013));
#1804=CARTESIAN_POINT('',(0.0387,-0.0122,0.013));
#1805=CARTESIAN_POINT('',(0.04015,-0.0122,0.013));
#1806=CARTESIAN_POINT('',(-0.0387,0.0122,0.013));
#1807=CARTESIAN_POINT('',(-0.03725,0.0122,0.013));
#1808=CARTESIAN_POINT('',(0.,0.0147,0.013));
#1809=CARTESIAN_POINT('',(-0.0412,0.0147,0.013));
#1810=CARTESIAN_POINT('',(-0.0412,-1.7347234759768E-18,0.013));
#1811=CARTESIAN_POINT('',(-0.0412,-0.0147,0.013));
#1812=CARTESIAN_POINT('',(0.,-0.0147,0.013));
#1813=CARTESIAN_POINT('',(-0.0362,0.,0.013));
#1814=CARTESIAN_POINT('',(-0.0362,0.0097,0.013));
#1815=CARTESIAN_POINT('',(-0.0362,-0.0097,0.013));
#1816=CARTESIAN_POINT('',(0.,0.0097,0.013));
#1817=CARTESIAN_POINT('',(0.,-0.0097,0.013));
#1818=CARTESIAN_POINT('',(0.,0.0147,0.013));
#1819=CARTESIAN_POINT('',(0.,0.0147,0.));
#1820=CARTESIAN_POINT('',(-0.0412,0.0147,0.));
#1821=CARTESIAN_POINT('',(-0.0412,0.0147,0.013));
#1822=CARTESIAN_POINT('',(-0.0412,-1.7347234759768E-18,0.013));
#1823=CARTESIAN_POINT('',(-0.0412,-1.7347234759768E-18,0.));
#1824=CARTESIAN_POINT('',(-0.0412,-0.0147,0.));
#1825=CARTESIAN_POINT('',(-0.0412,-0.0147,0.013));
#1826=CARTESIAN_POINT('',(0.,-0.0147,0.013));
#1827=CARTESIAN_POINT('',(0.,-0.0147,0.));
#1828=CARTESIAN_POINT('',(0.,-3.46944695195361E-18,0.));
#1829=CARTESIAN_POINT('',(0.0387,0.0122,0.));
#1830=CARTESIAN_POINT('',(0.04015,0.0122,0.));
#1831=CARTESIAN_POINT('',(-0.0387,-0.0122,0.));
#1832=CARTESIAN_POINT('',(-0.03725,-0.0122,0.));
#1833=CARTESIAN_POINT('',(0.0387,-0.0122,0.));
#1834=CARTESIAN_POINT('',(0.04015,-0.0122,0.));
#1835=CARTESIAN_POINT('',(-0.0387,0.0122,0.));
#1836=CARTESIAN_POINT('',(-0.03725,0.0122,0.));
#1837=CARTESIAN_POINT('',(0.,0.0097,0.003));
#1838=CARTESIAN_POINT('',(-0.0362,0.0097,0.003));
#1839=CARTESIAN_POINT('',(-0.0362,0.0097,0.003));
#1840=CARTESIAN_POINT('',(0.,0.0097,0.003));
#1841=CARTESIAN_POINT('',(-0.0362,0.,0.003));
#1842=CARTESIAN_POINT('',(-0.0362,-0.0097,0.003));
#1843=CARTESIAN_POINT('',(-0.0362,-0.0097,0.003));
#1844=CARTESIAN_POINT('',(-0.0362,0.,0.003));
#1845=CARTESIAN_POINT('',(0.,-0.0097,0.003));
#1846=CARTESIAN_POINT('',(0.,-0.0097,0.003));
#1847=CARTESIAN_POINT('',(0.,-3.46944695195361E-18,0.003));
#1848=CARTESIAN_POINT('',(-0.0387,0.0122,0.));
#1849=CARTESIAN_POINT('',(0.0387,-0.0122,0.));
#1850=CARTESIAN_POINT('',(-0.0387,-0.0122,0.));
#1851=CARTESIAN_POINT('',(0.0387,0.0122,0.));
#1852=CARTESIAN_POINT('',(0.0362,0.005,0.0103575715106642));
#1853=CARTESIAN_POINT('',(0.0362,0.005,0.0128575715106642));
#1854=CARTESIAN_POINT('',(0.0362,0.005,0.00785757151066418));
#1855=CARTESIAN_POINT('',(0.0362,-8.67361737988404E-19,0.0128575715106642));
#1856=CARTESIAN_POINT('',(0.0362,-0.005,0.0128575715106642));
#1857=CARTESIAN_POINT('',(0.0362,-0.005,0.0103575715106642));
#1858=CARTESIAN_POINT('',(0.0362,-0.005,0.00785757151066418));
#1859=CARTESIAN_POINT('',(0.0362,-8.67361737988404E-19,0.00785757151066418));
#1860=MECHANICAL_DESIGN_GEOMETRIC_PRESENTATION_REPRESENTATION('',(#1114),
#1862);
#1861=MECHANICAL_DESIGN_GEOMETRIC_PRESENTATION_REPRESENTATION('',(#1115),
#1863);
#1862=(
GEOMETRIC_REPRESENTATION_CONTEXT(3)
GLOBAL_UNCERTAINTY_ASSIGNED_CONTEXT((#1864))
GLOBAL_UNIT_ASSIGNED_CONTEXT((#1870,#1868,#1866))
REPRESENTATION_CONTEXT('Part 2','TOP_LEVEL_ASSEMBLY_PART')
);
#1863=(
GEOMETRIC_REPRESENTATION_CONTEXT(3)
GLOBAL_UNCERTAINTY_ASSIGNED_CONTEXT((#1865))
GLOBAL_UNIT_ASSIGNED_CONTEXT((#1871,#1869,#1867))
REPRESENTATION_CONTEXT('Part 1','TOP_LEVEL_ASSEMBLY_PART')
);
#1864=UNCERTAINTY_MEASURE_WITH_UNIT(LENGTH_MEASURE(1.E-8),#1870,
'DISTANCE_ACCURACY_VALUE','Maximum Tolerance applied to model');
#1865=UNCERTAINTY_MEASURE_WITH_UNIT(LENGTH_MEASURE(1.E-8),#1871,
'DISTANCE_ACCURACY_VALUE','Maximum Tolerance applied to model');
#1866=(
NAMED_UNIT(*)
SI_UNIT($,.STERADIAN.)
SOLID_ANGLE_UNIT()
);
#1867=(
NAMED_UNIT(*)
SI_UNIT($,.STERADIAN.)
SOLID_ANGLE_UNIT()
);
#1868=(
NAMED_UNIT(*)
PLANE_ANGLE_UNIT()
SI_UNIT($,.RADIAN.)
);
#1869=(
NAMED_UNIT(*)
PLANE_ANGLE_UNIT()
SI_UNIT($,.RADIAN.)
);
#1870=(
LENGTH_UNIT()
NAMED_UNIT(*)
SI_UNIT($,.METRE.)
);
#1871=(
LENGTH_UNIT()
NAMED_UNIT(*)
SI_UNIT($,.METRE.)
);
#1872=PRODUCT_DEFINITION_SHAPE('','',#1874);
#1873=PRODUCT_DEFINITION_SHAPE('','',#1875);
#1874=PRODUCT_DEFINITION('','',#1878,#1876);
#1875=PRODUCT_DEFINITION('','',#1879,#1877);
#1876=PRODUCT_DEFINITION_CONTEXT('',#1890,'design');
#1877=PRODUCT_DEFINITION_CONTEXT('',#1891,'design');
#1878=PRODUCT_DEFINITION_FORMATION_WITH_SPECIFIED_SOURCE('','',#1882,
 .NOT_KNOWN.);
#1879=PRODUCT_DEFINITION_FORMATION_WITH_SPECIFIED_SOURCE('','',#1883,
 .NOT_KNOWN.);
#1880=PRODUCT_RELATED_PRODUCT_CATEGORY('','',(#1882));
#1881=PRODUCT_RELATED_PRODUCT_CATEGORY('','',(#1883));
#1882=PRODUCT('Part 2','Part 2','Part 2',(#1886));
#1883=PRODUCT('Part 1','Part 1','Part 1',(#1887));
#1884=PRODUCT_CATEGORY('','');
#1885=PRODUCT_CATEGORY('','');
#1886=PRODUCT_CONTEXT('',#1890,'mechanical');
#1887=PRODUCT_CONTEXT('',#1891,'mechanical');
#1888=APPLICATION_PROTOCOL_DEFINITION('international standard',
'ap242_managed_model_based_3d_engineering',2020,#1890);
#1889=APPLICATION_PROTOCOL_DEFINITION('international standard',
'ap242_managed_model_based_3d_engineering',2020,#1891);
#1890=APPLICATION_CONTEXT('managed model based 3d engineering');
#1891=APPLICATION_CONTEXT('managed model based 3d engineering');
ENDSEC;
END-ISO-10303-21;
