ISO-10303-21;
HEADER;
/* Generated by software containing ST-Developer
 * from STEP Tools, Inc. (www.steptools.com) 
 */
/* OPTION: using custom renumber hook */

FILE_DESCRIPTION(
/* description */ ('STEP AP242 Edition 2',
'CAx-IF Rec.Pracs.---Representation and Presentation of Product Manufa
cturing Information (PMI)---4.0---2014-10-13',
'CAx-IF Rec.Pracs.---3D Tessellated Geometry---0.4---2014-09-14','2;1',
'CAx-IF Rec.Pracs.---User Defined Attributes---1.5---2016-08-15'),
/* implementation_level */ '2;1');

FILE_NAME(
/* name */ 'Part Studio 1 - Part 2',
/* time_stamp */ '2026-09-23T14:05:07Z',
/* author */ (''),
/* organization */ (''),
/* preprocessor_version */ 'ST-DEVELOPER v20',
/* originating_system */ 'ONSHAPE BY PTC INC, 1.221',
/* authorisation */ '  ');

FILE_SCHEMA (('AP242_MANAGED_MODEL_BASED_3D_ENGINEERING_MIM_LF { 1 0 10303 442 3 1 4 }'));
ENDSEC;

DATA;
#10=SHAPE_REPRESENTATION_RELATIONSHIP('','',#771,#11);
#11=ADVANCED_BREP_SHAPE_REPRESENTATION('',(#769),#1281);
#12=CIRCLE('',#777,0.0005);
#13=CIRCLE('',#778,0.0005);
#14=CIRCLE('',#781,0.0005);
#15=CIRCLE('',#782,0.0005);
#16=CIRCLE('',#785,0.0005);
#17=CIRCLE('',#786,0.0005);
#18=CIRCLE('',#789,0.0005);
#19=CIRCLE('',#790,0.0005);
#20=CIRCLE('',#792,0.0005);
#21=CIRCLE('',#793,0.0005);
#22=CIRCLE('',#796,0.0005);
#23=CIRCLE('',#797,0.0005);
#24=CIRCLE('',#800,0.0005);
#25=CIRCLE('',#801,0.0005);
#26=CIRCLE('',#804,0.0005);
#27=CIRCLE('',#805,0.0005);
#28=CIRCLE('',#807,0.0005);
#29=CIRCLE('',#808,0.0005);
#30=CIRCLE('',#811,0.0005);
#31=CIRCLE('',#812,0.0005);
#32=CIRCLE('',#815,0.0005);
#33=CIRCLE('',#816,0.0005);
#34=CIRCLE('',#819,0.0005);
#35=CIRCLE('',#820,0.0005);
#36=CIRCLE('',#822,0.0005);
#37=CIRCLE('',#823,0.0005);
#38=CIRCLE('',#826,0.0005);
#39=CIRCLE('',#827,0.0005);
#40=CIRCLE('',#830,0.0005);
#41=CIRCLE('',#831,0.0005);
#42=CIRCLE('',#834,0.0005);
#43=CIRCLE('',#835,0.0005);
#44=CYLINDRICAL_SURFACE('',#776,0.0005);
#45=CYLINDRICAL_SURFACE('',#780,0.0005);
#46=CYLINDRICAL_SURFACE('',#784,0.0005);
#47=CYLINDRICAL_SURFACE('',#788,0.0005);
#48=CYLINDRICAL_SURFACE('',#791,0.0005);
#49=CYLINDRICAL_SURFACE('',#795,0.0005);
#50=CYLINDRICAL_SURFACE('',#799,0.0005);
#51=CYLINDRICAL_SURFACE('',#803,0.0005);
#52=CYLINDRICAL_SURFACE('',#806,0.0005);
#53=CYLINDRICAL_SURFACE('',#810,0.0005);
#54=CYLINDRICAL_SURFACE('',#814,0.0005);
#55=CYLINDRICAL_SURFACE('',#818,0.0005);
#56=CYLINDRICAL_SURFACE('',#821,0.0005);
#57=CYLINDRICAL_SURFACE('',#825,0.0005);
#58=CYLINDRICAL_SURFACE('',#829,0.0005);
#59=CYLINDRICAL_SURFACE('',#833,0.0005);
#60=ORIENTED_EDGE('',*,*,#276,.F.);
#61=ORIENTED_EDGE('',*,*,#277,.F.);
#62=ORIENTED_EDGE('',*,*,#278,.T.);
#63=ORIENTED_EDGE('',*,*,#279,.T.);
#64=ORIENTED_EDGE('',*,*,#280,.T.);
#65=ORIENTED_EDGE('',*,*,#281,.F.);
#66=ORIENTED_EDGE('',*,*,#282,.F.);
#67=ORIENTED_EDGE('',*,*,#277,.T.);
#68=ORIENTED_EDGE('',*,*,#283,.T.);
#69=ORIENTED_EDGE('',*,*,#284,.F.);
#70=ORIENTED_EDGE('',*,*,#285,.F.);
#71=ORIENTED_EDGE('',*,*,#281,.T.);
#72=ORIENTED_EDGE('',*,*,#286,.F.);
#73=ORIENTED_EDGE('',*,*,#287,.F.);
#74=ORIENTED_EDGE('',*,*,#288,.T.);
#75=ORIENTED_EDGE('',*,*,#289,.T.);
#76=ORIENTED_EDGE('',*,*,#290,.T.);
#77=ORIENTED_EDGE('',*,*,#291,.F.);
#78=ORIENTED_EDGE('',*,*,#292,.F.);
#79=ORIENTED_EDGE('',*,*,#287,.T.);
#80=ORIENTED_EDGE('',*,*,#293,.F.);
#81=ORIENTED_EDGE('',*,*,#294,.F.);
#82=ORIENTED_EDGE('',*,*,#295,.T.);
#83=ORIENTED_EDGE('',*,*,#291,.T.);
#84=ORIENTED_EDGE('',*,*,#296,.T.);
#85=ORIENTED_EDGE('',*,*,#297,.F.);
#86=ORIENTED_EDGE('',*,*,#298,.F.);
#87=ORIENTED_EDGE('',*,*,#294,.T.);
#88=ORIENTED_EDGE('',*,*,#299,.F.);
#89=ORIENTED_EDGE('',*,*,#300,.F.);
#90=ORIENTED_EDGE('',*,*,#301,.T.);
#91=ORIENTED_EDGE('',*,*,#297,.T.);
#92=ORIENTED_EDGE('',*,*,#302,.F.);
#93=ORIENTED_EDGE('',*,*,#303,.F.);
#94=ORIENTED_EDGE('',*,*,#304,.T.);
#95=ORIENTED_EDGE('',*,*,#300,.T.);
#96=ORIENTED_EDGE('',*,*,#305,.F.);
#97=ORIENTED_EDGE('',*,*,#306,.F.);
#98=ORIENTED_EDGE('',*,*,#307,.T.);
#99=ORIENTED_EDGE('',*,*,#303,.T.);
#100=ORIENTED_EDGE('',*,*,#308,.F.);
#101=ORIENTED_EDGE('',*,*,#309,.F.);
#102=ORIENTED_EDGE('',*,*,#310,.T.);
#103=ORIENTED_EDGE('',*,*,#311,.T.);
#104=ORIENTED_EDGE('',*,*,#312,.T.);
#105=ORIENTED_EDGE('',*,*,#313,.F.);
#106=ORIENTED_EDGE('',*,*,#314,.F.);
#107=ORIENTED_EDGE('',*,*,#309,.T.);
#108=ORIENTED_EDGE('',*,*,#315,.F.);
#109=ORIENTED_EDGE('',*,*,#316,.F.);
#110=ORIENTED_EDGE('',*,*,#317,.T.);
#111=ORIENTED_EDGE('',*,*,#313,.T.);
#112=ORIENTED_EDGE('',*,*,#318,.T.);
#113=ORIENTED_EDGE('',*,*,#319,.F.);
#114=ORIENTED_EDGE('',*,*,#320,.F.);
#115=ORIENTED_EDGE('',*,*,#316,.T.);
#116=ORIENTED_EDGE('',*,*,#321,.F.);
#117=ORIENTED_EDGE('',*,*,#322,.F.);
#118=ORIENTED_EDGE('',*,*,#323,.T.);
#119=ORIENTED_EDGE('',*,*,#319,.T.);
#120=ORIENTED_EDGE('',*,*,#324,.F.);
#121=ORIENTED_EDGE('',*,*,#325,.F.);
#122=ORIENTED_EDGE('',*,*,#326,.T.);
#123=ORIENTED_EDGE('',*,*,#322,.T.);
#124=ORIENTED_EDGE('',*,*,#327,.F.);
#125=ORIENTED_EDGE('',*,*,#328,.F.);
#126=ORIENTED_EDGE('',*,*,#329,.T.);
#127=ORIENTED_EDGE('',*,*,#325,.T.);
#128=ORIENTED_EDGE('',*,*,#330,.F.);
#129=ORIENTED_EDGE('',*,*,#331,.F.);
#130=ORIENTED_EDGE('',*,*,#332,.T.);
#131=ORIENTED_EDGE('',*,*,#333,.T.);
#132=ORIENTED_EDGE('',*,*,#334,.T.);
#133=ORIENTED_EDGE('',*,*,#335,.F.);
#134=ORIENTED_EDGE('',*,*,#336,.F.);
#135=ORIENTED_EDGE('',*,*,#331,.T.);
#136=ORIENTED_EDGE('',*,*,#337,.F.);
#137=ORIENTED_EDGE('',*,*,#338,.F.);
#138=ORIENTED_EDGE('',*,*,#339,.T.);
#139=ORIENTED_EDGE('',*,*,#335,.T.);
#140=ORIENTED_EDGE('',*,*,#340,.T.);
#141=ORIENTED_EDGE('',*,*,#341,.F.);
#142=ORIENTED_EDGE('',*,*,#342,.F.);
#143=ORIENTED_EDGE('',*,*,#338,.T.);
#144=ORIENTED_EDGE('',*,*,#343,.F.);
#145=ORIENTED_EDGE('',*,*,#344,.F.);
#146=ORIENTED_EDGE('',*,*,#345,.T.);
#147=ORIENTED_EDGE('',*,*,#341,.T.);
#148=ORIENTED_EDGE('',*,*,#346,.F.);
#149=ORIENTED_EDGE('',*,*,#347,.F.);
#150=ORIENTED_EDGE('',*,*,#348,.T.);
#151=ORIENTED_EDGE('',*,*,#344,.T.);
#152=ORIENTED_EDGE('',*,*,#349,.F.);
#153=ORIENTED_EDGE('',*,*,#350,.F.);
#154=ORIENTED_EDGE('',*,*,#351,.T.);
#155=ORIENTED_EDGE('',*,*,#347,.T.);
#156=ORIENTED_EDGE('',*,*,#352,.F.);
#157=ORIENTED_EDGE('',*,*,#353,.F.);
#158=ORIENTED_EDGE('',*,*,#354,.T.);
#159=ORIENTED_EDGE('',*,*,#355,.T.);
#160=ORIENTED_EDGE('',*,*,#356,.T.);
#161=ORIENTED_EDGE('',*,*,#357,.F.);
#162=ORIENTED_EDGE('',*,*,#358,.F.);
#163=ORIENTED_EDGE('',*,*,#353,.T.);
#164=ORIENTED_EDGE('',*,*,#359,.F.);
#165=ORIENTED_EDGE('',*,*,#360,.F.);
#166=ORIENTED_EDGE('',*,*,#361,.T.);
#167=ORIENTED_EDGE('',*,*,#357,.T.);
#168=ORIENTED_EDGE('',*,*,#362,.T.);
#169=ORIENTED_EDGE('',*,*,#363,.F.);
#170=ORIENTED_EDGE('',*,*,#364,.F.);
#171=ORIENTED_EDGE('',*,*,#360,.T.);
#172=ORIENTED_EDGE('',*,*,#365,.F.);
#173=ORIENTED_EDGE('',*,*,#366,.F.);
#174=ORIENTED_EDGE('',*,*,#367,.T.);
#175=ORIENTED_EDGE('',*,*,#363,.T.);
#176=ORIENTED_EDGE('',*,*,#368,.F.);
#177=ORIENTED_EDGE('',*,*,#369,.F.);
#178=ORIENTED_EDGE('',*,*,#370,.T.);
#179=ORIENTED_EDGE('',*,*,#366,.T.);
#180=ORIENTED_EDGE('',*,*,#371,.F.);
#181=ORIENTED_EDGE('',*,*,#372,.F.);
#182=ORIENTED_EDGE('',*,*,#373,.T.);
#183=ORIENTED_EDGE('',*,*,#369,.T.);
#184=ORIENTED_EDGE('',*,*,#374,.F.);
#185=ORIENTED_EDGE('',*,*,#289,.F.);
#186=ORIENTED_EDGE('',*,*,#375,.T.);
#187=ORIENTED_EDGE('',*,*,#306,.T.);
#188=ORIENTED_EDGE('',*,*,#376,.F.);
#189=ORIENTED_EDGE('',*,*,#311,.F.);
#190=ORIENTED_EDGE('',*,*,#377,.T.);
#191=ORIENTED_EDGE('',*,*,#328,.T.);
#192=ORIENTED_EDGE('',*,*,#378,.F.);
#193=ORIENTED_EDGE('',*,*,#333,.F.);
#194=ORIENTED_EDGE('',*,*,#379,.T.);
#195=ORIENTED_EDGE('',*,*,#350,.T.);
#196=ORIENTED_EDGE('',*,*,#380,.F.);
#197=ORIENTED_EDGE('',*,*,#355,.F.);
#198=ORIENTED_EDGE('',*,*,#381,.T.);
#199=ORIENTED_EDGE('',*,*,#372,.T.);
#200=ORIENTED_EDGE('',*,*,#382,.F.);
#201=ORIENTED_EDGE('',*,*,#279,.F.);
#202=ORIENTED_EDGE('',*,*,#383,.T.);
#203=ORIENTED_EDGE('',*,*,#284,.T.);
#204=ORIENTED_EDGE('',*,*,#354,.F.);
#205=ORIENTED_EDGE('',*,*,#358,.T.);
#206=ORIENTED_EDGE('',*,*,#361,.F.);
#207=ORIENTED_EDGE('',*,*,#364,.T.);
#208=ORIENTED_EDGE('',*,*,#367,.F.);
#209=ORIENTED_EDGE('',*,*,#370,.F.);
#210=ORIENTED_EDGE('',*,*,#373,.F.);
#211=ORIENTED_EDGE('',*,*,#381,.F.);
#212=ORIENTED_EDGE('',*,*,#332,.F.);
#213=ORIENTED_EDGE('',*,*,#336,.T.);
#214=ORIENTED_EDGE('',*,*,#339,.F.);
#215=ORIENTED_EDGE('',*,*,#342,.T.);
#216=ORIENTED_EDGE('',*,*,#345,.F.);
#217=ORIENTED_EDGE('',*,*,#348,.F.);
#218=ORIENTED_EDGE('',*,*,#351,.F.);
#219=ORIENTED_EDGE('',*,*,#379,.F.);
#220=ORIENTED_EDGE('',*,*,#310,.F.);
#221=ORIENTED_EDGE('',*,*,#314,.T.);
#222=ORIENTED_EDGE('',*,*,#317,.F.);
#223=ORIENTED_EDGE('',*,*,#320,.T.);
#224=ORIENTED_EDGE('',*,*,#323,.F.);
#225=ORIENTED_EDGE('',*,*,#326,.F.);
#226=ORIENTED_EDGE('',*,*,#329,.F.);
#227=ORIENTED_EDGE('',*,*,#377,.F.);
#228=ORIENTED_EDGE('',*,*,#288,.F.);
#229=ORIENTED_EDGE('',*,*,#292,.T.);
#230=ORIENTED_EDGE('',*,*,#295,.F.);
#231=ORIENTED_EDGE('',*,*,#298,.T.);
#232=ORIENTED_EDGE('',*,*,#301,.F.);
#233=ORIENTED_EDGE('',*,*,#304,.F.);
#234=ORIENTED_EDGE('',*,*,#307,.F.);
#235=ORIENTED_EDGE('',*,*,#375,.F.);
#236=ORIENTED_EDGE('',*,*,#278,.F.);
#237=ORIENTED_EDGE('',*,*,#282,.T.);
#238=ORIENTED_EDGE('',*,*,#285,.T.);
#239=ORIENTED_EDGE('',*,*,#383,.F.);
#240=ORIENTED_EDGE('',*,*,#352,.T.);
#241=ORIENTED_EDGE('',*,*,#380,.T.);
#242=ORIENTED_EDGE('',*,*,#371,.T.);
#243=ORIENTED_EDGE('',*,*,#368,.T.);
#244=ORIENTED_EDGE('',*,*,#365,.T.);
#245=ORIENTED_EDGE('',*,*,#362,.F.);
#246=ORIENTED_EDGE('',*,*,#359,.T.);
#247=ORIENTED_EDGE('',*,*,#356,.F.);
#248=ORIENTED_EDGE('',*,*,#330,.T.);
#249=ORIENTED_EDGE('',*,*,#378,.T.);
#250=ORIENTED_EDGE('',*,*,#349,.T.);
#251=ORIENTED_EDGE('',*,*,#346,.T.);
#252=ORIENTED_EDGE('',*,*,#343,.T.);
#253=ORIENTED_EDGE('',*,*,#340,.F.);
#254=ORIENTED_EDGE('',*,*,#337,.T.);
#255=ORIENTED_EDGE('',*,*,#334,.F.);
#256=ORIENTED_EDGE('',*,*,#308,.T.);
#257=ORIENTED_EDGE('',*,*,#376,.T.);
#258=ORIENTED_EDGE('',*,*,#327,.T.);
#259=ORIENTED_EDGE('',*,*,#324,.T.);
#260=ORIENTED_EDGE('',*,*,#321,.T.);
#261=ORIENTED_EDGE('',*,*,#318,.F.);
#262=ORIENTED_EDGE('',*,*,#315,.T.);
#263=ORIENTED_EDGE('',*,*,#312,.F.);
#264=ORIENTED_EDGE('',*,*,#286,.T.);
#265=ORIENTED_EDGE('',*,*,#374,.T.);
#266=ORIENTED_EDGE('',*,*,#305,.T.);
#267=ORIENTED_EDGE('',*,*,#302,.T.);
#268=ORIENTED_EDGE('',*,*,#299,.T.);
#269=ORIENTED_EDGE('',*,*,#296,.F.);
#270=ORIENTED_EDGE('',*,*,#293,.T.);
#271=ORIENTED_EDGE('',*,*,#290,.F.);
#272=ORIENTED_EDGE('',*,*,#276,.T.);
#273=ORIENTED_EDGE('',*,*,#382,.T.);
#274=ORIENTED_EDGE('',*,*,#283,.F.);
#275=ORIENTED_EDGE('',*,*,#280,.F.);
#276=EDGE_CURVE('',#384,#385,#456,.T.);
#277=EDGE_CURVE('',#386,#384,#457,.T.);
#278=EDGE_CURVE('',#386,#387,#458,.T.);
#279=EDGE_CURVE('',#387,#385,#459,.T.);
#280=EDGE_CURVE('',#384,#388,#460,.T.);
#281=EDGE_CURVE('',#389,#388,#461,.T.);
#282=EDGE_CURVE('',#386,#389,#462,.T.);
#283=EDGE_CURVE('',#388,#390,#463,.T.);
#284=EDGE_CURVE('',#391,#390,#464,.T.);
#285=EDGE_CURVE('',#389,#391,#465,.T.);
#286=EDGE_CURVE('',#392,#393,#12,.T.);
#287=EDGE_CURVE('',#394,#392,#466,.T.);
#288=EDGE_CURVE('',#394,#395,#13,.T.);
#289=EDGE_CURVE('',#395,#393,#467,.T.);
#290=EDGE_CURVE('',#392,#396,#468,.T.);
#291=EDGE_CURVE('',#397,#396,#469,.T.);
#292=EDGE_CURVE('',#394,#397,#470,.T.);
#293=EDGE_CURVE('',#398,#396,#14,.T.);
#294=EDGE_CURVE('',#399,#398,#471,.T.);
#295=EDGE_CURVE('',#399,#397,#15,.T.);
#296=EDGE_CURVE('',#398,#400,#472,.T.);
#297=EDGE_CURVE('',#401,#400,#473,.T.);
#298=EDGE_CURVE('',#399,#401,#474,.T.);
#299=EDGE_CURVE('',#402,#400,#16,.T.);
#300=EDGE_CURVE('',#403,#402,#475,.T.);
#301=EDGE_CURVE('',#403,#401,#17,.T.);
#302=EDGE_CURVE('',#404,#402,#476,.T.);
#303=EDGE_CURVE('',#405,#404,#477,.T.);
#304=EDGE_CURVE('',#405,#403,#478,.T.);
#305=EDGE_CURVE('',#406,#404,#18,.T.);
#306=EDGE_CURVE('',#407,#406,#479,.T.);
#307=EDGE_CURVE('',#407,#405,#19,.T.);
#308=EDGE_CURVE('',#408,#409,#20,.T.);
#309=EDGE_CURVE('',#410,#408,#480,.T.);
#310=EDGE_CURVE('',#410,#411,#21,.T.);
#311=EDGE_CURVE('',#411,#409,#481,.T.);
#312=EDGE_CURVE('',#408,#412,#482,.T.);
#313=EDGE_CURVE('',#413,#412,#483,.T.);
#314=EDGE_CURVE('',#410,#413,#484,.T.);
#315=EDGE_CURVE('',#414,#412,#22,.T.);
#316=EDGE_CURVE('',#415,#414,#485,.T.);
#317=EDGE_CURVE('',#415,#413,#23,.T.);
#318=EDGE_CURVE('',#414,#416,#486,.T.);
#319=EDGE_CURVE('',#417,#416,#487,.T.);
#320=EDGE_CURVE('',#415,#417,#488,.T.);
#321=EDGE_CURVE('',#418,#416,#24,.T.);
#322=EDGE_CURVE('',#419,#418,#489,.T.);
#323=EDGE_CURVE('',#419,#417,#25,.T.);
#324=EDGE_CURVE('',#420,#418,#490,.T.);
#325=EDGE_CURVE('',#421,#420,#491,.T.);
#326=EDGE_CURVE('',#421,#419,#492,.T.);
#327=EDGE_CURVE('',#422,#420,#26,.T.);
#328=EDGE_CURVE('',#423,#422,#493,.T.);
#329=EDGE_CURVE('',#423,#421,#27,.T.);
#330=EDGE_CURVE('',#424,#425,#28,.T.);
#331=EDGE_CURVE('',#426,#424,#494,.T.);
#332=EDGE_CURVE('',#426,#427,#29,.T.);
#333=EDGE_CURVE('',#427,#425,#495,.T.);
#334=EDGE_CURVE('',#424,#428,#496,.T.);
#335=EDGE_CURVE('',#429,#428,#497,.T.);
#336=EDGE_CURVE('',#426,#429,#498,.T.);
#337=EDGE_CURVE('',#430,#428,#30,.T.);
#338=EDGE_CURVE('',#431,#430,#499,.T.);
#339=EDGE_CURVE('',#431,#429,#31,.T.);
#340=EDGE_CURVE('',#430,#432,#500,.T.);
#341=EDGE_CURVE('',#433,#432,#501,.T.);
#342=EDGE_CURVE('',#431,#433,#502,.T.);
#343=EDGE_CURVE('',#434,#432,#32,.T.);
#344=EDGE_CURVE('',#435,#434,#503,.T.);
#345=EDGE_CURVE('',#435,#433,#33,.T.);
#346=EDGE_CURVE('',#436,#434,#504,.T.);
#347=EDGE_CURVE('',#437,#436,#505,.T.);
#348=EDGE_CURVE('',#437,#435,#506,.T.);
#349=EDGE_CURVE('',#438,#436,#34,.T.);
#350=EDGE_CURVE('',#439,#438,#507,.T.);
#351=EDGE_CURVE('',#439,#437,#35,.T.);
#352=EDGE_CURVE('',#440,#441,#36,.T.);
#353=EDGE_CURVE('',#442,#440,#508,.T.);
#354=EDGE_CURVE('',#442,#443,#37,.T.);
#355=EDGE_CURVE('',#443,#441,#509,.T.);
#356=EDGE_CURVE('',#440,#444,#510,.T.);
#357=EDGE_CURVE('',#445,#444,#511,.T.);
#358=EDGE_CURVE('',#442,#445,#512,.T.);
#359=EDGE_CURVE('',#446,#444,#38,.T.);
#360=EDGE_CURVE('',#447,#446,#513,.T.);
#361=EDGE_CURVE('',#447,#445,#39,.T.);
#362=EDGE_CURVE('',#446,#448,#514,.T.);
#363=EDGE_CURVE('',#449,#448,#515,.T.);
#364=EDGE_CURVE('',#447,#449,#516,.T.);
#365=EDGE_CURVE('',#450,#448,#40,.T.);
#366=EDGE_CURVE('',#451,#450,#517,.T.);
#367=EDGE_CURVE('',#451,#449,#41,.T.);
#368=EDGE_CURVE('',#452,#450,#518,.T.);
#369=EDGE_CURVE('',#453,#452,#519,.T.);
#370=EDGE_CURVE('',#453,#451,#520,.T.);
#371=EDGE_CURVE('',#454,#452,#42,.T.);
#372=EDGE_CURVE('',#455,#454,#521,.T.);
#373=EDGE_CURVE('',#455,#453,#43,.T.);
#374=EDGE_CURVE('',#393,#406,#522,.T.);
#375=EDGE_CURVE('',#395,#407,#523,.T.);
#376=EDGE_CURVE('',#409,#422,#524,.T.);
#377=EDGE_CURVE('',#411,#423,#525,.T.);
#378=EDGE_CURVE('',#425,#438,#526,.T.);
#379=EDGE_CURVE('',#427,#439,#527,.T.);
#380=EDGE_CURVE('',#441,#454,#528,.T.);
#381=EDGE_CURVE('',#443,#455,#529,.T.);
#382=EDGE_CURVE('',#385,#390,#530,.T.);
#383=EDGE_CURVE('',#387,#391,#531,.T.);
#384=VERTEX_POINT('',#1064);
#385=VERTEX_POINT('',#1065);
#386=VERTEX_POINT('',#1067);
#387=VERTEX_POINT('',#1069);
#388=VERTEX_POINT('',#1073);
#389=VERTEX_POINT('',#1075);
#390=VERTEX_POINT('',#1079);
#391=VERTEX_POINT('',#1081);
#392=VERTEX_POINT('',#1085);
#393=VERTEX_POINT('',#1086);
#394=VERTEX_POINT('',#1088);
#395=VERTEX_POINT('',#1090);
#396=VERTEX_POINT('',#1094);
#397=VERTEX_POINT('',#1096);
#398=VERTEX_POINT('',#1100);
#399=VERTEX_POINT('',#1102);
#400=VERTEX_POINT('',#1106);
#401=VERTEX_POINT('',#1108);
#402=VERTEX_POINT('',#1112);
#403=VERTEX_POINT('',#1114);
#404=VERTEX_POINT('',#1118);
#405=VERTEX_POINT('',#1120);
#406=VERTEX_POINT('',#1124);
#407=VERTEX_POINT('',#1126);
#408=VERTEX_POINT('',#1130);
#409=VERTEX_POINT('',#1131);
#410=VERTEX_POINT('',#1133);
#411=VERTEX_POINT('',#1135);
#412=VERTEX_POINT('',#1139);
#413=VERTEX_POINT('',#1141);
#414=VERTEX_POINT('',#1145);
#415=VERTEX_POINT('',#1147);
#416=VERTEX_POINT('',#1151);
#417=VERTEX_POINT('',#1153);
#418=VERTEX_POINT('',#1157);
#419=VERTEX_POINT('',#1159);
#420=VERTEX_POINT('',#1163);
#421=VERTEX_POINT('',#1165);
#422=VERTEX_POINT('',#1169);
#423=VERTEX_POINT('',#1171);
#424=VERTEX_POINT('',#1175);
#425=VERTEX_POINT('',#1176);
#426=VERTEX_POINT('',#1178);
#427=VERTEX_POINT('',#1180);
#428=VERTEX_POINT('',#1184);
#429=VERTEX_POINT('',#1186);
#430=VERTEX_POINT('',#1190);
#431=VERTEX_POINT('',#1192);
#432=VERTEX_POINT('',#1196);
#433=VERTEX_POINT('',#1198);
#434=VERTEX_POINT('',#1202);
#435=VERTEX_POINT('',#1204);
#436=VERTEX_POINT('',#1208);
#437=VERTEX_POINT('',#1210);
#438=VERTEX_POINT('',#1214);
#439=VERTEX_POINT('',#1216);
#440=VERTEX_POINT('',#1220);
#441=VERTEX_POINT('',#1221);
#442=VERTEX_POINT('',#1223);
#443=VERTEX_POINT('',#1225);
#444=VERTEX_POINT('',#1229);
#445=VERTEX_POINT('',#1231);
#446=VERTEX_POINT('',#1235);
#447=VERTEX_POINT('',#1237);
#448=VERTEX_POINT('',#1241);
#449=VERTEX_POINT('',#1243);
#450=VERTEX_POINT('',#1247);
#451=VERTEX_POINT('',#1249);
#452=VERTEX_POINT('',#1253);
#453=VERTEX_POINT('',#1255);
#454=VERTEX_POINT('',#1259);
#455=VERTEX_POINT('',#1261);
#456=LINE('',#1063,#532);
#457=LINE('',#1066,#533);
#458=LINE('',#1068,#534);
#459=LINE('',#1070,#535);
#460=LINE('',#1072,#536);
#461=LINE('',#1074,#537);
#462=LINE('',#1076,#538);
#463=LINE('',#1078,#539);
#464=LINE('',#1080,#540);
#465=LINE('',#1082,#541);
#466=LINE('',#1087,#542);
#467=LINE('',#1091,#543);
#468=LINE('',#1093,#544);
#469=LINE('',#1095,#545);
#470=LINE('',#1097,#546);
#471=LINE('',#1101,#547);
#472=LINE('',#1105,#548);
#473=LINE('',#1107,#549);
#474=LINE('',#1109,#550);
#475=LINE('',#1113,#551);
#476=LINE('',#1117,#552);
#477=LINE('',#1119,#553);
#478=LINE('',#1121,#554);
#479=LINE('',#1125,#555);
#480=LINE('',#1132,#556);
#481=LINE('',#1136,#557);
#482=LINE('',#1138,#558);
#483=LINE('',#1140,#559);
#484=LINE('',#1142,#560);
#485=LINE('',#1146,#561);
#486=LINE('',#1150,#562);
#487=LINE('',#1152,#563);
#488=LINE('',#1154,#564);
#489=LINE('',#1158,#565);
#490=LINE('',#1162,#566);
#491=LINE('',#1164,#567);
#492=LINE('',#1166,#568);
#493=LINE('',#1170,#569);
#494=LINE('',#1177,#570);
#495=LINE('',#1181,#571);
#496=LINE('',#1183,#572);
#497=LINE('',#1185,#573);
#498=LINE('',#1187,#574);
#499=LINE('',#1191,#575);
#500=LINE('',#1195,#576);
#501=LINE('',#1197,#577);
#502=LINE('',#1199,#578);
#503=LINE('',#1203,#579);
#504=LINE('',#1207,#580);
#505=LINE('',#1209,#581);
#506=LINE('',#1211,#582);
#507=LINE('',#1215,#583);
#508=LINE('',#1222,#584);
#509=LINE('',#1226,#585);
#510=LINE('',#1228,#586);
#511=LINE('',#1230,#587);
#512=LINE('',#1232,#588);
#513=LINE('',#1236,#589);
#514=LINE('',#1240,#590);
#515=LINE('',#1242,#591);
#516=LINE('',#1244,#592);
#517=LINE('',#1248,#593);
#518=LINE('',#1252,#594);
#519=LINE('',#1254,#595);
#520=LINE('',#1256,#596);
#521=LINE('',#1260,#597);
#522=LINE('',#1264,#598);
#523=LINE('',#1265,#599);
#524=LINE('',#1267,#600);
#525=LINE('',#1268,#601);
#526=LINE('',#1270,#602);
#527=LINE('',#1271,#603);
#528=LINE('',#1273,#604);
#529=LINE('',#1274,#605);
#530=LINE('',#1276,#606);
#531=LINE('',#1277,#607);
#532=VECTOR('',#847,1.);
#533=VECTOR('',#848,1.);
#534=VECTOR('',#849,1.);
#535=VECTOR('',#850,1.);
#536=VECTOR('',#853,1.);
#537=VECTOR('',#854,1.);
#538=VECTOR('',#855,1.);
#539=VECTOR('',#858,1.);
#540=VECTOR('',#859,1.);
#541=VECTOR('',#860,1.);
#542=VECTOR('',#865,1.);
#543=VECTOR('',#868,1.);
#544=VECTOR('',#871,1.);
#545=VECTOR('',#872,1.);
#546=VECTOR('',#873,1.);
#547=VECTOR('',#878,1.);
#548=VECTOR('',#883,1.);
#549=VECTOR('',#884,1.);
#550=VECTOR('',#885,1.);
#551=VECTOR('',#890,1.);
#552=VECTOR('',#895,1.);
#553=VECTOR('',#896,1.);
#554=VECTOR('',#897,1.);
#555=VECTOR('',#902,1.);
#556=VECTOR('',#909,1.);
#557=VECTOR('',#912,1.);
#558=VECTOR('',#915,1.);
#559=VECTOR('',#916,1.);
#560=VECTOR('',#917,1.);
#561=VECTOR('',#922,1.);
#562=VECTOR('',#927,1.);
#563=VECTOR('',#928,1.);
#564=VECTOR('',#929,1.);
#565=VECTOR('',#934,1.);
#566=VECTOR('',#939,1.);
#567=VECTOR('',#940,1.);
#568=VECTOR('',#941,1.);
#569=VECTOR('',#946,1.);
#570=VECTOR('',#953,1.);
#571=VECTOR('',#956,1.);
#572=VECTOR('',#959,1.);
#573=VECTOR('',#960,1.);
#574=VECTOR('',#961,1.);
#575=VECTOR('',#966,1.);
#576=VECTOR('',#971,1.);
#577=VECTOR('',#972,1.);
#578=VECTOR('',#973,1.);
#579=VECTOR('',#978,1.);
#580=VECTOR('',#983,1.);
#581=VECTOR('',#984,1.);
#582=VECTOR('',#985,1.);
#583=VECTOR('',#990,1.);
#584=VECTOR('',#997,1.);
#585=VECTOR('',#1000,1.);
#586=VECTOR('',#1003,1.);
#587=VECTOR('',#1004,1.);
#588=VECTOR('',#1005,1.);
#589=VECTOR('',#1010,1.);
#590=VECTOR('',#1015,1.);
#591=VECTOR('',#1016,1.);
#592=VECTOR('',#1017,1.);
#593=VECTOR('',#1022,1.);
#594=VECTOR('',#1027,1.);
#595=VECTOR('',#1028,1.);
#596=VECTOR('',#1029,1.);
#597=VECTOR('',#1034,1.);
#598=VECTOR('',#1039,1.);
#599=VECTOR('',#1040,1.);
#600=VECTOR('',#1043,1.);
#601=VECTOR('',#1044,1.);
#602=VECTOR('',#1047,1.);
#603=VECTOR('',#1048,1.);
#604=VECTOR('',#1051,1.);
#605=VECTOR('',#1052,1.);
#606=VECTOR('',#1055,1.);
#607=VECTOR('',#1056,1.);
#608=EDGE_LOOP('',(#60,#61,#62,#63));
#609=EDGE_LOOP('',(#64,#65,#66,#67));
#610=EDGE_LOOP('',(#68,#69,#70,#71));
#611=EDGE_LOOP('',(#72,#73,#74,#75));
#612=EDGE_LOOP('',(#76,#77,#78,#79));
#613=EDGE_LOOP('',(#80,#81,#82,#83));
#614=EDGE_LOOP('',(#84,#85,#86,#87));
#615=EDGE_LOOP('',(#88,#89,#90,#91));
#616=EDGE_LOOP('',(#92,#93,#94,#95));
#617=EDGE_LOOP('',(#96,#97,#98,#99));
#618=EDGE_LOOP('',(#100,#101,#102,#103));
#619=EDGE_LOOP('',(#104,#105,#106,#107));
#620=EDGE_LOOP('',(#108,#109,#110,#111));
#621=EDGE_LOOP('',(#112,#113,#114,#115));
#622=EDGE_LOOP('',(#116,#117,#118,#119));
#623=EDGE_LOOP('',(#120,#121,#122,#123));
#624=EDGE_LOOP('',(#124,#125,#126,#127));
#625=EDGE_LOOP('',(#128,#129,#130,#131));
#626=EDGE_LOOP('',(#132,#133,#134,#135));
#627=EDGE_LOOP('',(#136,#137,#138,#139));
#628=EDGE_LOOP('',(#140,#141,#142,#143));
#629=EDGE_LOOP('',(#144,#145,#146,#147));
#630=EDGE_LOOP('',(#148,#149,#150,#151));
#631=EDGE_LOOP('',(#152,#153,#154,#155));
#632=EDGE_LOOP('',(#156,#157,#158,#159));
#633=EDGE_LOOP('',(#160,#161,#162,#163));
#634=EDGE_LOOP('',(#164,#165,#166,#167));
#635=EDGE_LOOP('',(#168,#169,#170,#171));
#636=EDGE_LOOP('',(#172,#173,#174,#175));
#637=EDGE_LOOP('',(#176,#177,#178,#179));
#638=EDGE_LOOP('',(#180,#181,#182,#183));
#639=EDGE_LOOP('',(#184,#185,#186,#187));
#640=EDGE_LOOP('',(#188,#189,#190,#191));
#641=EDGE_LOOP('',(#192,#193,#194,#195));
#642=EDGE_LOOP('',(#196,#197,#198,#199));
#643=EDGE_LOOP('',(#200,#201,#202,#203));
#644=EDGE_LOOP('',(#204,#205,#206,#207,#208,#209,#210,#211));
#645=EDGE_LOOP('',(#212,#213,#214,#215,#216,#217,#218,#219));
#646=EDGE_LOOP('',(#220,#221,#222,#223,#224,#225,#226,#227));
#647=EDGE_LOOP('',(#228,#229,#230,#231,#232,#233,#234,#235));
#648=EDGE_LOOP('',(#236,#237,#238,#239));
#649=EDGE_LOOP('',(#240,#241,#242,#243,#244,#245,#246,#247));
#650=EDGE_LOOP('',(#248,#249,#250,#251,#252,#253,#254,#255));
#651=EDGE_LOOP('',(#256,#257,#258,#259,#260,#261,#262,#263));
#652=EDGE_LOOP('',(#264,#265,#266,#267,#268,#269,#270,#271));
#653=EDGE_LOOP('',(#272,#273,#274,#275));
#654=FACE_BOUND('',#608,.T.);
#655=FACE_BOUND('',#609,.T.);
#656=FACE_BOUND('',#610,.T.);
#657=FACE_BOUND('',#611,.T.);
#658=FACE_BOUND('',#612,.T.);
#659=FACE_BOUND('',#613,.T.);
#660=FACE_BOUND('',#614,.T.);
#661=FACE_BOUND('',#615,.T.);
#662=FACE_BOUND('',#616,.T.);
#663=FACE_BOUND('',#617,.T.);
#664=FACE_BOUND('',#618,.T.);
#665=FACE_BOUND('',#619,.T.);
#666=FACE_BOUND('',#620,.T.);
#667=FACE_BOUND('',#621,.T.);
#668=FACE_BOUND('',#622,.T.);
#669=FACE_BOUND('',#623,.T.);
#670=FACE_BOUND('',#624,.T.);
#671=FACE_BOUND('',#625,.T.);
#672=FACE_BOUND('',#626,.T.);
#673=FACE_BOUND('',#627,.T.);
#674=FACE_BOUND('',#628,.T.);
#675=FACE_BOUND('',#629,.T.);
#676=FACE_BOUND('',#630,.T.);
#677=FACE_BOUND('',#631,.T.);
#678=FACE_BOUND('',#632,.T.);
#679=FACE_BOUND('',#633,.T.);
#680=FACE_BOUND('',#634,.T.);
#681=FACE_BOUND('',#635,.T.);
#682=FACE_BOUND('',#636,.T.);
#683=FACE_BOUND('',#637,.T.);
#684=FACE_BOUND('',#638,.T.);
#685=FACE_BOUND('',#639,.T.);
#686=FACE_BOUND('',#640,.T.);
#687=FACE_BOUND('',#641,.T.);
#688=FACE_BOUND('',#642,.T.);
#689=FACE_BOUND('',#643,.T.);
#690=FACE_BOUND('',#644,.T.);
#691=FACE_BOUND('',#645,.T.);
#692=FACE_BOUND('',#646,.T.);
#693=FACE_BOUND('',#647,.T.);
#694=FACE_BOUND('',#648,.T.);
#695=FACE_BOUND('',#649,.T.);
#696=FACE_BOUND('',#650,.T.);
#697=FACE_BOUND('',#651,.T.);
#698=FACE_BOUND('',#652,.T.);
#699=FACE_BOUND('',#653,.T.);
#700=PLANE('',#773);
#701=PLANE('',#774);
#702=PLANE('',#775);
#703=PLANE('',#779);
#704=PLANE('',#783);
#705=PLANE('',#787);
#706=PLANE('',#794);
#707=PLANE('',#798);
#708=PLANE('',#802);
#709=PLANE('',#809);
#710=PLANE('',#813);
#711=PLANE('',#817);
#712=PLANE('',#824);
#713=PLANE('',#828);
#714=PLANE('',#832);
#715=PLANE('',#836);
#716=PLANE('',#837);
#717=PLANE('',#838);
#718=PLANE('',#839);
#719=PLANE('',#840);
#720=PLANE('',#841);
#721=PLANE('',#842);
#722=ADVANCED_FACE('',(#654),#700,.T.);
#723=ADVANCED_FACE('',(#655),#701,.F.);
#724=ADVANCED_FACE('',(#656),#702,.F.);
#725=ADVANCED_FACE('',(#657),#44,.F.);
#726=ADVANCED_FACE('',(#658),#703,.F.);
#727=ADVANCED_FACE('',(#659),#45,.F.);
#728=ADVANCED_FACE('',(#660),#704,.F.);
#729=ADVANCED_FACE('',(#661),#46,.F.);
#730=ADVANCED_FACE('',(#662),#705,.T.);
#731=ADVANCED_FACE('',(#663),#47,.F.);
#732=ADVANCED_FACE('',(#664),#48,.F.);
#733=ADVANCED_FACE('',(#665),#706,.F.);
#734=ADVANCED_FACE('',(#666),#49,.F.);
#735=ADVANCED_FACE('',(#667),#707,.F.);
#736=ADVANCED_FACE('',(#668),#50,.F.);
#737=ADVANCED_FACE('',(#669),#708,.T.);
#738=ADVANCED_FACE('',(#670),#51,.F.);
#739=ADVANCED_FACE('',(#671),#52,.F.);
#740=ADVANCED_FACE('',(#672),#709,.F.);
#741=ADVANCED_FACE('',(#673),#53,.F.);
#742=ADVANCED_FACE('',(#674),#710,.F.);
#743=ADVANCED_FACE('',(#675),#54,.F.);
#744=ADVANCED_FACE('',(#676),#711,.T.);
#745=ADVANCED_FACE('',(#677),#55,.F.);
#746=ADVANCED_FACE('',(#678),#56,.F.);
#747=ADVANCED_FACE('',(#679),#712,.F.);
#748=ADVANCED_FACE('',(#680),#57,.F.);
#749=ADVANCED_FACE('',(#681),#713,.F.);
#750=ADVANCED_FACE('',(#682),#58,.F.);
#751=ADVANCED_FACE('',(#683),#714,.T.);
#752=ADVANCED_FACE('',(#684),#59,.F.);
#753=ADVANCED_FACE('',(#685),#715,.T.);
#754=ADVANCED_FACE('',(#686),#716,.T.);
#755=ADVANCED_FACE('',(#687),#717,.T.);
#756=ADVANCED_FACE('',(#688),#718,.T.);
#757=ADVANCED_FACE('',(#689),#719,.T.);
#758=ADVANCED_FACE('',(#690,#691,#692,#693,#694),#720,.T.);
#759=ADVANCED_FACE('',(#695,#696,#697,#698,#699),#721,.F.);
#760=CLOSED_SHELL('',(#722,#723,#724,#725,#726,#727,#728,#729,#730,#731,
#732,#733,#734,#735,#736,#737,#738,#739,#740,#741,#742,#743,#744,#745,#746,
#747,#748,#749,#750,#751,#752,#753,#754,#755,#756,#757,#758,#759));
#761=STYLED_ITEM('',(#762),#769);
#762=PRESENTATION_STYLE_ASSIGNMENT((#763));
#763=SURFACE_STYLE_USAGE(.BOTH.,#764);
#764=SURFACE_SIDE_STYLE('',(#765));
#765=SURFACE_STYLE_FILL_AREA(#766);
#766=FILL_AREA_STYLE('',(#767));
#767=FILL_AREA_STYLE_COLOUR('',#768);
#768=COLOUR_RGB('',0.647058823529412,0.647058823529412,0.647058823529412);
#769=MANIFOLD_SOLID_BREP('Part 2',#760);
#770=SHAPE_DEFINITION_REPRESENTATION(#1286,#771);
#771=SHAPE_REPRESENTATION('Part 2',(#772),#1281);
#772=AXIS2_PLACEMENT_3D('',#1061,#843,#844);
#773=AXIS2_PLACEMENT_3D('',#1062,#845,#846);
#774=AXIS2_PLACEMENT_3D('',#1071,#851,#852);
#775=AXIS2_PLACEMENT_3D('',#1077,#856,#857);
#776=AXIS2_PLACEMENT_3D('',#1083,#861,#862);
#777=AXIS2_PLACEMENT_3D('',#1084,#863,#864);
#778=AXIS2_PLACEMENT_3D('',#1089,#866,#867);
#779=AXIS2_PLACEMENT_3D('',#1092,#869,#870);
#780=AXIS2_PLACEMENT_3D('',#1098,#874,#875);
#781=AXIS2_PLACEMENT_3D('',#1099,#876,#877);
#782=AXIS2_PLACEMENT_3D('',#1103,#879,#880);
#783=AXIS2_PLACEMENT_3D('',#1104,#881,#882);
#784=AXIS2_PLACEMENT_3D('',#1110,#886,#887);
#785=AXIS2_PLACEMENT_3D('',#1111,#888,#889);
#786=AXIS2_PLACEMENT_3D('',#1115,#891,#892);
#787=AXIS2_PLACEMENT_3D('',#1116,#893,#894);
#788=AXIS2_PLACEMENT_3D('',#1122,#898,#899);
#789=AXIS2_PLACEMENT_3D('',#1123,#900,#901);
#790=AXIS2_PLACEMENT_3D('',#1127,#903,#904);
#791=AXIS2_PLACEMENT_3D('',#1128,#905,#906);
#792=AXIS2_PLACEMENT_3D('',#1129,#907,#908);
#793=AXIS2_PLACEMENT_3D('',#1134,#910,#911);
#794=AXIS2_PLACEMENT_3D('',#1137,#913,#914);
#795=AXIS2_PLACEMENT_3D('',#1143,#918,#919);
#796=AXIS2_PLACEMENT_3D('',#1144,#920,#921);
#797=AXIS2_PLACEMENT_3D('',#1148,#923,#924);
#798=AXIS2_PLACEMENT_3D('',#1149,#925,#926);
#799=AXIS2_PLACEMENT_3D('',#1155,#930,#931);
#800=AXIS2_PLACEMENT_3D('',#1156,#932,#933);
#801=AXIS2_PLACEMENT_3D('',#1160,#935,#936);
#802=AXIS2_PLACEMENT_3D('',#1161,#937,#938);
#803=AXIS2_PLACEMENT_3D('',#1167,#942,#943);
#804=AXIS2_PLACEMENT_3D('',#1168,#944,#945);
#805=AXIS2_PLACEMENT_3D('',#1172,#947,#948);
#806=AXIS2_PLACEMENT_3D('',#1173,#949,#950);
#807=AXIS2_PLACEMENT_3D('',#1174,#951,#952);
#808=AXIS2_PLACEMENT_3D('',#1179,#954,#955);
#809=AXIS2_PLACEMENT_3D('',#1182,#957,#958);
#810=AXIS2_PLACEMENT_3D('',#1188,#962,#963);
#811=AXIS2_PLACEMENT_3D('',#1189,#964,#965);
#812=AXIS2_PLACEMENT_3D('',#1193,#967,#968);
#813=AXIS2_PLACEMENT_3D('',#1194,#969,#970);
#814=AXIS2_PLACEMENT_3D('',#1200,#974,#975);
#815=AXIS2_PLACEMENT_3D('',#1201,#976,#977);
#816=AXIS2_PLACEMENT_3D('',#1205,#979,#980);
#817=AXIS2_PLACEMENT_3D('',#1206,#981,#982);
#818=AXIS2_PLACEMENT_3D('',#1212,#986,#987);
#819=AXIS2_PLACEMENT_3D('',#1213,#988,#989);
#820=AXIS2_PLACEMENT_3D('',#1217,#991,#992);
#821=AXIS2_PLACEMENT_3D('',#1218,#993,#994);
#822=AXIS2_PLACEMENT_3D('',#1219,#995,#996);
#823=AXIS2_PLACEMENT_3D('',#1224,#998,#999);
#824=AXIS2_PLACEMENT_3D('',#1227,#1001,#1002);
#825=AXIS2_PLACEMENT_3D('',#1233,#1006,#1007);
#826=AXIS2_PLACEMENT_3D('',#1234,#1008,#1009);
#827=AXIS2_PLACEMENT_3D('',#1238,#1011,#1012);
#828=AXIS2_PLACEMENT_3D('',#1239,#1013,#1014);
#829=AXIS2_PLACEMENT_3D('',#1245,#1018,#1019);
#830=AXIS2_PLACEMENT_3D('',#1246,#1020,#1021);
#831=AXIS2_PLACEMENT_3D('',#1250,#1023,#1024);
#832=AXIS2_PLACEMENT_3D('',#1251,#1025,#1026);
#833=AXIS2_PLACEMENT_3D('',#1257,#1030,#1031);
#834=AXIS2_PLACEMENT_3D('',#1258,#1032,#1033);
#835=AXIS2_PLACEMENT_3D('',#1262,#1035,#1036);
#836=AXIS2_PLACEMENT_3D('',#1263,#1037,#1038);
#837=AXIS2_PLACEMENT_3D('',#1266,#1041,#1042);
#838=AXIS2_PLACEMENT_3D('',#1269,#1045,#1046);
#839=AXIS2_PLACEMENT_3D('',#1272,#1049,#1050);
#840=AXIS2_PLACEMENT_3D('',#1275,#1053,#1054);
#841=AXIS2_PLACEMENT_3D('',#1278,#1057,#1058);
#842=AXIS2_PLACEMENT_3D('',#1279,#1059,#1060);
#843=DIRECTION('',(0.,0.,1.));
#844=DIRECTION('',(1.,0.,0.));
#845=DIRECTION('',(0.,1.,0.));
#846=DIRECTION('',(0.,0.,1.));
#847=DIRECTION('',(1.,0.,0.));
#848=DIRECTION('',(0.,0.,-1.));
#849=DIRECTION('',(1.,0.,0.));
#850=DIRECTION('',(0.,0.,-1.));
#851=DIRECTION('',(1.,0.,0.));
#852=DIRECTION('',(0.,0.,-1.));
#853=DIRECTION('',(0.,-1.,0.));
#854=DIRECTION('',(0.,0.,-1.));
#855=DIRECTION('',(0.,-1.,0.));
#856=DIRECTION('',(0.,1.,0.));
#857=DIRECTION('',(0.,0.,1.));
#858=DIRECTION('',(1.,0.,0.));
#859=DIRECTION('',(0.,0.,-1.));
#860=DIRECTION('',(1.,0.,0.));
#861=DIRECTION('',(0.,0.,-1.));
#862=DIRECTION('',(-1.,0.,0.));
#863=DIRECTION('',(0.,0.,1.));
#864=DIRECTION('',(1.,0.,0.));
#865=DIRECTION('',(0.,0.,-1.));
#866=DIRECTION('',(0.,0.,1.));
#867=DIRECTION('',(1.,0.,0.));
#868=DIRECTION('',(0.,0.,-1.));
#869=DIRECTION('',(0.,1.,0.));
#870=DIRECTION('',(0.,0.,1.));
#871=DIRECTION('',(1.,0.,0.));
#872=DIRECTION('',(0.,0.,-1.));
#873=DIRECTION('',(1.,0.,0.));
#874=DIRECTION('',(0.,0.,-1.));
#875=DIRECTION('',(-1.,0.,0.));
#876=DIRECTION('',(0.,0.,1.));
#877=DIRECTION('',(1.,0.,0.));
#878=DIRECTION('',(0.,0.,-1.));
#879=DIRECTION('',(0.,0.,1.));
#880=DIRECTION('',(1.,0.,0.));
#881=DIRECTION('',(1.,0.,0.));
#882=DIRECTION('',(0.,0.,-1.));
#883=DIRECTION('',(0.,-1.,0.));
#884=DIRECTION('',(0.,0.,-1.));
#885=DIRECTION('',(0.,-1.,0.));
#886=DIRECTION('',(0.,0.,-1.));
#887=DIRECTION('',(-1.,0.,0.));
#888=DIRECTION('',(0.,0.,1.));
#889=DIRECTION('',(1.,0.,0.));
#890=DIRECTION('',(0.,0.,-1.));
#891=DIRECTION('',(0.,0.,1.));
#892=DIRECTION('',(1.,0.,0.));
#893=DIRECTION('',(0.,1.,0.));
#894=DIRECTION('',(0.,0.,1.));
#895=DIRECTION('',(1.,0.,0.));
#896=DIRECTION('',(0.,0.,-1.));
#897=DIRECTION('',(1.,0.,0.));
#898=DIRECTION('',(0.,0.,-1.));
#899=DIRECTION('',(-1.,0.,0.));
#900=DIRECTION('',(0.,0.,1.));
#901=DIRECTION('',(1.,0.,0.));
#902=DIRECTION('',(0.,0.,-1.));
#903=DIRECTION('',(0.,0.,1.));
#904=DIRECTION('',(1.,0.,0.));
#905=DIRECTION('',(0.,0.,-1.));
#906=DIRECTION('',(-1.,0.,0.));
#907=DIRECTION('',(0.,0.,1.));
#908=DIRECTION('',(1.,0.,0.));
#909=DIRECTION('',(0.,0.,-1.));
#910=DIRECTION('',(0.,0.,1.));
#911=DIRECTION('',(1.,0.,0.));
#912=DIRECTION('',(0.,0.,-1.));
#913=DIRECTION('',(0.,1.,0.));
#914=DIRECTION('',(0.,0.,1.));
#915=DIRECTION('',(1.,0.,0.));
#916=DIRECTION('',(0.,0.,-1.));
#917=DIRECTION('',(1.,0.,0.));
#918=DIRECTION('',(0.,0.,-1.));
#919=DIRECTION('',(-1.,0.,0.));
#920=DIRECTION('',(0.,0.,1.));
#921=DIRECTION('',(1.,0.,0.));
#922=DIRECTION('',(0.,0.,-1.));
#923=DIRECTION('',(0.,0.,1.));
#924=DIRECTION('',(1.,0.,0.));
#925=DIRECTION('',(1.,0.,0.));
#926=DIRECTION('',(0.,0.,-1.));
#927=DIRECTION('',(0.,-1.,0.));
#928=DIRECTION('',(0.,0.,-1.));
#929=DIRECTION('',(0.,-1.,0.));
#930=DIRECTION('',(0.,0.,-1.));
#931=DIRECTION('',(-1.,0.,0.));
#932=DIRECTION('',(0.,0.,1.));
#933=DIRECTION('',(1.,0.,0.));
#934=DIRECTION('',(0.,0.,-1.));
#935=DIRECTION('',(0.,0.,1.));
#936=DIRECTION('',(1.,0.,0.));
#937=DIRECTION('',(0.,1.,0.));
#938=DIRECTION('',(0.,0.,1.));
#939=DIRECTION('',(1.,0.,0.));
#940=DIRECTION('',(0.,0.,-1.));
#941=DIRECTION('',(1.,0.,0.));
#942=DIRECTION('',(0.,0.,-1.));
#943=DIRECTION('',(-1.,0.,0.));
#944=DIRECTION('',(0.,0.,1.));
#945=DIRECTION('',(1.,0.,0.));
#946=DIRECTION('',(0.,0.,-1.));
#947=DIRECTION('',(0.,0.,1.));
#948=DIRECTION('',(1.,0.,0.));
#949=DIRECTION('',(0.,0.,-1.));
#950=DIRECTION('',(-1.,0.,0.));
#951=DIRECTION('',(0.,0.,1.));
#952=DIRECTION('',(1.,0.,0.));
#953=DIRECTION('',(0.,0.,-1.));
#954=DIRECTION('',(0.,0.,1.));
#955=DIRECTION('',(1.,0.,0.));
#956=DIRECTION('',(0.,0.,-1.));
#957=DIRECTION('',(0.,1.,0.));
#958=DIRECTION('',(0.,0.,1.));
#959=DIRECTION('',(1.,0.,0.));
#960=DIRECTION('',(0.,0.,-1.));
#961=DIRECTION('',(1.,0.,0.));
#962=DIRECTION('',(0.,0.,-1.));
#963=DIRECTION('',(-1.,0.,0.));
#964=DIRECTION('',(0.,0.,1.));
#965=DIRECTION('',(1.,0.,0.));
#966=DIRECTION('',(0.,0.,-1.));
#967=DIRECTION('',(0.,0.,1.));
#968=DIRECTION('',(1.,0.,0.));
#969=DIRECTION('',(1.,0.,0.));
#970=DIRECTION('',(0.,0.,-1.));
#971=DIRECTION('',(0.,-1.,0.));
#972=DIRECTION('',(0.,0.,-1.));
#973=DIRECTION('',(0.,-1.,0.));
#974=DIRECTION('',(0.,0.,-1.));
#975=DIRECTION('',(-1.,0.,0.));
#976=DIRECTION('',(0.,0.,1.));
#977=DIRECTION('',(1.,0.,0.));
#978=DIRECTION('',(0.,0.,-1.));
#979=DIRECTION('',(0.,0.,1.));
#980=DIRECTION('',(1.,0.,0.));
#981=DIRECTION('',(0.,1.,0.));
#982=DIRECTION('',(0.,0.,1.));
#983=DIRECTION('',(1.,0.,0.));
#984=DIRECTION('',(0.,0.,-1.));
#985=DIRECTION('',(1.,0.,0.));
#986=DIRECTION('',(0.,0.,-1.));
#987=DIRECTION('',(-1.,0.,0.));
#988=DIRECTION('',(0.,0.,1.));
#989=DIRECTION('',(1.,0.,0.));
#990=DIRECTION('',(0.,0.,-1.));
#991=DIRECTION('',(0.,0.,1.));
#992=DIRECTION('',(1.,0.,0.));
#993=DIRECTION('',(0.,0.,-1.));
#994=DIRECTION('',(-1.,0.,0.));
#995=DIRECTION('',(0.,0.,1.));
#996=DIRECTION('',(1.,0.,0.));
#997=DIRECTION('',(0.,0.,-1.));
#998=DIRECTION('',(0.,0.,1.));
#999=DIRECTION('',(1.,0.,0.));
#1000=DIRECTION('',(0.,0.,-1.));
#1001=DIRECTION('',(0.,1.,0.));
#1002=DIRECTION('',(0.,0.,1.));
#1003=DIRECTION('',(1.,0.,0.));
#1004=DIRECTION('',(0.,0.,-1.));
#1005=DIRECTION('',(1.,0.,0.));
#1006=DIRECTION('',(0.,0.,-1.));
#1007=DIRECTION('',(-1.,0.,0.));
#1008=DIRECTION('',(0.,0.,1.));
#1009=DIRECTION('',(1.,0.,0.));
#1010=DIRECTION('',(0.,0.,-1.));
#1011=DIRECTION('',(0.,0.,1.));
#1012=DIRECTION('',(1.,0.,0.));
#1013=DIRECTION('',(1.,0.,0.));
#1014=DIRECTION('',(0.,0.,-1.));
#1015=DIRECTION('',(0.,-1.,0.));
#1016=DIRECTION('',(0.,0.,-1.));
#1017=DIRECTION('',(0.,-1.,0.));
#1018=DIRECTION('',(0.,0.,-1.));
#1019=DIRECTION('',(-1.,0.,0.));
#1020=DIRECTION('',(0.,0.,1.));
#1021=DIRECTION('',(1.,0.,0.));
#1022=DIRECTION('',(0.,0.,-1.));
#1023=DIRECTION('',(0.,0.,1.));
#1024=DIRECTION('',(1.,0.,0.));
#1025=DIRECTION('',(0.,1.,0.));
#1026=DIRECTION('',(0.,0.,1.));
#1027=DIRECTION('',(1.,0.,0.));
#1028=DIRECTION('',(0.,0.,-1.));
#1029=DIRECTION('',(1.,0.,0.));
#1030=DIRECTION('',(0.,0.,-1.));
#1031=DIRECTION('',(-1.,0.,0.));
#1032=DIRECTION('',(0.,0.,1.));
#1033=DIRECTION('',(1.,0.,0.));
#1034=DIRECTION('',(0.,0.,-1.));
#1035=DIRECTION('',(0.,0.,1.));
#1036=DIRECTION('',(1.,0.,0.));
#1037=DIRECTION('',(1.,0.,0.));
#1038=DIRECTION('',(0.,0.,-1.));
#1039=DIRECTION('',(0.,-1.,0.));
#1040=DIRECTION('',(0.,-1.,0.));
#1041=DIRECTION('',(1.,0.,0.));
#1042=DIRECTION('',(0.,0.,-1.));
#1043=DIRECTION('',(0.,-1.,0.));
#1044=DIRECTION('',(0.,-1.,0.));
#1045=DIRECTION('',(1.,0.,0.));
#1046=DIRECTION('',(0.,0.,-1.));
#1047=DIRECTION('',(0.,-1.,0.));
#1048=DIRECTION('',(0.,-1.,0.));
#1049=DIRECTION('',(1.,0.,0.));
#1050=DIRECTION('',(0.,0.,-1.));
#1051=DIRECTION('',(0.,-1.,0.));
#1052=DIRECTION('',(0.,-1.,0.));
#1053=DIRECTION('',(1.,0.,0.));
#1054=DIRECTION('',(0.,0.,-1.));
#1055=DIRECTION('',(0.,-1.,0.));
#1056=DIRECTION('',(0.,-1.,0.));
#1057=DIRECTION('',(0.,0.,1.));
#1058=DIRECTION('',(1.,0.,0.));
#1059=DIRECTION('',(0.,0.,1.));
#1060=DIRECTION('',(1.,0.,0.));
#1061=CARTESIAN_POINT('',(0.,0.,0.));
#1062=CARTESIAN_POINT('',(0.,0.0147,0.016));
#1063=CARTESIAN_POINT('',(0.,0.0147,0.013));
#1064=CARTESIAN_POINT('',(-0.0412,0.0147,0.013));
#1065=CARTESIAN_POINT('',(0.0412,0.0147,0.013));
#1066=CARTESIAN_POINT('',(-0.0412,0.0147,0.016));
#1067=CARTESIAN_POINT('',(-0.0412,0.0147,0.016));
#1068=CARTESIAN_POINT('',(0.,0.0147,0.016));
#1069=CARTESIAN_POINT('',(0.0412,0.0147,0.016));
#1070=CARTESIAN_POINT('',(0.0412,0.0147,0.016));
#1071=CARTESIAN_POINT('',(-0.0412,-1.7347234759768E-18,0.016));
#1072=CARTESIAN_POINT('',(-0.0412,-1.7347234759768E-18,0.013));
#1073=CARTESIAN_POINT('',(-0.0412,-0.0147,0.013));
#1074=CARTESIAN_POINT('',(-0.0412,-0.0147,0.016));
#1075=CARTESIAN_POINT('',(-0.0412,-0.0147,0.016));
#1076=CARTESIAN_POINT('',(-0.0412,-1.7347234759768E-18,0.016));
#1077=CARTESIAN_POINT('',(0.,-0.0147,0.016));
#1078=CARTESIAN_POINT('',(0.,-0.0147,0.013));
#1079=CARTESIAN_POINT('',(0.0412,-0.0147,0.013));
#1080=CARTESIAN_POINT('',(0.0412,-0.0147,0.016));
#1081=CARTESIAN_POINT('',(0.0412,-0.0147,0.016));
#1082=CARTESIAN_POINT('',(0.,-0.0147,0.016));
#1083=CARTESIAN_POINT('',(0.022075,0.0065,0.016));
#1084=CARTESIAN_POINT('',(0.022075,0.0065,0.013));
#1085=CARTESIAN_POINT('',(0.022075,0.007,0.013));
#1086=CARTESIAN_POINT('',(0.021575,0.0065,0.013));
#1087=CARTESIAN_POINT('',(0.022075,0.007,0.016));
#1088=CARTESIAN_POINT('',(0.022075,0.007,0.016));
#1089=CARTESIAN_POINT('',(0.022075,0.0065,0.016));
#1090=CARTESIAN_POINT('',(0.021575,0.0065,0.016));
#1091=CARTESIAN_POINT('',(0.021575,0.0065,0.016));
#1092=CARTESIAN_POINT('',(0.028575,0.007,0.016));
#1093=CARTESIAN_POINT('',(0.028575,0.007,0.013));
#1094=CARTESIAN_POINT('',(0.035075,0.007,0.013));
#1095=CARTESIAN_POINT('',(0.035075,0.007,0.016));
#1096=CARTESIAN_POINT('',(0.035075,0.007,0.016));
#1097=CARTESIAN_POINT('',(0.028575,0.007,0.016));
#1098=CARTESIAN_POINT('',(0.035075,0.0065,0.016));
#1099=CARTESIAN_POINT('',(0.035075,0.0065,0.013));
#1100=CARTESIAN_POINT('',(0.035575,0.0065,0.013));
#1101=CARTESIAN_POINT('',(0.035575,0.0065,0.016));
#1102=CARTESIAN_POINT('',(0.035575,0.0065,0.016));
#1103=CARTESIAN_POINT('',(0.035075,0.0065,0.016));
#1104=CARTESIAN_POINT('',(0.035575,1.7347234759768E-18,0.016));
#1105=CARTESIAN_POINT('',(0.035575,1.7347234759768E-18,0.013));
#1106=CARTESIAN_POINT('',(0.035575,-0.0065,0.013));
#1107=CARTESIAN_POINT('',(0.035575,-0.0065,0.016));
#1108=CARTESIAN_POINT('',(0.035575,-0.0065,0.016));
#1109=CARTESIAN_POINT('',(0.035575,1.7347234759768E-18,0.016));
#1110=CARTESIAN_POINT('',(0.035075,-0.0065,0.016));
#1111=CARTESIAN_POINT('',(0.035075,-0.0065,0.013));
#1112=CARTESIAN_POINT('',(0.035075,-0.007,0.013));
#1113=CARTESIAN_POINT('',(0.035075,-0.007,0.016));
#1114=CARTESIAN_POINT('',(0.035075,-0.007,0.016));
#1115=CARTESIAN_POINT('',(0.035075,-0.0065,0.016));
#1116=CARTESIAN_POINT('',(0.028575,-0.007,0.016));
#1117=CARTESIAN_POINT('',(0.028575,-0.007,0.013));
#1118=CARTESIAN_POINT('',(0.022075,-0.007,0.013));
#1119=CARTESIAN_POINT('',(0.022075,-0.007,0.016));
#1120=CARTESIAN_POINT('',(0.022075,-0.007,0.016));
#1121=CARTESIAN_POINT('',(0.028575,-0.007,0.016));
#1122=CARTESIAN_POINT('',(0.022075,-0.0065,0.016));
#1123=CARTESIAN_POINT('',(0.022075,-0.0065,0.013));
#1124=CARTESIAN_POINT('',(0.021575,-0.0065,0.013));
#1125=CARTESIAN_POINT('',(0.021575,-0.0065,0.016));
#1126=CARTESIAN_POINT('',(0.021575,-0.0065,0.016));
#1127=CARTESIAN_POINT('',(0.022075,-0.0065,0.016));
#1128=CARTESIAN_POINT('',(0.003025,0.0065,0.016));
#1129=CARTESIAN_POINT('',(0.003025,0.0065,0.013));
#1130=CARTESIAN_POINT('',(0.003025,0.007,0.013));
#1131=CARTESIAN_POINT('',(0.002525,0.0065,0.013));
#1132=CARTESIAN_POINT('',(0.003025,0.007,0.016));
#1133=CARTESIAN_POINT('',(0.003025,0.007,0.016));
#1134=CARTESIAN_POINT('',(0.003025,0.0065,0.016));
#1135=CARTESIAN_POINT('',(0.002525,0.0065,0.016));
#1136=CARTESIAN_POINT('',(0.002525,0.0065,0.016));
#1137=CARTESIAN_POINT('',(0.009525,0.007,0.016));
#1138=CARTESIAN_POINT('',(0.009525,0.007,0.013));
#1139=CARTESIAN_POINT('',(0.016025,0.007,0.013));
#1140=CARTESIAN_POINT('',(0.016025,0.007,0.016));
#1141=CARTESIAN_POINT('',(0.016025,0.007,0.016));
#1142=CARTESIAN_POINT('',(0.009525,0.007,0.016));
#1143=CARTESIAN_POINT('',(0.016025,0.0065,0.016));
#1144=CARTESIAN_POINT('',(0.016025,0.0065,0.013));
#1145=CARTESIAN_POINT('',(0.016525,0.0065,0.013));
#1146=CARTESIAN_POINT('',(0.016525,0.0065,0.016));
#1147=CARTESIAN_POINT('',(0.016525,0.0065,0.016));
#1148=CARTESIAN_POINT('',(0.016025,0.0065,0.016));
#1149=CARTESIAN_POINT('',(0.016525,1.7347234759768E-18,0.016));
#1150=CARTESIAN_POINT('',(0.016525,1.7347234759768E-18,0.013));
#1151=CARTESIAN_POINT('',(0.016525,-0.0065,0.013));
#1152=CARTESIAN_POINT('',(0.016525,-0.0065,0.016));
#1153=CARTESIAN_POINT('',(0.016525,-0.0065,0.016));
#1154=CARTESIAN_POINT('',(0.016525,1.7347234759768E-18,0.016));
#1155=CARTESIAN_POINT('',(0.016025,-0.0065,0.016));
#1156=CARTESIAN_POINT('',(0.016025,-0.0065,0.013));
#1157=CARTESIAN_POINT('',(0.016025,-0.007,0.013));
#1158=CARTESIAN_POINT('',(0.016025,-0.007,0.016));
#1159=CARTESIAN_POINT('',(0.016025,-0.007,0.016));
#1160=CARTESIAN_POINT('',(0.016025,-0.0065,0.016));
#1161=CARTESIAN_POINT('',(0.009525,-0.007,0.016));
#1162=CARTESIAN_POINT('',(0.009525,-0.007,0.013));
#1163=CARTESIAN_POINT('',(0.003025,-0.007,0.013));
#1164=CARTESIAN_POINT('',(0.003025,-0.007,0.016));
#1165=CARTESIAN_POINT('',(0.003025,-0.007,0.016));
#1166=CARTESIAN_POINT('',(0.009525,-0.007,0.016));
#1167=CARTESIAN_POINT('',(0.003025,-0.0065,0.016));
#1168=CARTESIAN_POINT('',(0.003025,-0.0065,0.013));
#1169=CARTESIAN_POINT('',(0.002525,-0.0065,0.013));
#1170=CARTESIAN_POINT('',(0.002525,-0.0065,0.016));
#1171=CARTESIAN_POINT('',(0.002525,-0.0065,0.016));
#1172=CARTESIAN_POINT('',(0.003025,-0.0065,0.016));
#1173=CARTESIAN_POINT('',(-0.016025,0.0065,0.016));
#1174=CARTESIAN_POINT('',(-0.016025,0.0065,0.013));
#1175=CARTESIAN_POINT('',(-0.016025,0.007,0.013));
#1176=CARTESIAN_POINT('',(-0.016525,0.0065,0.013));
#1177=CARTESIAN_POINT('',(-0.016025,0.007,0.016));
#1178=CARTESIAN_POINT('',(-0.016025,0.007,0.016));
#1179=CARTESIAN_POINT('',(-0.016025,0.0065,0.016));
#1180=CARTESIAN_POINT('',(-0.016525,0.0065,0.016));
#1181=CARTESIAN_POINT('',(-0.016525,0.0065,0.016));
#1182=CARTESIAN_POINT('',(-0.009525,0.007,0.016));
#1183=CARTESIAN_POINT('',(-0.009525,0.007,0.013));
#1184=CARTESIAN_POINT('',(-0.003025,0.007,0.013));
#1185=CARTESIAN_POINT('',(-0.003025,0.007,0.016));
#1186=CARTESIAN_POINT('',(-0.003025,0.007,0.016));
#1187=CARTESIAN_POINT('',(-0.009525,0.007,0.016));
#1188=CARTESIAN_POINT('',(-0.003025,0.0065,0.016));
#1189=CARTESIAN_POINT('',(-0.003025,0.0065,0.013));
#1190=CARTESIAN_POINT('',(-0.002525,0.0065,0.013));
#1191=CARTESIAN_POINT('',(-0.002525,0.0065,0.016));
#1192=CARTESIAN_POINT('',(-0.002525,0.0065,0.016));
#1193=CARTESIAN_POINT('',(-0.003025,0.0065,0.016));
#1194=CARTESIAN_POINT('',(-0.002525,1.7347234759768E-18,0.016));
#1195=CARTESIAN_POINT('',(-0.002525,1.7347234759768E-18,0.013));
#1196=CARTESIAN_POINT('',(-0.002525,-0.0065,0.013));
#1197=CARTESIAN_POINT('',(-0.002525,-0.0065,0.016));
#1198=CARTESIAN_POINT('',(-0.002525,-0.0065,0.016));
#1199=CARTESIAN_POINT('',(-0.002525,1.7347234759768E-18,0.016));
#1200=CARTESIAN_POINT('',(-0.003025,-0.0065,0.016));
#1201=CARTESIAN_POINT('',(-0.003025,-0.0065,0.013));
#1202=CARTESIAN_POINT('',(-0.003025,-0.007,0.013));
#1203=CARTESIAN_POINT('',(-0.003025,-0.007,0.016));
#1204=CARTESIAN_POINT('',(-0.003025,-0.007,0.016));
#1205=CARTESIAN_POINT('',(-0.003025,-0.0065,0.016));
#1206=CARTESIAN_POINT('',(-0.009525,-0.007,0.016));
#1207=CARTESIAN_POINT('',(-0.009525,-0.007,0.013));
#1208=CARTESIAN_POINT('',(-0.016025,-0.007,0.013));
#1209=CARTESIAN_POINT('',(-0.016025,-0.007,0.016));
#1210=CARTESIAN_POINT('',(-0.016025,-0.007,0.016));
#1211=CARTESIAN_POINT('',(-0.009525,-0.007,0.016));
#1212=CARTESIAN_POINT('',(-0.016025,-0.0065,0.016));
#1213=CARTESIAN_POINT('',(-0.016025,-0.0065,0.013));
#1214=CARTESIAN_POINT('',(-0.016525,-0.0065,0.013));
#1215=CARTESIAN_POINT('',(-0.016525,-0.0065,0.016));
#1216=CARTESIAN_POINT('',(-0.016525,-0.0065,0.016));
#1217=CARTESIAN_POINT('',(-0.016025,-0.0065,0.016));
#1218=CARTESIAN_POINT('',(-0.035075,0.0065,0.016));
#1219=CARTESIAN_POINT('',(-0.035075,0.0065,0.013));
#1220=CARTESIAN_POINT('',(-0.035075,0.007,0.013));
#1221=CARTESIAN_POINT('',(-0.035575,0.0065,0.013));
#1222=CARTESIAN_POINT('',(-0.035075,0.007,0.016));
#1223=CARTESIAN_POINT('',(-0.035075,0.007,0.016));
#1224=CARTESIAN_POINT('',(-0.035075,0.0065,0.016));
#1225=CARTESIAN_POINT('',(-0.035575,0.0065,0.016));
#1226=CARTESIAN_POINT('',(-0.035575,0.0065,0.016));
#1227=CARTESIAN_POINT('',(-0.028575,0.007,0.016));
#1228=CARTESIAN_POINT('',(-0.028575,0.007,0.013));
#1229=CARTESIAN_POINT('',(-0.022075,0.007,0.013));
#1230=CARTESIAN_POINT('',(-0.022075,0.007,0.016));
#1231=CARTESIAN_POINT('',(-0.022075,0.007,0.016));
#1232=CARTESIAN_POINT('',(-0.028575,0.007,0.016));
#1233=CARTESIAN_POINT('',(-0.022075,0.0065,0.016));
#1234=CARTESIAN_POINT('',(-0.022075,0.0065,0.013));
#1235=CARTESIAN_POINT('',(-0.021575,0.0065,0.013));
#1236=CARTESIAN_POINT('',(-0.021575,0.0065,0.016));
#1237=CARTESIAN_POINT('',(-0.021575,0.0065,0.016));
#1238=CARTESIAN_POINT('',(-0.022075,0.0065,0.016));
#1239=CARTESIAN_POINT('',(-0.021575,1.7347234759768E-18,0.016));
#1240=CARTESIAN_POINT('',(-0.021575,1.7347234759768E-18,0.013));
#1241=CARTESIAN_POINT('',(-0.021575,-0.0065,0.013));
#1242=CARTESIAN_POINT('',(-0.021575,-0.0065,0.016));
#1243=CARTESIAN_POINT('',(-0.021575,-0.0065,0.016));
#1244=CARTESIAN_POINT('',(-0.021575,1.7347234759768E-18,0.016));
#1245=CARTESIAN_POINT('',(-0.022075,-0.0065,0.016));
#1246=CARTESIAN_POINT('',(-0.022075,-0.0065,0.013));
#1247=CARTESIAN_POINT('',(-0.022075,-0.007,0.013));
#1248=CARTESIAN_POINT('',(-0.022075,-0.007,0.016));
#1249=CARTESIAN_POINT('',(-0.022075,-0.007,0.016));
#1250=CARTESIAN_POINT('',(-0.022075,-0.0065,0.016));
#1251=CARTESIAN_POINT('',(-0.028575,-0.007,0.016));
#1252=CARTESIAN_POINT('',(-0.028575,-0.007,0.013));
#1253=CARTESIAN_POINT('',(-0.035075,-0.007,0.013));
#1254=CARTESIAN_POINT('',(-0.035075,-0.007,0.016));
#1255=CARTESIAN_POINT('',(-0.035075,-0.007,0.016));
#1256=CARTESIAN_POINT('',(-0.028575,-0.007,0.016));
#1257=CARTESIAN_POINT('',(-0.035075,-0.0065,0.016));
#1258=CARTESIAN_POINT('',(-0.035075,-0.0065,0.013));
#1259=CARTESIAN_POINT('',(-0.035575,-0.0065,0.013));
#1260=CARTESIAN_POINT('',(-0.035575,-0.0065,0.016));
#1261=CARTESIAN_POINT('',(-0.035575,-0.0065,0.016));
#1262=CARTESIAN_POINT('',(-0.035075,-0.0065,0.016));
#1263=CARTESIAN_POINT('',(0.021575,1.7347234759768E-18,0.016));
#1264=CARTESIAN_POINT('',(0.021575,1.7347234759768E-18,0.013));
#1265=CARTESIAN_POINT('',(0.021575,1.7347234759768E-18,0.016));
#1266=CARTESIAN_POINT('',(0.002525,1.7347234759768E-18,0.016));
#1267=CARTESIAN_POINT('',(0.002525,1.7347234759768E-18,0.013));
#1268=CARTESIAN_POINT('',(0.002525,1.7347234759768E-18,0.016));
#1269=CARTESIAN_POINT('',(-0.016525,1.7347234759768E-18,0.016));
#1270=CARTESIAN_POINT('',(-0.016525,1.7347234759768E-18,0.013));
#1271=CARTESIAN_POINT('',(-0.016525,1.7347234759768E-18,0.016));
#1272=CARTESIAN_POINT('',(-0.035575,1.7347234759768E-18,0.016));
#1273=CARTESIAN_POINT('',(-0.035575,1.7347234759768E-18,0.013));
#1274=CARTESIAN_POINT('',(-0.035575,1.7347234759768E-18,0.016));
#1275=CARTESIAN_POINT('',(0.0412,-1.7347234759768E-18,0.016));
#1276=CARTESIAN_POINT('',(0.0412,-1.7347234759768E-18,0.013));
#1277=CARTESIAN_POINT('',(0.0412,-1.7347234759768E-18,0.016));
#1278=CARTESIAN_POINT('',(1.38777878078145E-17,-3.46944695195361E-18,0.016));
#1279=CARTESIAN_POINT('',(1.38777878078145E-17,-3.46944695195361E-18,0.013));
#1280=MECHANICAL_DESIGN_GEOMETRIC_PRESENTATION_REPRESENTATION('',(#761),
#1281);
#1281=(
GEOMETRIC_REPRESENTATION_CONTEXT(3)
GLOBAL_UNCERTAINTY_ASSIGNED_CONTEXT((#1282))
GLOBAL_UNIT_ASSIGNED_CONTEXT((#1285,#1284,#1283))
REPRESENTATION_CONTEXT('Part 2','TOP_LEVEL_ASSEMBLY_PART')
);
#1282=UNCERTAINTY_MEASURE_WITH_UNIT(LENGTH_MEASURE(1.E-8),#1285,
'DISTANCE_ACCURACY_VALUE','Maximum Tolerance applied to model');
#1283=(
NAMED_UNIT(*)
SI_UNIT($,.STERADIAN.)
SOLID_ANGLE_UNIT()
);
#1284=(
NAMED_UNIT(*)
PLANE_ANGLE_UNIT()
SI_UNIT($,.RADIAN.)
);
#1285=(
LENGTH_UNIT()
NAMED_UNIT(*)
SI_UNIT($,.METRE.)
);
#1286=PRODUCT_DEFINITION_SHAPE('','',#1287);
#1287=PRODUCT_DEFINITION('','',#1289,#1288);
#1288=PRODUCT_DEFINITION_CONTEXT('',#1295,'design');
#1289=PRODUCT_DEFINITION_FORMATION_WITH_SPECIFIED_SOURCE('','',#1291,
 .NOT_KNOWN.);
#1290=PRODUCT_RELATED_PRODUCT_CATEGORY('','',(#1291));
#1291=PRODUCT('Part 2','Part 2','Part 2',(#1293));
#1292=PRODUCT_CATEGORY('','');
#1293=PRODUCT_CONTEXT('',#1295,'mechanical');
#1294=APPLICATION_PROTOCOL_DEFINITION('international standard',
'ap242_managed_model_based_3d_engineering',2020,#1295);
#1295=APPLICATION_CONTEXT('managed model based 3d engineering');
ENDSEC;
END-ISO-10303-21;
