ISO-10303-21;
HEADER;
/* Generated by software containing ST-Developer
 * from STEP Tools, Inc. (www.steptools.com) 
 */
/* OPTION: using custom renumber hook */

FILE_DESCRIPTION(
/* description */ ('STEP AP242 Edition 2',
'CAx-IF Rec.Pracs.---Representation and Presentation of Product Manufa
cturing Information (PMI)---4.0---2014-10-13',
'CAx-IF Rec.Pracs.---3D Tessellated Geometry---0.4---2014-09-14','2;1',
'CAx-IF Rec.Pracs.---User Defined Attributes---1.5---2016-08-15'),
/* implementation_level */ '2;1');

FILE_NAME(
/* name */ 'Part Studio 1 - Part 1',
/* time_stamp */ '2026-09-23T14:06:32Z',
/* author */ (''),
/* organization */ (''),
/* preprocessor_version */ 'ST-DEVELOPER v20',
/* originating_system */ 'ONSHAPE BY PTC INC, 1.221',
/* authorisation */ '  ');

FILE_SCHEMA (('AP242_MANAGED_MODEL_BASED_3D_ENGINEERING_MIM_LF { 1 0 10303 442 3 1 4 }'));
ENDSEC;

DATA;
#10=SHAPE_REPRESENTATION_RELATIONSHIP('','',#373,#11);
#11=ADVANCED_BREP_SHAPE_REPRESENTATION('',(#371),#591);
#12=CYLINDRICAL_SURFACE('',#394,0.00145);
#13=CYLINDRICAL_SURFACE('',#395,0.00145);
#14=CYLINDRICAL_SURFACE('',#396,0.00145);
#15=CYLINDRICAL_SURFACE('',#397,0.00145);
#16=CIRCLE('',#378,0.00145);
#17=CIRCLE('',#379,0.00145);
#18=CIRCLE('',#380,0.00145);
#19=CIRCLE('',#381,0.00145);
#20=CIRCLE('',#386,0.00145);
#21=CIRCLE('',#387,0.00145);
#22=CIRCLE('',#388,0.00145);
#23=CIRCLE('',#389,0.00145);
#24=ORIENTED_EDGE('',*,*,#112,.F.);
#25=ORIENTED_EDGE('',*,*,#113,.F.);
#26=ORIENTED_EDGE('',*,*,#114,.T.);
#27=ORIENTED_EDGE('',*,*,#115,.T.);
#28=ORIENTED_EDGE('',*,*,#116,.F.);
#29=ORIENTED_EDGE('',*,*,#117,.T.);
#30=ORIENTED_EDGE('',*,*,#118,.T.);
#31=ORIENTED_EDGE('',*,*,#119,.F.);
#32=ORIENTED_EDGE('',*,*,#120,.F.);
#33=ORIENTED_EDGE('',*,*,#121,.F.);
#34=ORIENTED_EDGE('',*,*,#122,.T.);
#35=ORIENTED_EDGE('',*,*,#123,.T.);
#36=ORIENTED_EDGE('',*,*,#124,.F.);
#37=ORIENTED_EDGE('',*,*,#125,.F.);
#38=ORIENTED_EDGE('',*,*,#126,.T.);
#39=ORIENTED_EDGE('',*,*,#127,.T.);
#40=ORIENTED_EDGE('',*,*,#128,.F.);
#41=ORIENTED_EDGE('',*,*,#129,.F.);
#42=ORIENTED_EDGE('',*,*,#130,.F.);
#43=ORIENTED_EDGE('',*,*,#131,.F.);
#44=ORIENTED_EDGE('',*,*,#132,.F.);
#45=ORIENTED_EDGE('',*,*,#133,.T.);
#46=ORIENTED_EDGE('',*,*,#134,.T.);
#47=ORIENTED_EDGE('',*,*,#114,.F.);
#48=ORIENTED_EDGE('',*,*,#135,.F.);
#49=ORIENTED_EDGE('',*,*,#136,.T.);
#50=ORIENTED_EDGE('',*,*,#120,.T.);
#51=ORIENTED_EDGE('',*,*,#137,.F.);
#52=ORIENTED_EDGE('',*,*,#138,.F.);
#53=ORIENTED_EDGE('',*,*,#139,.F.);
#54=ORIENTED_EDGE('',*,*,#132,.T.);
#55=ORIENTED_EDGE('',*,*,#113,.T.);
#56=ORIENTED_EDGE('',*,*,#140,.T.);
#57=ORIENTED_EDGE('',*,*,#141,.F.);
#58=ORIENTED_EDGE('',*,*,#133,.F.);
#59=ORIENTED_EDGE('',*,*,#139,.T.);
#60=ORIENTED_EDGE('',*,*,#142,.T.);
#61=ORIENTED_EDGE('',*,*,#115,.F.);
#62=ORIENTED_EDGE('',*,*,#134,.F.);
#63=ORIENTED_EDGE('',*,*,#141,.T.);
#64=ORIENTED_EDGE('',*,*,#143,.T.);
#65=ORIENTED_EDGE('',*,*,#144,.T.);
#66=ORIENTED_EDGE('',*,*,#145,.T.);
#67=ORIENTED_EDGE('',*,*,#146,.T.);
#68=ORIENTED_EDGE('',*,*,#138,.T.);
#69=ORIENTED_EDGE('',*,*,#112,.T.);
#70=ORIENTED_EDGE('',*,*,#142,.F.);
#71=ORIENTED_EDGE('',*,*,#140,.F.);
#72=ORIENTED_EDGE('',*,*,#136,.F.);
#73=ORIENTED_EDGE('',*,*,#147,.F.);
#74=ORIENTED_EDGE('',*,*,#148,.T.);
#75=ORIENTED_EDGE('',*,*,#121,.T.);
#76=ORIENTED_EDGE('',*,*,#135,.T.);
#77=ORIENTED_EDGE('',*,*,#149,.F.);
#78=ORIENTED_EDGE('',*,*,#150,.F.);
#79=ORIENTED_EDGE('',*,*,#147,.T.);
#80=ORIENTED_EDGE('',*,*,#137,.T.);
#81=ORIENTED_EDGE('',*,*,#123,.F.);
#82=ORIENTED_EDGE('',*,*,#151,.F.);
#83=ORIENTED_EDGE('',*,*,#149,.T.);
#84=ORIENTED_EDGE('',*,*,#148,.F.);
#85=ORIENTED_EDGE('',*,*,#150,.T.);
#86=ORIENTED_EDGE('',*,*,#151,.T.);
#87=ORIENTED_EDGE('',*,*,#122,.F.);
#88=ORIENTED_EDGE('',*,*,#131,.T.);
#89=ORIENTED_EDGE('',*,*,#146,.F.);
#90=ORIENTED_EDGE('',*,*,#130,.T.);
#91=ORIENTED_EDGE('',*,*,#145,.F.);
#92=ORIENTED_EDGE('',*,*,#129,.T.);
#93=ORIENTED_EDGE('',*,*,#144,.F.);
#94=ORIENTED_EDGE('',*,*,#128,.T.);
#95=ORIENTED_EDGE('',*,*,#143,.F.);
#96=ORIENTED_EDGE('',*,*,#117,.F.);
#97=ORIENTED_EDGE('',*,*,#152,.F.);
#98=ORIENTED_EDGE('',*,*,#125,.T.);
#99=ORIENTED_EDGE('',*,*,#153,.T.);
#100=ORIENTED_EDGE('',*,*,#116,.T.);
#101=ORIENTED_EDGE('',*,*,#154,.F.);
#102=ORIENTED_EDGE('',*,*,#126,.F.);
#103=ORIENTED_EDGE('',*,*,#152,.T.);
#104=ORIENTED_EDGE('',*,*,#119,.T.);
#105=ORIENTED_EDGE('',*,*,#155,.F.);
#106=ORIENTED_EDGE('',*,*,#127,.F.);
#107=ORIENTED_EDGE('',*,*,#154,.T.);
#108=ORIENTED_EDGE('',*,*,#118,.F.);
#109=ORIENTED_EDGE('',*,*,#153,.F.);
#110=ORIENTED_EDGE('',*,*,#124,.T.);
#111=ORIENTED_EDGE('',*,*,#155,.T.);
#112=EDGE_CURVE('',#156,#157,#188,.T.);
#113=EDGE_CURVE('',#158,#156,#189,.T.);
#114=EDGE_CURVE('',#158,#159,#190,.T.);
#115=EDGE_CURVE('',#159,#157,#191,.T.);
#116=EDGE_CURVE('',#160,#161,#192,.T.);
#117=EDGE_CURVE('',#160,#162,#193,.T.);
#118=EDGE_CURVE('',#162,#163,#194,.T.);
#119=EDGE_CURVE('',#161,#163,#195,.T.);
#120=EDGE_CURVE('',#164,#165,#196,.T.);
#121=EDGE_CURVE('',#166,#164,#197,.T.);
#122=EDGE_CURVE('',#166,#167,#198,.T.);
#123=EDGE_CURVE('',#167,#165,#199,.T.);
#124=EDGE_CURVE('',#168,#169,#200,.T.);
#125=EDGE_CURVE('',#170,#168,#201,.T.);
#126=EDGE_CURVE('',#170,#171,#202,.T.);
#127=EDGE_CURVE('',#171,#169,#203,.T.);
#128=EDGE_CURVE('',#172,#172,#16,.T.);
#129=EDGE_CURVE('',#173,#173,#17,.T.);
#130=EDGE_CURVE('',#174,#174,#18,.T.);
#131=EDGE_CURVE('',#175,#175,#19,.T.);
#132=EDGE_CURVE('',#176,#158,#204,.T.);
#133=EDGE_CURVE('',#176,#177,#205,.T.);
#134=EDGE_CURVE('',#177,#159,#206,.T.);
#135=EDGE_CURVE('',#178,#179,#207,.T.);
#136=EDGE_CURVE('',#178,#164,#208,.T.);
#137=EDGE_CURVE('',#179,#165,#209,.T.);
#138=EDGE_CURVE('',#180,#156,#210,.T.);
#139=EDGE_CURVE('',#176,#180,#211,.T.);
#140=EDGE_CURVE('',#180,#181,#212,.T.);
#141=EDGE_CURVE('',#177,#181,#213,.T.);
#142=EDGE_CURVE('',#181,#157,#214,.T.);
#143=EDGE_CURVE('',#182,#182,#20,.T.);
#144=EDGE_CURVE('',#183,#183,#21,.T.);
#145=EDGE_CURVE('',#184,#184,#22,.T.);
#146=EDGE_CURVE('',#185,#185,#23,.T.);
#147=EDGE_CURVE('',#186,#178,#215,.T.);
#148=EDGE_CURVE('',#186,#166,#216,.T.);
#149=EDGE_CURVE('',#187,#179,#217,.T.);
#150=EDGE_CURVE('',#186,#187,#218,.T.);
#151=EDGE_CURVE('',#187,#167,#219,.T.);
#152=EDGE_CURVE('',#170,#160,#220,.T.);
#153=EDGE_CURVE('',#168,#162,#221,.T.);
#154=EDGE_CURVE('',#171,#161,#222,.T.);
#155=EDGE_CURVE('',#169,#163,#223,.T.);
#156=VERTEX_POINT('',#497);
#157=VERTEX_POINT('',#498);
#158=VERTEX_POINT('',#500);
#159=VERTEX_POINT('',#502);
#160=VERTEX_POINT('',#505);
#161=VERTEX_POINT('',#506);
#162=VERTEX_POINT('',#508);
#163=VERTEX_POINT('',#510);
#164=VERTEX_POINT('',#514);
#165=VERTEX_POINT('',#515);
#166=VERTEX_POINT('',#517);
#167=VERTEX_POINT('',#519);
#168=VERTEX_POINT('',#522);
#169=VERTEX_POINT('',#523);
#170=VERTEX_POINT('',#525);
#171=VERTEX_POINT('',#527);
#172=VERTEX_POINT('',#531);
#173=VERTEX_POINT('',#533);
#174=VERTEX_POINT('',#535);
#175=VERTEX_POINT('',#537);
#176=VERTEX_POINT('',#539);
#177=VERTEX_POINT('',#541);
#178=VERTEX_POINT('',#544);
#179=VERTEX_POINT('',#545);
#180=VERTEX_POINT('',#550);
#181=VERTEX_POINT('',#554);
#182=VERTEX_POINT('',#560);
#183=VERTEX_POINT('',#562);
#184=VERTEX_POINT('',#564);
#185=VERTEX_POINT('',#566);
#186=VERTEX_POINT('',#569);
#187=VERTEX_POINT('',#573);
#188=LINE('',#496,#224);
#189=LINE('',#499,#225);
#190=LINE('',#501,#226);
#191=LINE('',#503,#227);
#192=LINE('',#504,#228);
#193=LINE('',#507,#229);
#194=LINE('',#509,#230);
#195=LINE('',#511,#231);
#196=LINE('',#513,#232);
#197=LINE('',#516,#233);
#198=LINE('',#518,#234);
#199=LINE('',#520,#235);
#200=LINE('',#521,#236);
#201=LINE('',#524,#237);
#202=LINE('',#526,#238);
#203=LINE('',#528,#239);
#204=LINE('',#538,#240);
#205=LINE('',#540,#241);
#206=LINE('',#542,#242);
#207=LINE('',#543,#243);
#208=LINE('',#546,#244);
#209=LINE('',#547,#245);
#210=LINE('',#549,#246);
#211=LINE('',#551,#247);
#212=LINE('',#553,#248);
#213=LINE('',#555,#249);
#214=LINE('',#557,#250);
#215=LINE('',#568,#251);
#216=LINE('',#570,#252);
#217=LINE('',#572,#253);
#218=LINE('',#574,#254);
#219=LINE('',#576,#255);
#220=LINE('',#583,#256);
#221=LINE('',#584,#257);
#222=LINE('',#586,#258);
#223=LINE('',#588,#259);
#224=VECTOR('',#406,1.);
#225=VECTOR('',#407,1.);
#226=VECTOR('',#408,1.);
#227=VECTOR('',#409,1.);
#228=VECTOR('',#410,1.);
#229=VECTOR('',#411,1.);
#230=VECTOR('',#412,1.);
#231=VECTOR('',#413,1.);
#232=VECTOR('',#416,1.);
#233=VECTOR('',#417,1.);
#234=VECTOR('',#418,1.);
#235=VECTOR('',#419,1.);
#236=VECTOR('',#420,1.);
#237=VECTOR('',#421,1.);
#238=VECTOR('',#422,1.);
#239=VECTOR('',#423,1.);
#240=VECTOR('',#434,1.);
#241=VECTOR('',#435,1.);
#242=VECTOR('',#436,1.);
#243=VECTOR('',#437,1.);
#244=VECTOR('',#438,1.);
#245=VECTOR('',#439,1.);
#246=VECTOR('',#442,1.);
#247=VECTOR('',#443,1.);
#248=VECTOR('',#446,1.);
#249=VECTOR('',#447,1.);
#250=VECTOR('',#450,1.);
#251=VECTOR('',#463,1.);
#252=VECTOR('',#464,1.);
#253=VECTOR('',#467,1.);
#254=VECTOR('',#468,1.);
#255=VECTOR('',#471,1.);
#256=VECTOR('',#484,1.);
#257=VECTOR('',#485,1.);
#258=VECTOR('',#488,1.);
#259=VECTOR('',#491,1.);
#260=EDGE_LOOP('',(#24,#25,#26,#27));
#261=EDGE_LOOP('',(#28,#29,#30,#31));
#262=EDGE_LOOP('',(#32,#33,#34,#35));
#263=EDGE_LOOP('',(#36,#37,#38,#39));
#264=EDGE_LOOP('',(#40));
#265=EDGE_LOOP('',(#41));
#266=EDGE_LOOP('',(#42));
#267=EDGE_LOOP('',(#43));
#268=EDGE_LOOP('',(#44,#45,#46,#47));
#269=EDGE_LOOP('',(#48,#49,#50,#51));
#270=EDGE_LOOP('',(#52,#53,#54,#55));
#271=EDGE_LOOP('',(#56,#57,#58,#59));
#272=EDGE_LOOP('',(#60,#61,#62,#63));
#273=EDGE_LOOP('',(#64));
#274=EDGE_LOOP('',(#65));
#275=EDGE_LOOP('',(#66));
#276=EDGE_LOOP('',(#67));
#277=EDGE_LOOP('',(#68,#69,#70,#71));
#278=EDGE_LOOP('',(#72,#73,#74,#75));
#279=EDGE_LOOP('',(#76,#77,#78,#79));
#280=EDGE_LOOP('',(#80,#81,#82,#83));
#281=EDGE_LOOP('',(#84,#85,#86,#87));
#282=EDGE_LOOP('',(#88));
#283=EDGE_LOOP('',(#89));
#284=EDGE_LOOP('',(#90));
#285=EDGE_LOOP('',(#91));
#286=EDGE_LOOP('',(#92));
#287=EDGE_LOOP('',(#93));
#288=EDGE_LOOP('',(#94));
#289=EDGE_LOOP('',(#95));
#290=EDGE_LOOP('',(#96,#97,#98,#99));
#291=EDGE_LOOP('',(#100,#101,#102,#103));
#292=EDGE_LOOP('',(#104,#105,#106,#107));
#293=EDGE_LOOP('',(#108,#109,#110,#111));
#294=FACE_BOUND('',#260,.T.);
#295=FACE_BOUND('',#261,.T.);
#296=FACE_BOUND('',#262,.T.);
#297=FACE_BOUND('',#263,.T.);
#298=FACE_BOUND('',#264,.T.);
#299=FACE_BOUND('',#265,.T.);
#300=FACE_BOUND('',#266,.T.);
#301=FACE_BOUND('',#267,.T.);
#302=FACE_BOUND('',#268,.T.);
#303=FACE_BOUND('',#269,.T.);
#304=FACE_BOUND('',#270,.T.);
#305=FACE_BOUND('',#271,.T.);
#306=FACE_BOUND('',#272,.T.);
#307=FACE_BOUND('',#273,.T.);
#308=FACE_BOUND('',#274,.T.);
#309=FACE_BOUND('',#275,.T.);
#310=FACE_BOUND('',#276,.T.);
#311=FACE_BOUND('',#277,.T.);
#312=FACE_BOUND('',#278,.T.);
#313=FACE_BOUND('',#279,.T.);
#314=FACE_BOUND('',#280,.T.);
#315=FACE_BOUND('',#281,.T.);
#316=FACE_BOUND('',#282,.T.);
#317=FACE_BOUND('',#283,.T.);
#318=FACE_BOUND('',#284,.T.);
#319=FACE_BOUND('',#285,.T.);
#320=FACE_BOUND('',#286,.T.);
#321=FACE_BOUND('',#287,.T.);
#322=FACE_BOUND('',#288,.T.);
#323=FACE_BOUND('',#289,.T.);
#324=FACE_BOUND('',#290,.T.);
#325=FACE_BOUND('',#291,.T.);
#326=FACE_BOUND('',#292,.T.);
#327=FACE_BOUND('',#293,.T.);
#328=PLANE('',#375);
#329=PLANE('',#376);
#330=PLANE('',#377);
#331=PLANE('',#382);
#332=PLANE('',#383);
#333=PLANE('',#384);
#334=PLANE('',#385);
#335=PLANE('',#390);
#336=PLANE('',#391);
#337=PLANE('',#392);
#338=PLANE('',#393);
#339=PLANE('',#398);
#340=PLANE('',#399);
#341=PLANE('',#400);
#342=PLANE('',#401);
#343=ADVANCED_FACE('',(#294,#295),#328,.T.);
#344=ADVANCED_FACE('',(#296,#297),#329,.T.);
#345=ADVANCED_FACE('',(#298,#299,#300,#301,#302,#303),#330,.T.);
#346=ADVANCED_FACE('',(#304),#331,.T.);
#347=ADVANCED_FACE('',(#305),#332,.F.);
#348=ADVANCED_FACE('',(#306),#333,.F.);
#349=ADVANCED_FACE('',(#307,#308,#309,#310,#311),#334,.F.);
#350=ADVANCED_FACE('',(#312),#335,.T.);
#351=ADVANCED_FACE('',(#313),#336,.F.);
#352=ADVANCED_FACE('',(#314),#337,.F.);
#353=ADVANCED_FACE('',(#315),#338,.T.);
#354=ADVANCED_FACE('',(#316,#317),#12,.F.);
#355=ADVANCED_FACE('',(#318,#319),#13,.F.);
#356=ADVANCED_FACE('',(#320,#321),#14,.F.);
#357=ADVANCED_FACE('',(#322,#323),#15,.F.);
#358=ADVANCED_FACE('',(#324),#339,.T.);
#359=ADVANCED_FACE('',(#325),#340,.F.);
#360=ADVANCED_FACE('',(#326),#341,.F.);
#361=ADVANCED_FACE('',(#327),#342,.T.);
#362=CLOSED_SHELL('',(#343,#344,#345,#346,#347,#348,#349,#350,#351,#352,
#353,#354,#355,#356,#357,#358,#359,#360,#361));
#363=STYLED_ITEM('',(#364),#371);
#364=PRESENTATION_STYLE_ASSIGNMENT((#365));
#365=SURFACE_STYLE_USAGE(.BOTH.,#366);
#366=SURFACE_SIDE_STYLE('',(#367));
#367=SURFACE_STYLE_FILL_AREA(#368);
#368=FILL_AREA_STYLE('',(#369));
#369=FILL_AREA_STYLE_COLOUR('',#370);
#370=COLOUR_RGB('',0.615686274509804,0.811764705882353,0.929411764705882);
#371=MANIFOLD_SOLID_BREP('Part 1',#362);
#372=SHAPE_DEFINITION_REPRESENTATION(#596,#373);
#373=SHAPE_REPRESENTATION('Part 1',(#374),#591);
#374=AXIS2_PLACEMENT_3D('',#494,#402,#403);
#375=AXIS2_PLACEMENT_3D('',#495,#404,#405);
#376=AXIS2_PLACEMENT_3D('',#512,#414,#415);
#377=AXIS2_PLACEMENT_3D('',#529,#424,#425);
#378=AXIS2_PLACEMENT_3D('',#530,#426,#427);
#379=AXIS2_PLACEMENT_3D('',#532,#428,#429);
#380=AXIS2_PLACEMENT_3D('',#534,#430,#431);
#381=AXIS2_PLACEMENT_3D('',#536,#432,#433);
#382=AXIS2_PLACEMENT_3D('',#548,#440,#441);
#383=AXIS2_PLACEMENT_3D('',#552,#444,#445);
#384=AXIS2_PLACEMENT_3D('',#556,#448,#449);
#385=AXIS2_PLACEMENT_3D('',#558,#451,#452);
#386=AXIS2_PLACEMENT_3D('',#559,#453,#454);
#387=AXIS2_PLACEMENT_3D('',#561,#455,#456);
#388=AXIS2_PLACEMENT_3D('',#563,#457,#458);
#389=AXIS2_PLACEMENT_3D('',#565,#459,#460);
#390=AXIS2_PLACEMENT_3D('',#567,#461,#462);
#391=AXIS2_PLACEMENT_3D('',#571,#465,#466);
#392=AXIS2_PLACEMENT_3D('',#575,#469,#470);
#393=AXIS2_PLACEMENT_3D('',#577,#472,#473);
#394=AXIS2_PLACEMENT_3D('',#578,#474,#475);
#395=AXIS2_PLACEMENT_3D('',#579,#476,#477);
#396=AXIS2_PLACEMENT_3D('',#580,#478,#479);
#397=AXIS2_PLACEMENT_3D('',#581,#480,#481);
#398=AXIS2_PLACEMENT_3D('',#582,#482,#483);
#399=AXIS2_PLACEMENT_3D('',#585,#486,#487);
#400=AXIS2_PLACEMENT_3D('',#587,#489,#490);
#401=AXIS2_PLACEMENT_3D('',#589,#492,#493);
#402=DIRECTION('',(0.,0.,1.));
#403=DIRECTION('',(1.,0.,0.));
#404=DIRECTION('',(1.,0.,0.));
#405=DIRECTION('',(0.,0.,-1.));
#406=DIRECTION('',(0.,-1.,0.));
#407=DIRECTION('',(0.,0.,-1.));
#408=DIRECTION('',(0.,-1.,0.));
#409=DIRECTION('',(0.,0.,-1.));
#410=DIRECTION('',(0.,-1.,0.));
#411=DIRECTION('',(0.,3.46944695195362E-16,-1.));
#412=DIRECTION('',(0.,-1.,0.));
#413=DIRECTION('',(0.,3.46944695195362E-16,-1.));
#414=DIRECTION('',(-1.,0.,0.));
#415=DIRECTION('',(0.,0.,1.));
#416=DIRECTION('',(0.,-1.,0.));
#417=DIRECTION('',(0.,0.,1.));
#418=DIRECTION('',(0.,-1.,0.));
#419=DIRECTION('',(0.,0.,1.));
#420=DIRECTION('',(0.,-1.,0.));
#421=DIRECTION('',(0.,3.46944695195362E-16,-1.));
#422=DIRECTION('',(0.,-1.,0.));
#423=DIRECTION('',(0.,3.46944695195362E-16,-1.));
#424=DIRECTION('',(0.,0.,1.));
#425=DIRECTION('',(1.,0.,0.));
#426=DIRECTION('',(0.,0.,1.));
#427=DIRECTION('',(1.,0.,0.));
#428=DIRECTION('',(0.,0.,1.));
#429=DIRECTION('',(1.,0.,0.));
#430=DIRECTION('',(0.,0.,1.));
#431=DIRECTION('',(1.,0.,0.));
#432=DIRECTION('',(0.,0.,1.));
#433=DIRECTION('',(1.,0.,0.));
#434=DIRECTION('',(1.,0.,0.));
#435=DIRECTION('',(0.,-1.,0.));
#436=DIRECTION('',(1.,0.,0.));
#437=DIRECTION('',(0.,-1.,0.));
#438=DIRECTION('',(1.,0.,0.));
#439=DIRECTION('',(1.,0.,0.));
#440=DIRECTION('',(0.,1.,0.));
#441=DIRECTION('',(0.,0.,1.));
#442=DIRECTION('',(1.,0.,0.));
#443=DIRECTION('',(0.,0.,-1.));
#444=DIRECTION('',(1.,0.,0.));
#445=DIRECTION('',(0.,0.,-1.));
#446=DIRECTION('',(0.,-1.,0.));
#447=DIRECTION('',(0.,0.,-1.));
#448=DIRECTION('',(0.,1.,0.));
#449=DIRECTION('',(0.,0.,1.));
#450=DIRECTION('',(1.,0.,0.));
#451=DIRECTION('',(0.,0.,1.));
#452=DIRECTION('',(1.,0.,0.));
#453=DIRECTION('',(0.,0.,1.));
#454=DIRECTION('',(1.,0.,0.));
#455=DIRECTION('',(0.,0.,1.));
#456=DIRECTION('',(1.,0.,0.));
#457=DIRECTION('',(0.,0.,1.));
#458=DIRECTION('',(1.,0.,0.));
#459=DIRECTION('',(0.,0.,1.));
#460=DIRECTION('',(1.,0.,0.));
#461=DIRECTION('',(0.,-1.,0.));
#462=DIRECTION('',(0.,0.,-1.));
#463=DIRECTION('',(0.,0.,1.));
#464=DIRECTION('',(1.,0.,0.));
#465=DIRECTION('',(-1.,0.,0.));
#466=DIRECTION('',(0.,0.,1.));
#467=DIRECTION('',(0.,0.,1.));
#468=DIRECTION('',(0.,-1.,0.));
#469=DIRECTION('',(0.,-1.,0.));
#470=DIRECTION('',(0.,0.,-1.));
#471=DIRECTION('',(1.,0.,0.));
#472=DIRECTION('',(0.,0.,1.));
#473=DIRECTION('',(1.,0.,0.));
#474=DIRECTION('',(0.,0.,1.));
#475=DIRECTION('',(1.,0.,0.));
#476=DIRECTION('',(0.,0.,1.));
#477=DIRECTION('',(1.,0.,0.));
#478=DIRECTION('',(0.,0.,1.));
#479=DIRECTION('',(1.,0.,0.));
#480=DIRECTION('',(0.,0.,1.));
#481=DIRECTION('',(1.,0.,0.));
#482=DIRECTION('',(0.,-1.,-3.46944695195362E-16));
#483=DIRECTION('',(0.,3.46944695195362E-16,-1.));
#484=DIRECTION('',(1.,0.,0.));
#485=DIRECTION('',(1.,0.,0.));
#486=DIRECTION('',(0.,0.,1.));
#487=DIRECTION('',(1.,0.,0.));
#488=DIRECTION('',(1.,0.,0.));
#489=DIRECTION('',(0.,-1.,-3.46944695195362E-16));
#490=DIRECTION('',(0.,3.46944695195362E-16,-1.));
#491=DIRECTION('',(1.,0.,0.));
#492=DIRECTION('',(0.,0.,1.));
#493=DIRECTION('',(1.,0.,0.));
#494=CARTESIAN_POINT('',(0.,0.,0.));
#495=CARTESIAN_POINT('',(0.0412,-1.7347234759768E-18,0.013));
#496=CARTESIAN_POINT('',(0.0412,-1.7347234759768E-18,0.));
#497=CARTESIAN_POINT('',(0.0412,0.0147,0.));
#498=CARTESIAN_POINT('',(0.0412,-0.0147,0.));
#499=CARTESIAN_POINT('',(0.0412,0.0147,0.013));
#500=CARTESIAN_POINT('',(0.0412,0.0147,0.013));
#501=CARTESIAN_POINT('',(0.0412,-1.7347234759768E-18,0.013));
#502=CARTESIAN_POINT('',(0.0412,-0.0147,0.013));
#503=CARTESIAN_POINT('',(0.0412,-0.0147,0.013));
#504=CARTESIAN_POINT('',(0.0412,-8.67361737988404E-19,0.0128575715106642));
#505=CARTESIAN_POINT('',(0.0412,0.005,0.0128575715106642));
#506=CARTESIAN_POINT('',(0.0412,-0.005,0.0128575715106642));
#507=CARTESIAN_POINT('',(0.0412,0.005,0.0103575715106642));
#508=CARTESIAN_POINT('',(0.0412,0.005,0.00785757151066418));
#509=CARTESIAN_POINT('',(0.0412,-8.67361737988404E-19,0.00785757151066418));
#510=CARTESIAN_POINT('',(0.0412,-0.005,0.00785757151066418));
#511=CARTESIAN_POINT('',(0.0412,-0.005,0.0103575715106642));
#512=CARTESIAN_POINT('',(0.0362,0.,0.003));
#513=CARTESIAN_POINT('',(0.0362,0.,0.013));
#514=CARTESIAN_POINT('',(0.0362,0.0097,0.013));
#515=CARTESIAN_POINT('',(0.0362,-0.0097,0.013));
#516=CARTESIAN_POINT('',(0.0362,0.0097,0.003));
#517=CARTESIAN_POINT('',(0.0362,0.0097,0.003));
#518=CARTESIAN_POINT('',(0.0362,0.,0.003));
#519=CARTESIAN_POINT('',(0.0362,-0.0097,0.003));
#520=CARTESIAN_POINT('',(0.0362,-0.0097,0.003));
#521=CARTESIAN_POINT('',(0.0362,-8.67361737988404E-19,0.00785757151066418));
#522=CARTESIAN_POINT('',(0.0362,0.005,0.00785757151066418));
#523=CARTESIAN_POINT('',(0.0362,-0.005,0.00785757151066418));
#524=CARTESIAN_POINT('',(0.0362,0.005,0.0103575715106642));
#525=CARTESIAN_POINT('',(0.0362,0.005,0.0128575715106642));
#526=CARTESIAN_POINT('',(0.0362,-8.67361737988404E-19,0.0128575715106642));
#527=CARTESIAN_POINT('',(0.0362,-0.005,0.0128575715106642));
#528=CARTESIAN_POINT('',(0.0362,-0.005,0.0103575715106642));
#529=CARTESIAN_POINT('',(0.,-3.46944695195361E-18,0.013));
#530=CARTESIAN_POINT('',(0.0387,0.0122,0.013));
#531=CARTESIAN_POINT('',(0.04015,0.0122,0.013));
#532=CARTESIAN_POINT('',(-0.0387,-0.0122,0.013));
#533=CARTESIAN_POINT('',(-0.03725,-0.0122,0.013));
#534=CARTESIAN_POINT('',(0.0387,-0.0122,0.013));
#535=CARTESIAN_POINT('',(0.04015,-0.0122,0.013));
#536=CARTESIAN_POINT('',(-0.0387,0.0122,0.013));
#537=CARTESIAN_POINT('',(-0.03725,0.0122,0.013));
#538=CARTESIAN_POINT('',(0.,0.0147,0.013));
#539=CARTESIAN_POINT('',(-0.0412,0.0147,0.013));
#540=CARTESIAN_POINT('',(-0.0412,-1.7347234759768E-18,0.013));
#541=CARTESIAN_POINT('',(-0.0412,-0.0147,0.013));
#542=CARTESIAN_POINT('',(0.,-0.0147,0.013));
#543=CARTESIAN_POINT('',(-0.0362,0.,0.013));
#544=CARTESIAN_POINT('',(-0.0362,0.0097,0.013));
#545=CARTESIAN_POINT('',(-0.0362,-0.0097,0.013));
#546=CARTESIAN_POINT('',(0.,0.0097,0.013));
#547=CARTESIAN_POINT('',(0.,-0.0097,0.013));
#548=CARTESIAN_POINT('',(0.,0.0147,0.013));
#549=CARTESIAN_POINT('',(0.,0.0147,0.));
#550=CARTESIAN_POINT('',(-0.0412,0.0147,0.));
#551=CARTESIAN_POINT('',(-0.0412,0.0147,0.013));
#552=CARTESIAN_POINT('',(-0.0412,-1.7347234759768E-18,0.013));
#553=CARTESIAN_POINT('',(-0.0412,-1.7347234759768E-18,0.));
#554=CARTESIAN_POINT('',(-0.0412,-0.0147,0.));
#555=CARTESIAN_POINT('',(-0.0412,-0.0147,0.013));
#556=CARTESIAN_POINT('',(0.,-0.0147,0.013));
#557=CARTESIAN_POINT('',(0.,-0.0147,0.));
#558=CARTESIAN_POINT('',(0.,-3.46944695195361E-18,0.));
#559=CARTESIAN_POINT('',(0.0387,0.0122,0.));
#560=CARTESIAN_POINT('',(0.04015,0.0122,0.));
#561=CARTESIAN_POINT('',(-0.0387,-0.0122,0.));
#562=CARTESIAN_POINT('',(-0.03725,-0.0122,0.));
#563=CARTESIAN_POINT('',(0.0387,-0.0122,0.));
#564=CARTESIAN_POINT('',(0.04015,-0.0122,0.));
#565=CARTESIAN_POINT('',(-0.0387,0.0122,0.));
#566=CARTESIAN_POINT('',(-0.03725,0.0122,0.));
#567=CARTESIAN_POINT('',(0.,0.0097,0.003));
#568=CARTESIAN_POINT('',(-0.0362,0.0097,0.003));
#569=CARTESIAN_POINT('',(-0.0362,0.0097,0.003));
#570=CARTESIAN_POINT('',(0.,0.0097,0.003));
#571=CARTESIAN_POINT('',(-0.0362,0.,0.003));
#572=CARTESIAN_POINT('',(-0.0362,-0.0097,0.003));
#573=CARTESIAN_POINT('',(-0.0362,-0.0097,0.003));
#574=CARTESIAN_POINT('',(-0.0362,0.,0.003));
#575=CARTESIAN_POINT('',(0.,-0.0097,0.003));
#576=CARTESIAN_POINT('',(0.,-0.0097,0.003));
#577=CARTESIAN_POINT('',(0.,-3.46944695195361E-18,0.003));
#578=CARTESIAN_POINT('',(-0.0387,0.0122,0.));
#579=CARTESIAN_POINT('',(0.0387,-0.0122,0.));
#580=CARTESIAN_POINT('',(-0.0387,-0.0122,0.));
#581=CARTESIAN_POINT('',(0.0387,0.0122,0.));
#582=CARTESIAN_POINT('',(0.0362,0.005,0.0103575715106642));
#583=CARTESIAN_POINT('',(0.0362,0.005,0.0128575715106642));
#584=CARTESIAN_POINT('',(0.0362,0.005,0.00785757151066418));
#585=CARTESIAN_POINT('',(0.0362,-8.67361737988404E-19,0.0128575715106642));
#586=CARTESIAN_POINT('',(0.0362,-0.005,0.0128575715106642));
#587=CARTESIAN_POINT('',(0.0362,-0.005,0.0103575715106642));
#588=CARTESIAN_POINT('',(0.0362,-0.005,0.00785757151066418));
#589=CARTESIAN_POINT('',(0.0362,-8.67361737988404E-19,0.00785757151066418));
#590=MECHANICAL_DESIGN_GEOMETRIC_PRESENTATION_REPRESENTATION('',(#363),
#591);
#591=(
GEOMETRIC_REPRESENTATION_CONTEXT(3)
GLOBAL_UNCERTAINTY_ASSIGNED_CONTEXT((#592))
GLOBAL_UNIT_ASSIGNED_CONTEXT((#595,#594,#593))
REPRESENTATION_CONTEXT('Part 1','TOP_LEVEL_ASSEMBLY_PART')
);
#592=UNCERTAINTY_MEASURE_WITH_UNIT(LENGTH_MEASURE(1.E-8),#595,
'DISTANCE_ACCURACY_VALUE','Maximum Tolerance applied to model');
#593=(
NAMED_UNIT(*)
SI_UNIT($,.STERADIAN.)
SOLID_ANGLE_UNIT()
);
#594=(
NAMED_UNIT(*)
PLANE_ANGLE_UNIT()
SI_UNIT($,.RADIAN.)
);
#595=(
LENGTH_UNIT()
NAMED_UNIT(*)
SI_UNIT($,.METRE.)
);
#596=PRODUCT_DEFINITION_SHAPE('','',#597);
#597=PRODUCT_DEFINITION('','',#599,#598);
#598=PRODUCT_DEFINITION_CONTEXT('',#605,'design');
#599=PRODUCT_DEFINITION_FORMATION_WITH_SPECIFIED_SOURCE('','',#601,
 .NOT_KNOWN.);
#600=PRODUCT_RELATED_PRODUCT_CATEGORY('','',(#601));
#601=PRODUCT('Part 1','Part 1','Part 1',(#603));
#602=PRODUCT_CATEGORY('','');
#603=PRODUCT_CONTEXT('',#605,'mechanical');
#604=APPLICATION_PROTOCOL_DEFINITION('international standard',
'ap242_managed_model_based_3d_engineering',2020,#605);
#605=APPLICATION_CONTEXT('managed model based 3d engineering');
ENDSEC;
END-ISO-10303-21;
